STARTFONT 2.1
FONT -FontForge-Source Code Pro-Book-R-Normal--24-240-72-72-M-140-ISO10646-1
SIZE 24 72 72
FONTBOUNDINGBOX 24 36 -5 -11
COMMENT "Generated by fontforge, http://fontforge.sourceforge.net"
COMMENT "Copyright 2010, 2012 Adobe Systems Incorporated (http://www.adobe.com/), with Reserved Font Name `Source'."
STARTPROPERTIES 40
FOUNDRY "FontForge"
FAMILY_NAME "Source Code Pro"
WEIGHT_NAME "Book"
SLANT "R"
SETWIDTH_NAME "Normal"
ADD_STYLE_NAME ""
PIXEL_SIZE 24
POINT_SIZE 240
RESOLUTION_X 72
RESOLUTION_Y 72
SPACING "M"
AVERAGE_WIDTH 140
CHARSET_REGISTRY "ISO10646"
CHARSET_ENCODING "1"
FONTNAME_REGISTRY ""
CHARSET_COLLECTIONS "ASCII ISOLatin1Encoding ISO8859-2 ISO8859-5 ISO8859-7 ISO8859-9 ISO8859-4 ISO10646-1"
FONT_NAME "SourceCodePro-Regular"
FACE_NAME "Source Code Pro"
COPYRIGHT "Copyright 2010, 2012 Adobe Systems Incorporated (http://www.adobe.com/), with Reserved Font Name `Source'."
FONT_VERSION "2.030;PS 1.000;hotconv 16.6.51;makeotf.lib2.5.65220"
FONT_ASCENT 18
FONT_DESCENT 6
UNDERLINE_POSITION -2
UNDERLINE_THICKNESS 2
X_HEIGHT 11
CAP_HEIGHT 15
RAW_ASCENT 750
RAW_DESCENT 250
NORM_SPACE 14
RELATIVE_WEIGHT 40
RELATIVE_SETWIDTH 50
SUPERSCRIPT_X 0
SUPERSCRIPT_Y 8
SUPERSCRIPT_SIZE 14
SUBSCRIPT_X 0
SUBSCRIPT_Y 1
SUBSCRIPT_SIZE 14
FIGURE_WIDTH 14
AVG_LOWERCASE_WIDTH 140
AVG_UPPERCASE_WIDTH 140
ENDPROPERTIES
CHARS 1564
STARTCHAR space
ENCODING 32
SWIDTH 600 0
DWIDTH 14 0
BBX 1 1 0 0
BITMAP
00
ENDCHAR
STARTCHAR exclam
ENCODING 33
SWIDTH 600 0
DWIDTH 14 0
BBX 4 16 5 0
BITMAP
60
60
60
60
60
60
60
60
60
20
00
00
60
F0
70
60
ENDCHAR
STARTCHAR quotedbl
ENCODING 34
SWIDTH 600 0
DWIDTH 14 0
BBX 8 8 3 8
BITMAP
E3
E3
E3
E3
E3
43
43
43
ENDCHAR
STARTCHAR numbersign
ENCODING 35
SWIDTH 600 0
DWIDTH 14 0
BBX 10 15 2 0
BITMAP
1880
1080
1180
7180
7FC0
11C0
3100
3100
F100
FFC0
2300
2300
2200
2200
6200
ENDCHAR
STARTCHAR dollar
ENCODING 36
SWIDTH 600 0
DWIDTH 14 0
BBX 10 20 2 -2
BITMAP
0400
0400
0400
1F00
7F80
61C0
6000
6000
7800
1E00
0780
01C0
00C0
80C0
E0C0
7F80
1F00
0400
0400
0400
ENDCHAR
STARTCHAR percent
ENCODING 37
SWIDTH 600 0
DWIDTH 14 0
BBX 13 16 1 0
BITMAP
7800
FC10
CC38
8460
8440
CC80
FD00
7800
00E0
11F0
1B18
3318
6318
C318
81F0
00E0
ENDCHAR
STARTCHAR ampersand
ENCODING 38
SWIDTH 600 0
DWIDTH 14 0
BBX 13 16 1 0
BITMAP
0E00
1F00
3300
3100
3300
3300
1E00
1C18
3830
6C30
C630
C360
C1C0
E1E0
7FF8
3E10
ENDCHAR
STARTCHAR quotesingle
ENCODING 39
SWIDTH 600 0
DWIDTH 14 0
BBX 3 8 6 8
BITMAP
E0
C0
C0
C0
C0
C0
C0
C0
ENDCHAR
STARTCHAR parenleft
ENCODING 40
SWIDTH 600 0
DWIDTH 14 0
BBX 6 22 5 -4
BITMAP
04
0C
18
30
20
60
40
C0
C0
C0
C0
C0
C0
C0
C0
40
60
20
30
18
0C
04
ENDCHAR
STARTCHAR parenright
ENCODING 41
SWIDTH 600 0
DWIDTH 14 0
BBX 6 22 3 -4
BITMAP
C0
E0
70
30
18
18
0C
0C
0C
04
04
04
04
0C
0C
0C
18
18
30
60
E0
C0
ENDCHAR
STARTCHAR asterisk
ENCODING 42
SWIDTH 600 0
DWIDTH 14 0
BBX 10 11 2 3
BITMAP
0400
0400
0C00
8C40
FFC0
3F00
0E00
1E00
1300
2180
6080
ENDCHAR
STARTCHAR plus
ENCODING 43
SWIDTH 600 0
DWIDTH 14 0
BBX 10 12 2 2
BITMAP
0C00
0C00
0C00
0C00
0C00
FFC0
FFC0
0C00
0C00
0C00
0C00
0C00
ENDCHAR
STARTCHAR comma
ENCODING 44
SWIDTH 600 0
DWIDTH 14 0
BBX 5 9 5 -5
BITMAP
70
F0
F0
78
10
30
30
60
C0
ENDCHAR
STARTCHAR hyphen
ENCODING 45
SWIDTH 600 0
DWIDTH 14 0
BBX 10 2 2 7
BITMAP
FFC0
FFC0
ENDCHAR
STARTCHAR period
ENCODING 46
SWIDTH 600 0
DWIDTH 14 0
BBX 4 4 5 0
BITMAP
70
F0
F0
70
ENDCHAR
STARTCHAR slash
ENCODING 47
SWIDTH 600 0
DWIDTH 14 0
BBX 10 21 2 -4
BITMAP
00C0
0080
0180
0180
0100
0300
0300
0600
0600
0400
0C00
0C00
0800
1800
1800
3000
3000
2000
6000
6000
C000
ENDCHAR
STARTCHAR zero
ENCODING 48
SWIDTH 600 0
DWIDTH 14 0
BBX 11 15 2 0
BITMAP
1F00
7F80
61C0
C0C0
C0C0
C060
CC60
CE60
CC60
C060
C0C0
C0C0
71C0
3F80
1E00
ENDCHAR
STARTCHAR one
ENCODING 49
SWIDTH 600 0
DWIDTH 14 0
BBX 11 15 2 0
BITMAP
0E00
7E00
0600
0600
0600
0600
0600
0600
0600
0600
0600
0600
0600
FFE0
FFE0
ENDCHAR
STARTCHAR two
ENCODING 50
SWIDTH 600 0
DWIDTH 14 0
BBX 11 15 2 0
BITMAP
3E00
7F80
E180
80C0
00C0
0080
0180
0300
0700
0E00
1C00
3800
6000
FFE0
FFE0
ENDCHAR
STARTCHAR three
ENCODING 51
SWIDTH 600 0
DWIDTH 14 0
BBX 11 15 1 0
BITMAP
1F80
3FC0
70E0
4060
0060
01C0
0F80
0F80
00E0
0060
0060
4060
E0E0
3FC0
1F80
ENDCHAR
STARTCHAR four
ENCODING 52
SWIDTH 600 0
DWIDTH 14 0
BBX 12 15 1 0
BITMAP
01C0
03C0
02C0
06C0
0CC0
18C0
30C0
60C0
60C0
FFF0
FFF0
00C0
00C0
00C0
00C0
ENDCHAR
STARTCHAR five
ENCODING 53
SWIDTH 600 0
DWIDTH 14 0
BBX 12 15 1 0
BITMAP
3FE0
3FE0
3000
3000
3000
3F80
3FC0
20E0
0060
0070
0060
4060
E0E0
7FC0
1F00
ENDCHAR
STARTCHAR six
ENCODING 54
SWIDTH 600 0
DWIDTH 14 0
BBX 11 15 2 0
BITMAP
0F80
3FC0
70E0
6000
C000
CF00
DFC0
F0C0
E060
C060
C060
C060
60C0
3F80
1F00
ENDCHAR
STARTCHAR seven
ENCODING 55
SWIDTH 600 0
DWIDTH 14 0
BBX 11 15 2 0
BITMAP
FFE0
FFE0
00C0
0180
0100
0300
0600
0600
0400
0C00
0C00
0C00
0C00
0C00
1C00
ENDCHAR
STARTCHAR eight
ENCODING 56
SWIDTH 600 0
DWIDTH 14 0
BBX 11 15 2 0
BITMAP
1F00
7F80
61C0
60C0
60C0
60C0
3980
3F00
6380
C0C0
8060
C060
E0E0
7FC0
3F00
ENDCHAR
STARTCHAR nine
ENCODING 57
SWIDTH 600 0
DWIDTH 14 0
BBX 11 15 2 0
BITMAP
3E00
7F80
E180
C0C0
C0C0
C0C0
E1E0
7F60
3E40
00C0
00C0
01C0
C380
FF00
3E00
ENDCHAR
STARTCHAR colon
ENCODING 58
SWIDTH 600 0
DWIDTH 14 0
BBX 4 13 5 0
BITMAP
70
F0
F0
70
00
00
00
00
00
70
F0
F0
70
ENDCHAR
STARTCHAR semicolon
ENCODING 59
SWIDTH 600 0
DWIDTH 14 0
BBX 5 18 5 -5
BITMAP
70
F0
F0
70
00
00
00
00
00
70
F0
F0
78
10
30
30
60
C0
ENDCHAR
STARTCHAR less
ENCODING 60
SWIDTH 600 0
DWIDTH 14 0
BBX 9 14 3 1
BITMAP
0080
0180
0700
0E00
3800
7000
C000
C000
7000
3800
0E00
0700
0180
0080
ENDCHAR
STARTCHAR equal
ENCODING 61
SWIDTH 600 0
DWIDTH 14 0
BBX 10 8 2 4
BITMAP
FFC0
FFC0
0000
0000
0000
0000
FFC0
FFC0
ENDCHAR
STARTCHAR greater
ENCODING 62
SWIDTH 600 0
DWIDTH 14 0
BBX 9 14 3 1
BITMAP
8000
C000
E000
3800
1C00
0700
0380
0380
0700
1C00
3800
E000
C000
8000
ENDCHAR
STARTCHAR question
ENCODING 63
SWIDTH 600 0
DWIDTH 14 0
BBX 9 17 3 0
BITMAP
3C00
FF00
C300
0300
0180
0300
0600
0C00
1800
1800
1800
0000
0000
1800
3C00
3C00
1800
ENDCHAR
STARTCHAR at
ENCODING 64
SWIDTH 600 0
DWIDTH 14 0
BBX 12 20 1 -4
BITMAP
0780
1FE0
3860
3030
6010
4010
C1F0
C3F0
C610
CC10
CC30
CC70
C7D0
4390
6000
6000
3000
3820
1FE0
0780
ENDCHAR
STARTCHAR A
ENCODING 65
SWIDTH 600 0
DWIDTH 14 0
BBX 13 16 1 0
BITMAP
0700
0700
0F00
0D00
0980
1980
1880
10C0
30C0
3FC0
3FE0
6060
6060
6030
C030
C038
ENDCHAR
STARTCHAR B
ENCODING 66
SWIDTH 600 0
DWIDTH 14 0
BBX 11 16 2 0
BITMAP
FF00
FFC0
C1C0
C0C0
C0C0
C1C0
FF00
FF80
C0C0
C060
C060
C060
C060
C0E0
FFC0
FF00
ENDCHAR
STARTCHAR C
ENCODING 67
SWIDTH 600 0
DWIDTH 14 0
BBX 11 16 2 0
BITMAP
0F80
3FC0
7060
6000
C000
C000
C000
C000
C000
C000
C000
C000
6040
7060
3FC0
0F80
ENDCHAR
STARTCHAR D
ENCODING 68
SWIDTH 600 0
DWIDTH 14 0
BBX 11 16 2 0
BITMAP
FE00
FF80
C3C0
C0C0
C0E0
C060
C060
C060
C060
C060
C060
C0E0
C0C0
C3C0
FF80
FE00
ENDCHAR
STARTCHAR E
ENCODING 69
SWIDTH 600 0
DWIDTH 14 0
BBX 10 16 3 0
BITMAP
FF80
FF80
C000
C000
C000
C000
FF00
FF00
C000
C000
C000
C000
C000
C000
FFC0
FFC0
ENDCHAR
STARTCHAR F
ENCODING 70
SWIDTH 600 0
DWIDTH 14 0
BBX 10 16 3 0
BITMAP
FFC0
FFC0
C000
C000
C000
C000
C000
FF80
FF80
C000
C000
C000
C000
C000
C000
C000
ENDCHAR
STARTCHAR G
ENCODING 71
SWIDTH 600 0
DWIDTH 14 0
BBX 12 16 1 0
BITMAP
0780
1FE0
3870
7000
6000
6000
C000
C1F0
C1F0
C030
6030
6030
7030
3870
1FE0
0FC0
ENDCHAR
STARTCHAR H
ENCODING 72
SWIDTH 600 0
DWIDTH 14 0
BBX 11 16 2 0
BITMAP
C0E0
C0E0
C0E0
C0E0
C0E0
C0E0
FFE0
FFE0
C0E0
C0E0
C0E0
C0E0
C0E0
C0E0
C0E0
C0E0
ENDCHAR
STARTCHAR I
ENCODING 73
SWIDTH 600 0
DWIDTH 14 0
BBX 10 16 2 0
BITMAP
FFC0
FFC0
0C00
0C00
0C00
0C00
0C00
0C00
0C00
0C00
0C00
0C00
0C00
0C00
FFC0
FFC0
ENDCHAR
STARTCHAR J
ENCODING 74
SWIDTH 600 0
DWIDTH 14 0
BBX 10 16 2 0
BITMAP
7FC0
7FC0
00C0
00C0
00C0
00C0
00C0
00C0
00C0
00C0
00C0
00C0
41C0
E180
7F80
3E00
ENDCHAR
STARTCHAR K
ENCODING 75
SWIDTH 600 0
DWIDTH 14 0
BBX 12 16 2 0
BITMAP
C060
C0C0
C180
C300
C700
C600
CE00
DE00
F300
F300
E180
C180
C0C0
C0E0
C060
C070
ENDCHAR
STARTCHAR L
ENCODING 76
SWIDTH 600 0
DWIDTH 14 0
BBX 10 16 3 0
BITMAP
C000
C000
C000
C000
C000
C000
C000
C000
C000
C000
C000
C000
C000
C000
FFC0
FFC0
ENDCHAR
STARTCHAR M
ENCODING 77
SWIDTH 600 0
DWIDTH 14 0
BBX 11 16 2 0
BITMAP
C0E0
E0E0
E1E0
A1E0
B160
F360
D360
DA60
DA60
CE60
CC60
CC60
C060
C060
C060
C060
ENDCHAR
STARTCHAR N
ENCODING 78
SWIDTH 600 0
DWIDTH 14 0
BBX 10 16 2 0
BITMAP
C040
E040
E040
F040
D040
D840
D840
CC40
CC40
C640
C640
C340
C340
C1C0
C1C0
C0C0
ENDCHAR
STARTCHAR O
ENCODING 79
SWIDTH 600 0
DWIDTH 14 0
BBX 12 16 1 0
BITMAP
0F80
3FC0
30E0
6060
6030
E030
C030
C030
C030
C030
E030
6030
6060
30E0
3FC0
0F80
ENDCHAR
STARTCHAR P
ENCODING 80
SWIDTH 600 0
DWIDTH 14 0
BBX 11 16 2 0
BITMAP
FF00
FFC0
C0E0
C060
C060
C060
C060
C0C0
FFC0
FF00
C000
C000
C000
C000
C000
C000
ENDCHAR
STARTCHAR Q
ENCODING 81
SWIDTH 600 0
DWIDTH 14 0
BBX 12 20 1 -4
BITMAP
0F80
3FC0
30E0
6060
6030
C030
C030
C030
C030
C030
E030
6030
6060
30E0
3FC0
0F80
0700
0380
01F0
00F0
ENDCHAR
STARTCHAR R
ENCODING 82
SWIDTH 600 0
DWIDTH 14 0
BBX 11 16 2 0
BITMAP
FF00
FFC0
C0C0
C060
C060
C060
C1C0
FFC0
FF00
C700
C300
C180
C180
C0C0
C0C0
C060
ENDCHAR
STARTCHAR S
ENCODING 83
SWIDTH 600 0
DWIDTH 14 0
BBX 11 16 2 0
BITMAP
1F00
7FC0
60C0
E000
C000
6000
7800
1E00
0780
01C0
00E0
0060
8060
E0C0
7FC0
1F00
ENDCHAR
STARTCHAR T
ENCODING 84
SWIDTH 600 0
DWIDTH 14 0
BBX 12 16 1 0
BITMAP
FFF0
FFF0
0600
0600
0600
0600
0600
0600
0600
0600
0600
0600
0600
0600
0600
0600
ENDCHAR
STARTCHAR U
ENCODING 85
SWIDTH 600 0
DWIDTH 14 0
BBX 11 16 2 0
BITMAP
C060
C060
C060
C060
C060
C060
C060
C060
C060
C060
C040
C0C0
E0C0
61C0
7F80
1F00
ENDCHAR
STARTCHAR V
ENCODING 86
SWIDTH 600 0
DWIDTH 14 0
BBX 12 16 1 0
BITMAP
C030
E030
6030
6060
6060
3060
30C0
30C0
18C0
1880
1980
0980
0D00
0F00
0700
0700
ENDCHAR
STARTCHAR W
ENCODING 87
SWIDTH 600 0
DWIDTH 14 0
BBX 14 16 0 0
BITMAP
E00C
E00C
600C
600C
631C
6398
6398
6798
2698
36D8
34D8
3CD8
3C50
3C50
3870
1870
ENDCHAR
STARTCHAR X
ENCODING 88
SWIDTH 600 0
DWIDTH 14 0
BBX 12 16 1 0
BITMAP
6070
7060
30C0
18C0
1980
0D80
0F00
0700
0700
0F00
1980
19C0
30C0
3060
6060
E030
ENDCHAR
STARTCHAR Y
ENCODING 89
SWIDTH 600 0
DWIDTH 14 0
BBX 12 16 1 0
BITMAP
C030
6030
6060
3060
30C0
18C0
1980
0D80
0F00
0700
0600
0600
0600
0600
0600
0600
ENDCHAR
STARTCHAR Z
ENCODING 90
SWIDTH 600 0
DWIDTH 14 0
BBX 11 16 2 0
BITMAP
FFE0
FFE0
00C0
0180
0180
0300
0600
0E00
0C00
1800
3800
3000
6000
C000
FFE0
FFE0
ENDCHAR
STARTCHAR bracketleft
ENCODING 91
SWIDTH 600 0
DWIDTH 14 0
BBX 7 21 5 -4
BITMAP
FE
FE
C0
C0
C0
C0
C0
C0
C0
C0
C0
C0
C0
C0
C0
C0
C0
C0
C0
FE
FE
ENDCHAR
STARTCHAR backslash
ENCODING 92
SWIDTH 600 0
DWIDTH 14 0
BBX 10 21 2 -4
BITMAP
C000
6000
6000
2000
3000
3000
1800
1800
0800
0C00
0C00
0400
0600
0600
0300
0300
0100
0180
0180
0080
00C0
ENDCHAR
STARTCHAR bracketright
ENCODING 93
SWIDTH 600 0
DWIDTH 14 0
BBX 7 21 2 -4
BITMAP
FE
FE
06
06
06
06
06
06
06
06
06
06
06
06
06
06
06
06
06
FE
FE
ENDCHAR
STARTCHAR asciicircum
ENCODING 94
SWIDTH 600 0
DWIDTH 14 0
BBX 9 9 3 7
BITMAP
1800
1C00
3400
3400
6600
6200
4300
C300
C180
ENDCHAR
STARTCHAR underscore
ENCODING 95
SWIDTH 600 0
DWIDTH 14 0
BBX 12 2 1 -4
BITMAP
FFF0
FFF0
ENDCHAR
STARTCHAR grave
ENCODING 96
SWIDTH 600 0
DWIDTH 14 0
BBX 5 5 4 14
BITMAP
40
E0
60
30
18
ENDCHAR
STARTCHAR a
ENCODING 97
SWIDTH 600 0
DWIDTH 14 0
BBX 10 12 2 0
BITMAP
1F00
7F80
E1C0
00C0
07C0
3FC0
78C0
C0C0
C0C0
C1C0
7F40
3C40
ENDCHAR
STARTCHAR b
ENCODING 98
SWIDTH 600 0
DWIDTH 14 0
BBX 11 17 2 0
BITMAP
C000
C000
C000
C000
C000
CF00
FFC0
F1C0
C0E0
C060
C060
C060
C060
C0C0
F1C0
FF80
CF00
ENDCHAR
STARTCHAR c
ENCODING 99
SWIDTH 600 0
DWIDTH 14 0
BBX 11 12 2 0
BITMAP
0F80
3FC0
70E0
E000
C000
C000
C000
C000
E000
7060
3FC0
1F80
ENDCHAR
STARTCHAR d
ENCODING 100
SWIDTH 600 0
DWIDTH 14 0
BBX 11 17 1 0
BITMAP
0060
0060
0060
0060
0060
0F60
3FE0
70E0
6060
6060
E060
C060
6060
6060
70E0
3FE0
1F60
ENDCHAR
STARTCHAR e
ENCODING 101
SWIDTH 600 0
DWIDTH 14 0
BBX 11 12 2 0
BITMAP
1F00
3F80
70C0
C060
C060
FFE0
FFE0
C000
C000
7040
3FC0
1F00
ENDCHAR
STARTCHAR f
ENCODING 102
SWIDTH 600 0
DWIDTH 14 0
BBX 12 17 2 0
BITMAP
03E0
07F0
0E20
0C00
0C00
FFE0
FFE0
0C00
0C00
0C00
0C00
0C00
0C00
0C00
0C00
0C00
0C00
ENDCHAR
STARTCHAR g
ENCODING 103
SWIDTH 600 0
DWIDTH 14 0
BBX 12 17 2 -5
BITMAP
1FF0
7FF0
6180
C080
C0C0
6180
7F80
7F00
4000
C000
7FC0
7FE0
C070
8020
C0E0
FFC0
3F00
ENDCHAR
STARTCHAR h
ENCODING 104
SWIDTH 600 0
DWIDTH 14 0
BBX 11 17 2 0
BITMAP
C000
C000
C000
C000
C000
CF80
DFC0
F0C0
E0C0
C060
C060
C060
C060
C060
C060
C060
C060
ENDCHAR
STARTCHAR i
ENCODING 105
SWIDTH 600 0
DWIDTH 14 0
BBX 8 17 2 0
BITMAP
07
07
07
00
00
FF
FF
03
03
03
03
03
03
03
03
03
03
ENDCHAR
STARTCHAR j
ENCODING 106
SWIDTH 600 0
DWIDTH 14 0
BBX 9 22 1 -5
BITMAP
0380
0380
0380
0000
0000
7F80
7F80
0180
0180
0180
0180
0180
0180
0180
0180
0180
0180
0180
0300
8300
7F00
FC00
ENDCHAR
STARTCHAR k
ENCODING 107
SWIDTH 600 0
DWIDTH 14 0
BBX 11 17 3 0
BITMAP
C000
C000
C000
C000
C000
C1C0
C380
C700
C600
CC00
DC00
F600
E600
C300
C180
C1C0
C0E0
ENDCHAR
STARTCHAR l
ENCODING 108
SWIDTH 600 0
DWIDTH 14 0
BBX 11 17 2 0
BITMAP
FC00
FC00
0C00
0C00
0C00
0C00
0C00
0C00
0C00
0C00
0C00
0C00
0C00
0C00
0E40
07E0
03C0
ENDCHAR
STARTCHAR m
ENCODING 109
SWIDTH 600 0
DWIDTH 14 0
BBX 12 12 1 0
BITMAP
DCE0
FFF0
E730
E730
C630
C630
C630
C630
C630
C630
C630
C630
ENDCHAR
STARTCHAR n
ENCODING 110
SWIDTH 600 0
DWIDTH 14 0
BBX 11 12 2 0
BITMAP
CF80
DFC0
F0C0
E0C0
C060
C060
C060
C060
C060
C060
C060
C060
ENDCHAR
STARTCHAR o
ENCODING 111
SWIDTH 600 0
DWIDTH 14 0
BBX 12 12 1 0
BITMAP
0F80
3FC0
70E0
6060
6030
E030
E030
6030
6070
70E0
3FC0
0F80
ENDCHAR
STARTCHAR p
ENCODING 112
SWIDTH 600 0
DWIDTH 14 0
BBX 11 17 2 -5
BITMAP
CF00
FFC0
F1C0
C0E0
C060
C060
C060
C060
C0E0
F1C0
FF80
CF00
C000
C000
C000
C000
C000
ENDCHAR
STARTCHAR q
ENCODING 113
SWIDTH 600 0
DWIDTH 14 0
BBX 11 17 1 -5
BITMAP
0F20
3FE0
70E0
6060
6060
E060
C060
6060
6060
70E0
3FE0
1F60
0060
0060
0060
0060
0060
ENDCHAR
STARTCHAR r
ENCODING 114
SWIDTH 600 0
DWIDTH 14 0
BBX 10 12 3 0
BITMAP
C7C0
CFC0
D800
F000
E000
C000
C000
C000
C000
C000
C000
C000
ENDCHAR
STARTCHAR s
ENCODING 115
SWIDTH 600 0
DWIDTH 14 0
BBX 11 12 2 0
BITMAP
3F00
7F80
60C0
C000
7000
3F00
0FC0
00C0
8060
E0C0
7FC0
1F00
ENDCHAR
STARTCHAR t
ENCODING 116
SWIDTH 600 0
DWIDTH 14 0
BBX 11 16 2 0
BITMAP
1800
1800
1800
1800
FFE0
FFE0
1800
1800
1800
1800
1800
1800
1800
1C20
0FE0
07C0
ENDCHAR
STARTCHAR u
ENCODING 117
SWIDTH 600 0
DWIDTH 14 0
BBX 10 12 2 0
BITMAP
C0C0
C0C0
C0C0
C0C0
C0C0
C0C0
C0C0
C0C0
C1C0
E3C0
7EC0
3CC0
ENDCHAR
STARTCHAR v
ENCODING 118
SWIDTH 600 0
DWIDTH 14 0
BBX 12 12 1 0
BITMAP
C030
6030
6060
3060
30C0
30C0
18C0
1980
0D80
0D00
0700
0700
ENDCHAR
STARTCHAR w
ENCODING 119
SWIDTH 600 0
DWIDTH 14 0
BBX 14 12 0 0
BITMAP
C00C
430C
638C
6388
6798
6698
26D8
34D8
3CD0
3C50
3C70
1870
ENDCHAR
STARTCHAR x
ENCODING 120
SWIDTH 600 0
DWIDTH 14 0
BBX 11 12 2 0
BITMAP
C0E0
61C0
3180
3300
1E00
0E00
1E00
1F00
3300
6180
60C0
C0E0
ENDCHAR
STARTCHAR y
ENCODING 121
SWIDTH 600 0
DWIDTH 14 0
BBX 12 17 1 -5
BITMAP
C030
6030
6060
3060
3040
18C0
18C0
0980
0D80
0D00
0700
0700
0600
0600
0C00
7C00
7000
ENDCHAR
STARTCHAR z
ENCODING 122
SWIDTH 600 0
DWIDTH 14 0
BBX 11 12 2 0
BITMAP
7FE0
7FC0
01C0
0380
0700
0E00
1C00
1800
3000
6000
FFE0
FFE0
ENDCHAR
STARTCHAR braceleft
ENCODING 123
SWIDTH 600 0
DWIDTH 14 0
BBX 9 21 3 -4
BITMAP
0F80
1F80
1800
1800
1800
1800
1800
1800
1800
F000
F000
3800
1800
1800
1800
1800
1800
1800
1800
1F80
0780
ENDCHAR
STARTCHAR bar
ENCODING 124
SWIDTH 600 0
DWIDTH 14 0
BBX 2 24 6 -6
BITMAP
C0
C0
C0
C0
C0
C0
C0
C0
C0
C0
C0
C0
C0
C0
C0
C0
C0
C0
C0
C0
C0
C0
C0
C0
ENDCHAR
STARTCHAR braceright
ENCODING 125
SWIDTH 600 0
DWIDTH 14 0
BBX 10 21 2 -4
BITMAP
F800
FC00
0C00
0400
0400
0400
0C00
0C00
0600
07C0
07C0
0600
0C00
0C00
0C00
0400
0400
0400
0C00
FC00
F800
ENDCHAR
STARTCHAR asciitilde
ENCODING 126
SWIDTH 600 0
DWIDTH 14 0
BBX 11 4 2 6
BITMAP
3840
7CE0
CFC0
8380
ENDCHAR
STARTCHAR uni00A0
ENCODING 160
SWIDTH 600 0
DWIDTH 14 0
BBX 1 1 0 0
BITMAP
00
ENDCHAR
STARTCHAR exclamdown
ENCODING 161
SWIDTH 600 0
DWIDTH 14 0
BBX 4 17 5 -5
BITMAP
60
F0
F0
60
00
00
60
60
60
60
60
60
60
60
60
60
60
ENDCHAR
STARTCHAR cent
ENCODING 162
SWIDTH 600 0
DWIDTH 14 0
BBX 9 15 3 0
BITMAP
0400
0400
1E00
7F80
E500
C400
C400
C400
C400
C400
E580
7F80
1E00
0400
0400
ENDCHAR
STARTCHAR sterling
ENCODING 163
SWIDTH 600 0
DWIDTH 14 0
BBX 11 15 2 0
BITMAP
0F80
3FC0
3060
6000
2000
3000
FF80
FF80
1800
1800
1000
3000
6000
FFE0
FFE0
ENDCHAR
STARTCHAR currency
ENCODING 164
SWIDTH 600 0
DWIDTH 14 0
BBX 12 12 1 2
BITMAP
4030
EF60
3FC0
38C0
3060
2060
2060
3060
38C0
3FC0
6F60
C030
ENDCHAR
STARTCHAR yen
ENCODING 165
SWIDTH 600 0
DWIDTH 14 0
BBX 12 15 1 0
BITMAP
E030
6060
3060
30C0
1880
0980
0D00
7FF0
7FF0
0600
0600
7FF0
7FF0
0600
0600
ENDCHAR
STARTCHAR brokenbar
ENCODING 166
SWIDTH 600 0
DWIDTH 14 0
BBX 2 24 6 -6
BITMAP
C0
C0
C0
C0
C0
C0
C0
C0
C0
C0
C0
00
00
C0
C0
C0
C0
C0
C0
C0
C0
C0
C0
C0
ENDCHAR
STARTCHAR section
ENCODING 167
SWIDTH 600 0
DWIDTH 14 0
BBX 10 19 2 -2
BITMAP
1E00
3F80
3180
2000
3000
3800
6E00
C380
C0C0
C0C0
60C0
38C0
1F80
0700
0180
0180
6380
7F00
1E00
ENDCHAR
STARTCHAR dieresis
ENCODING 168
SWIDTH 600 0
DWIDTH 14 0
BBX 7 3 4 14
BITMAP
C4
CE
C6
ENDCHAR
STARTCHAR copyright
ENCODING 169
SWIDTH 600 0
DWIDTH 14 0
BBX 13 15 1 0
BITMAP
0F80
3FC0
7060
4030
C610
9F98
9D98
B008
9898
9F90
C610
4030
7060
3FC0
0F80
ENDCHAR
STARTCHAR ordfeminine
ENCODING 170
SWIDTH 600 0
DWIDTH 14 0
BBX 7 8 4 9
BITMAP
3C
FC
86
3E
FE
C6
FE
70
ENDCHAR
STARTCHAR guillemotleft
ENCODING 171
SWIDTH 600 0
DWIDTH 14 0
BBX 10 10 2 1
BITMAP
1040
38C0
6180
E300
C600
C600
E300
6180
30C0
1840
ENDCHAR
STARTCHAR logicalnot
ENCODING 172
SWIDTH 600 0
DWIDTH 14 0
BBX 10 7 2 2
BITMAP
FFC0
FFC0
0040
0040
0040
0040
0040
ENDCHAR
STARTCHAR uni00AD
ENCODING 173
SWIDTH 600 0
DWIDTH 14 0
BBX 10 2 2 7
BITMAP
FFC0
FFC0
ENDCHAR
STARTCHAR registered
ENCODING 174
SWIDTH 600 0
DWIDTH 14 0
BBX 9 9 3 8
BITMAP
3C00
4300
B900
A480
BC80
A480
A500
4300
3C00
ENDCHAR
STARTCHAR macron
ENCODING 175
SWIDTH 600 0
DWIDTH 14 0
BBX 6 1 4 15
BITMAP
FC
ENDCHAR
STARTCHAR degree
ENCODING 176
SWIDTH 600 0
DWIDTH 14 0
BBX 6 7 4 10
BITMAP
38
7C
C4
84
C4
7C
38
ENDCHAR
STARTCHAR plusminus
ENCODING 177
SWIDTH 600 0
DWIDTH 14 0
BBX 10 14 2 0
BITMAP
0C00
0C00
0C00
0C00
0C00
FFC0
FFC0
0C00
0C00
0C00
0000
0000
FFC0
FFC0
ENDCHAR
STARTCHAR two.sups
ENCODING 178
SWIDTH 600 0
DWIDTH 14 0
BBX 8 11 3 9
BITMAP
3C
7E
46
82
02
04
0C
18
30
7F
7F
ENDCHAR
STARTCHAR three.sups
ENCODING 179
SWIDTH 600 0
DWIDTH 14 0
BBX 8 11 3 9
BITMAP
3C
7E
46
02
06
1C
1E
03
C3
7E
3C
ENDCHAR
STARTCHAR acute
ENCODING 180
SWIDTH 600 0
DWIDTH 14 0
BBX 4 5 6 14
BITMAP
10
30
60
C0
80
ENDCHAR
STARTCHAR uni00B5
ENCODING 181
SWIDTH 600 0
DWIDTH 14 0
BBX 11 17 2 -5
BITMAP
C0C0
C0C0
C0C0
C0C0
C0C0
C0C0
C0C0
C0C0
C1C0
E3C0
FEE0
DC60
C000
C000
C000
C000
C000
ENDCHAR
STARTCHAR paragraph
ENCODING 182
SWIDTH 600 0
DWIDTH 14 0
BBX 10 18 2 -2
BITMAP
3CC0
7CC0
FCC0
FCC0
FCC0
FCC0
FCC0
FCC0
7CC0
3CC0
00C0
00C0
00C0
00C0
00C0
00C0
00C0
00C0
ENDCHAR
STARTCHAR periodcentered
ENCODING 183
SWIDTH 600 0
DWIDTH 14 0
BBX 4 4 5 7
BITMAP
70
F0
F0
70
ENDCHAR
STARTCHAR cedilla
ENCODING 184
SWIDTH 600 0
DWIDTH 14 0
BBX 4 6 5 -6
BITMAP
60
40
60
30
30
E0
ENDCHAR
STARTCHAR one.sups
ENCODING 185
SWIDTH 600 0
DWIDTH 14 0
BBX 7 10 4 9
BITMAP
18
78
18
18
18
18
18
18
FE
FE
ENDCHAR
STARTCHAR ordmasculine
ENCODING 186
SWIDTH 600 0
DWIDTH 14 0
BBX 8 8 3 9
BITMAP
3C
7E
63
C3
C3
63
7E
3C
ENDCHAR
STARTCHAR guillemotright
ENCODING 187
SWIDTH 600 0
DWIDTH 14 0
BBX 10 10 2 1
BITMAP
4200
E300
3180
30C0
18C0
18C0
30C0
3180
6300
C200
ENDCHAR
STARTCHAR onequarter
ENCODING 188
SWIDTH 600 0
DWIDTH 14 0
BBX 13 15 1 0
BITMAP
3010
7038
1060
1040
1080
1100
1000
0040
1080
19B0
3130
63F8
C3F8
8030
0030
ENDCHAR
STARTCHAR onehalf
ENCODING 189
SWIDTH 600 0
DWIDTH 14 0
BBX 13 15 1 0
BITMAP
3010
7038
1060
1040
1080
1100
1000
00E0
11F0
1930
3010
6020
C0C0
81F8
01F8
ENDCHAR
STARTCHAR threequarters
ENCODING 190
SWIDTH 600 0
DWIDTH 14 0
BBX 13 16 1 0
BITMAP
7000
F808
8818
1830
3060
8CC0
FC80
7800
0040
0880
09B0
1130
33F8
63F8
C030
0030
ENDCHAR
STARTCHAR questiondown
ENCODING 191
SWIDTH 600 0
DWIDTH 14 0
BBX 9 17 3 -5
BITMAP
1C00
1C00
1C00
1C00
0000
0000
0C00
0C00
1800
3000
6000
C000
C000
C000
E380
7F00
3C00
ENDCHAR
STARTCHAR Agrave
ENCODING 192
SWIDTH 600 0
DWIDTH 14 0
BBX 13 21 1 0
BITMAP
0800
1C00
0600
0300
0000
0700
0700
0F00
0D00
0980
1980
1880
10C0
30C0
3FC0
3FE0
6060
6060
6030
C030
C038
ENDCHAR
STARTCHAR Aacute
ENCODING 193
SWIDTH 600 0
DWIDTH 14 0
BBX 13 21 1 0
BITMAP
0100
0380
0700
0400
0000
0700
0700
0F00
0D00
0980
1980
1880
10C0
30C0
3FC0
3FE0
6060
6060
6030
C030
C038
ENDCHAR
STARTCHAR Acircumflex
ENCODING 194
SWIDTH 600 0
DWIDTH 14 0
BBX 13 20 1 0
BITMAP
0700
0D80
10C0
0000
0700
0700
0F00
0D00
0980
1980
1880
10C0
30C0
3FC0
3FE0
6060
6060
6030
C030
C038
ENDCHAR
STARTCHAR Atilde
ENCODING 195
SWIDTH 600 0
DWIDTH 14 0
BBX 13 20 1 0
BITMAP
1C40
3640
2180
0000
0700
0700
0F00
0D00
0980
1980
1880
10C0
30C0
3FC0
3FE0
6060
6060
6030
C030
C038
ENDCHAR
STARTCHAR Adieresis
ENCODING 196
SWIDTH 600 0
DWIDTH 14 0
BBX 13 19 1 0
BITMAP
1980
19C0
0000
0700
0700
0F00
0D00
0980
1980
1880
10C0
30C0
3FC0
3FE0
6060
6060
6030
C030
C038
ENDCHAR
STARTCHAR Aring
ENCODING 197
SWIDTH 600 0
DWIDTH 14 0
BBX 13 22 1 0
BITMAP
0700
0900
0980
0900
0700
0000
0700
0700
0F00
0D00
0980
1980
1880
10C0
30C0
3FC0
3FE0
6060
6060
6030
C030
C038
ENDCHAR
STARTCHAR AE
ENCODING 198
SWIDTH 600 0
DWIDTH 14 0
BBX 14 16 0 0
BITMAP
03FC
03FC
0680
0680
0480
0C80
0CF8
18F8
1880
1880
3F80
3F80
7080
6080
60FC
C0FC
ENDCHAR
STARTCHAR Ccedilla
ENCODING 199
SWIDTH 600 0
DWIDTH 14 0
BBX 11 22 2 -6
BITMAP
0F80
3FC0
7060
6000
C000
C000
C000
C000
C000
C000
C000
C000
6040
7060
3FC0
0F80
0200
0600
0700
0300
0300
0E00
ENDCHAR
STARTCHAR Egrave
ENCODING 200
SWIDTH 600 0
DWIDTH 14 0
BBX 10 21 3 0
BITMAP
1000
3800
0C00
0600
0000
FF80
FF80
C000
C000
C000
C000
FF00
FF00
C000
C000
C000
C000
C000
C000
FFC0
FFC0
ENDCHAR
STARTCHAR Eacute
ENCODING 201
SWIDTH 600 0
DWIDTH 14 0
BBX 10 21 3 0
BITMAP
0200
0700
0C00
1800
0000
FF80
FF80
C000
C000
C000
C000
FF00
FF00
C000
C000
C000
C000
C000
C000
FFC0
FFC0
ENDCHAR
STARTCHAR Ecircumflex
ENCODING 202
SWIDTH 600 0
DWIDTH 14 0
BBX 10 20 3 0
BITMAP
1E00
3300
6180
0000
FF80
FF80
C000
C000
C000
C000
FF00
FF00
C000
C000
C000
C000
C000
C000
FFC0
FFC0
ENDCHAR
STARTCHAR Edieresis
ENCODING 203
SWIDTH 600 0
DWIDTH 14 0
BBX 10 19 3 0
BITMAP
3300
3300
0000
FF80
FF80
C000
C000
C000
C000
FF00
FF00
C000
C000
C000
C000
C000
C000
FFC0
FFC0
ENDCHAR
STARTCHAR Igrave
ENCODING 204
SWIDTH 600 0
DWIDTH 14 0
BBX 10 21 2 0
BITMAP
1000
3800
0C00
0600
0000
FFC0
FFC0
0C00
0C00
0C00
0C00
0C00
0C00
0C00
0C00
0C00
0C00
0C00
0C00
FFC0
FFC0
ENDCHAR
STARTCHAR Iacute
ENCODING 205
SWIDTH 600 0
DWIDTH 14 0
BBX 10 21 2 0
BITMAP
0200
0700
0E00
0800
0000
FFC0
FFC0
0C00
0C00
0C00
0C00
0C00
0C00
0C00
0C00
0C00
0C00
0C00
0C00
FFC0
FFC0
ENDCHAR
STARTCHAR Icircumflex
ENCODING 206
SWIDTH 600 0
DWIDTH 14 0
BBX 10 20 2 0
BITMAP
0E00
1B00
2180
0000
FFC0
FFC0
0C00
0C00
0C00
0C00
0C00
0C00
0C00
0C00
0C00
0C00
0C00
0C00
FFC0
FFC0
ENDCHAR
STARTCHAR Idieresis
ENCODING 207
SWIDTH 600 0
DWIDTH 14 0
BBX 10 19 2 0
BITMAP
3300
3380
0000
FFC0
FFC0
0C00
0C00
0C00
0C00
0C00
0C00
0C00
0C00
0C00
0C00
0C00
0C00
FFC0
FFC0
ENDCHAR
STARTCHAR Eth
ENCODING 208
SWIDTH 600 0
DWIDTH 14 0
BBX 13 16 0 0
BITMAP
3F80
3FE0
30F0
3030
3038
3018
FF18
FF18
3018
3018
3018
3038
3030
30F0
3FE0
3F80
ENDCHAR
STARTCHAR Ntilde
ENCODING 209
SWIDTH 600 0
DWIDTH 14 0
BBX 10 20 2 0
BITMAP
38C0
6480
6380
0000
C040
E040
E040
F040
D040
D840
D840
CC40
CC40
C640
C640
C340
C340
C1C0
C1C0
C0C0
ENDCHAR
STARTCHAR Ograve
ENCODING 210
SWIDTH 600 0
DWIDTH 14 0
BBX 12 21 1 0
BITMAP
0800
1C00
0600
0300
0000
0F80
3FC0
30E0
6060
6030
E030
C030
C030
C030
C030
E030
6030
6060
30E0
3FC0
0F80
ENDCHAR
STARTCHAR Oacute
ENCODING 211
SWIDTH 600 0
DWIDTH 14 0
BBX 12 21 1 0
BITMAP
0100
0380
0700
0400
0000
0F80
3FC0
30E0
6060
6030
E030
C030
C030
C030
C030
E030
6030
6060
30E0
3FC0
0F80
ENDCHAR
STARTCHAR Ocircumflex
ENCODING 212
SWIDTH 600 0
DWIDTH 14 0
BBX 12 20 1 0
BITMAP
0700
0D80
10C0
0000
0F80
3FC0
30E0
6060
6030
E030
C030
C030
C030
C030
E030
6030
6060
30E0
3FC0
0F80
ENDCHAR
STARTCHAR Otilde
ENCODING 213
SWIDTH 600 0
DWIDTH 14 0
BBX 12 20 1 0
BITMAP
1C40
3640
2180
0000
0F80
3FC0
30E0
6060
6030
E030
C030
C030
C030
C030
E030
6030
6060
30E0
3FC0
0F80
ENDCHAR
STARTCHAR Odieresis
ENCODING 214
SWIDTH 600 0
DWIDTH 14 0
BBX 12 19 1 0
BITMAP
1980
19C0
0000
0F80
3FC0
30E0
6060
6030
E030
C030
C030
C030
C030
E030
6030
6060
30E0
3FC0
0F80
ENDCHAR
STARTCHAR multiply
ENCODING 215
SWIDTH 600 0
DWIDTH 14 0
BBX 10 10 2 3
BITMAP
4080
E1C0
3180
1B00
0E00
0E00
1B00
3180
61C0
C080
ENDCHAR
STARTCHAR Oslash
ENCODING 216
SWIDTH 600 0
DWIDTH 14 0
BBX 12 18 1 -1
BITMAP
0020
0FB0
3FF0
30E0
60E0
60F0
E1B0
C330
C230
C630
CC30
D830
7830
7060
70E0
7FC0
CF80
8000
ENDCHAR
STARTCHAR Ugrave
ENCODING 217
SWIDTH 600 0
DWIDTH 14 0
BBX 11 21 2 0
BITMAP
1000
3800
0C00
0600
0000
C060
C060
C060
C060
C060
C060
C060
C060
C060
C060
C040
C0C0
E0C0
61C0
7F80
1F00
ENDCHAR
STARTCHAR Uacute
ENCODING 218
SWIDTH 600 0
DWIDTH 14 0
BBX 11 21 2 0
BITMAP
0200
0700
0E00
0800
0000
C060
C060
C060
C060
C060
C060
C060
C060
C060
C060
C040
C0C0
E0C0
61C0
7F80
1F00
ENDCHAR
STARTCHAR Ucircumflex
ENCODING 219
SWIDTH 600 0
DWIDTH 14 0
BBX 11 20 2 0
BITMAP
0E00
1B00
2180
0000
C060
C060
C060
C060
C060
C060
C060
C060
C060
C060
C040
C0C0
E0C0
61C0
7F80
1F00
ENDCHAR
STARTCHAR Udieresis
ENCODING 220
SWIDTH 600 0
DWIDTH 14 0
BBX 11 19 2 0
BITMAP
3300
3380
0000
C060
C060
C060
C060
C060
C060
C060
C060
C060
C060
C040
C0C0
E0C0
61C0
7F80
1F00
ENDCHAR
STARTCHAR Yacute
ENCODING 221
SWIDTH 600 0
DWIDTH 14 0
BBX 12 21 1 0
BITMAP
0100
0380
0700
0400
0000
C030
6030
6060
3060
30C0
18C0
1980
0D80
0F00
0700
0600
0600
0600
0600
0600
0600
ENDCHAR
STARTCHAR Thorn
ENCODING 222
SWIDTH 600 0
DWIDTH 14 0
BBX 11 16 2 0
BITMAP
C000
C000
C000
FF00
FFC0
C0E0
C060
C060
C060
C060
C0C0
FFC0
FF00
C000
C000
C000
ENDCHAR
STARTCHAR germandbls
ENCODING 223
SWIDTH 600 0
DWIDTH 14 0
BBX 12 17 2 0
BITMAP
1E00
7F00
6380
C180
C180
C300
C200
C600
C600
C700
C3C0
C1E0
C060
C030
C460
CFE0
C7C0
ENDCHAR
STARTCHAR agrave
ENCODING 224
SWIDTH 600 0
DWIDTH 14 0
BBX 10 19 2 0
BITMAP
1000
3800
0C00
0600
0200
0000
0000
1F00
7F80
E1C0
00C0
07C0
3FC0
78C0
C0C0
C0C0
C1C0
7F40
3C40
ENDCHAR
STARTCHAR aacute
ENCODING 225
SWIDTH 600 0
DWIDTH 14 0
BBX 10 19 2 0
BITMAP
0100
0380
0700
0600
0C00
0000
0000
1F00
7F80
E1C0
00C0
07C0
3FC0
78C0
C0C0
C0C0
C1C0
7F40
3C40
ENDCHAR
STARTCHAR acircumflex
ENCODING 226
SWIDTH 600 0
DWIDTH 14 0
BBX 10 18 2 0
BITMAP
0E00
1F00
1180
2080
0000
0000
1F00
7F80
E1C0
00C0
07C0
3FC0
78C0
C0C0
C0C0
C1C0
7F40
3C40
ENDCHAR
STARTCHAR atilde
ENCODING 227
SWIDTH 600 0
DWIDTH 14 0
BBX 10 17 2 0
BITMAP
1000
3CC0
2380
0000
0000
1F00
7F80
E1C0
00C0
07C0
3FC0
78C0
C0C0
C0C0
C1C0
7F40
3C40
ENDCHAR
STARTCHAR adieresis
ENCODING 228
SWIDTH 600 0
DWIDTH 14 0
BBX 10 17 2 0
BITMAP
3180
3980
3180
0000
0000
1F00
7F80
E1C0
00C0
07C0
3FC0
78C0
C0C0
C0C0
C1C0
7F40
3C40
ENDCHAR
STARTCHAR aring
ENCODING 229
SWIDTH 600 0
DWIDTH 14 0
BBX 10 19 2 0
BITMAP
0E00
1900
1100
1900
0E00
0000
0000
1F00
7F80
E1C0
00C0
07C0
3FC0
78C0
C0C0
C0C0
C1C0
7F40
3C40
ENDCHAR
STARTCHAR ae
ENCODING 230
SWIDTH 600 0
DWIDTH 14 0
BBX 14 12 0 0
BITMAP
3C70
7EF8
438C
030C
0F04
3FFC
73FC
6300
C100
E388
7EFC
3878
ENDCHAR
STARTCHAR ccedilla
ENCODING 231
SWIDTH 600 0
DWIDTH 14 0
BBX 11 18 2 -6
BITMAP
0F80
3FC0
70E0
E000
C000
C000
C000
C000
E000
7060
3FC0
0F80
0200
0600
0700
0300
0300
0E00
ENDCHAR
STARTCHAR egrave
ENCODING 232
SWIDTH 600 0
DWIDTH 14 0
BBX 11 19 2 0
BITMAP
1000
3800
0C00
0600
0200
0000
0000
1F00
3F80
70C0
C060
C060
FFE0
FFE0
C000
C000
7040
3FC0
1F00
ENDCHAR
STARTCHAR eacute
ENCODING 233
SWIDTH 600 0
DWIDTH 14 0
BBX 11 19 2 0
BITMAP
0100
0380
0700
0E00
0400
0000
0000
1F00
3F80
70C0
C060
C060
FFE0
FFE0
C000
C000
7040
3FC0
1F00
ENDCHAR
STARTCHAR ecircumflex
ENCODING 234
SWIDTH 600 0
DWIDTH 14 0
BBX 11 18 2 0
BITMAP
0E00
1B00
3180
2080
0000
0000
1F00
3F80
70C0
C060
C060
FFE0
FFE0
C000
C000
7040
3FC0
1F00
ENDCHAR
STARTCHAR edieresis
ENCODING 235
SWIDTH 600 0
DWIDTH 14 0
BBX 11 17 2 0
BITMAP
3180
3980
3180
0000
0000
1F00
3F80
70C0
C060
C060
FFE0
FFE0
C000
C000
7040
3FC0
1F00
ENDCHAR
STARTCHAR igrave
ENCODING 236
SWIDTH 600 0
DWIDTH 14 0
BBX 8 19 2 0
BITMAP
08
1C
0E
06
03
00
00
FF
FF
03
03
03
03
03
03
03
03
03
03
ENDCHAR
STARTCHAR iacute
ENCODING 237
SWIDTH 600 0
DWIDTH 14 0
BBX 10 19 2 0
BITMAP
0080
01C0
0300
0600
0400
0000
0000
FF00
FF00
0300
0300
0300
0300
0300
0300
0300
0300
0300
0300
ENDCHAR
STARTCHAR icircumflex
ENCODING 238
SWIDTH 600 0
DWIDTH 14 0
BBX 10 18 2 0
BITMAP
0700
0D80
1880
1040
0000
0000
FF00
FF00
0300
0300
0300
0300
0300
0300
0300
0300
0300
0300
ENDCHAR
STARTCHAR idieresis
ENCODING 239
SWIDTH 600 0
DWIDTH 14 0
BBX 10 17 2 0
BITMAP
18C0
19C0
18C0
0000
0000
FF00
FF00
0300
0300
0300
0300
0300
0300
0300
0300
0300
0300
ENDCHAR
STARTCHAR eth
ENCODING 240
SWIDTH 600 0
DWIDTH 14 0
BBX 12 17 1 0
BITMAP
1820
0EE0
0780
0F80
18C0
0060
1F60
3FE0
70F0
6070
C030
C030
4030
6060
70E0
3FC0
0F80
ENDCHAR
STARTCHAR ntilde
ENCODING 241
SWIDTH 600 0
DWIDTH 14 0
BBX 11 17 2 0
BITMAP
1000
3CC0
2380
4000
0000
CF80
DFC0
F0C0
E0C0
C060
C060
C060
C060
C060
C060
C060
C060
ENDCHAR
STARTCHAR ograve
ENCODING 242
SWIDTH 600 0
DWIDTH 14 0
BBX 12 19 1 0
BITMAP
0800
1C00
0C00
0600
0300
0000
0000
0F80
3FC0
70E0
6060
6030
E030
E030
6030
6070
70E0
3FC0
0F80
ENDCHAR
STARTCHAR oacute
ENCODING 243
SWIDTH 600 0
DWIDTH 14 0
BBX 12 19 1 0
BITMAP
0080
0180
0300
0600
0400
0000
0000
0F80
3FC0
70E0
6060
6030
E030
E030
6030
6070
70E0
3FC0
0F80
ENDCHAR
STARTCHAR ocircumflex
ENCODING 244
SWIDTH 600 0
DWIDTH 14 0
BBX 12 18 1 0
BITMAP
0700
0F00
1980
3040
0000
0000
0F80
3FC0
70E0
6060
6030
E030
E030
6030
6070
70E0
3FC0
0F80
ENDCHAR
STARTCHAR otilde
ENCODING 245
SWIDTH 600 0
DWIDTH 14 0
BBX 12 17 1 0
BITMAP
0800
3640
23C0
0000
0000
0F80
3FC0
70E0
6060
6030
E030
E030
6030
6070
70E0
3FC0
0F80
ENDCHAR
STARTCHAR odieresis
ENCODING 246
SWIDTH 600 0
DWIDTH 14 0
BBX 12 17 1 0
BITMAP
1880
19C0
18C0
0000
0000
0F80
3FC0
70E0
6060
6030
E030
E030
6030
6070
70E0
3FC0
0F80
ENDCHAR
STARTCHAR divide
ENCODING 247
SWIDTH 600 0
DWIDTH 14 0
BBX 10 12 2 2
BITMAP
0C00
0E00
0C00
0000
0000
FFC0
FFC0
0000
0000
0C00
0E00
0C00
ENDCHAR
STARTCHAR oslash
ENCODING 248
SWIDTH 600 0
DWIDTH 14 0
BBX 12 12 1 0
BITMAP
0FB0
3FE0
70E0
61E0
61B0
E330
C630
6C30
7870
70E0
7FC0
CF80
ENDCHAR
STARTCHAR ugrave
ENCODING 249
SWIDTH 600 0
DWIDTH 14 0
BBX 10 19 2 0
BITMAP
1000
3800
1800
0C00
0600
0000
0000
C0C0
C0C0
C0C0
C0C0
C0C0
C0C0
C0C0
C0C0
C1C0
E3C0
7EC0
3CC0
ENDCHAR
STARTCHAR uacute
ENCODING 250
SWIDTH 600 0
DWIDTH 14 0
BBX 10 19 2 0
BITMAP
0100
0300
0600
0C00
0800
0000
0000
C0C0
C0C0
C0C0
C0C0
C0C0
C0C0
C0C0
C0C0
C1C0
E3C0
7EC0
3CC0
ENDCHAR
STARTCHAR ucircumflex
ENCODING 251
SWIDTH 600 0
DWIDTH 14 0
BBX 10 18 2 0
BITMAP
0E00
1E00
3300
6180
0000
0000
C0C0
C0C0
C0C0
C0C0
C0C0
C0C0
C0C0
C0C0
C1C0
E3C0
7EC0
3CC0
ENDCHAR
STARTCHAR udieresis
ENCODING 252
SWIDTH 600 0
DWIDTH 14 0
BBX 10 17 2 0
BITMAP
3300
7380
3300
0000
0000
C0C0
C0C0
C0C0
C0C0
C0C0
C0C0
C0C0
C0C0
C1C0
E3C0
7EC0
3CC0
ENDCHAR
STARTCHAR yacute
ENCODING 253
SWIDTH 600 0
DWIDTH 14 0
BBX 12 24 1 -5
BITMAP
0080
01C0
0300
0600
0400
0000
0000
C030
6030
6060
3060
3040
18C0
18C0
0980
0D80
0D00
0700
0700
0600
0600
0C00
7C00
7000
ENDCHAR
STARTCHAR thorn
ENCODING 254
SWIDTH 600 0
DWIDTH 14 0
BBX 11 22 2 -5
BITMAP
C000
C000
C000
C000
C000
CF00
FFC0
F0C0
C0E0
C060
C060
C060
C060
C0E0
F1C0
FF80
CF00
C000
C000
C000
C000
C000
ENDCHAR
STARTCHAR ydieresis
ENCODING 255
SWIDTH 600 0
DWIDTH 14 0
BBX 12 22 1 -5
BITMAP
18C0
19C0
18C0
0000
0000
C030
6030
6060
3060
3040
18C0
18C0
0980
0D80
0D00
0700
0700
0600
0600
0C00
7C00
7000
ENDCHAR
STARTCHAR Amacron
ENCODING 256
SWIDTH 600 0
DWIDTH 14 0
BBX 13 19 1 0
BITMAP
1F80
0000
0000
0700
0700
0F00
0D00
0980
1980
1880
10C0
30C0
3FC0
3FE0
6060
6060
6030
C030
C038
ENDCHAR
STARTCHAR amacron
ENCODING 257
SWIDTH 600 0
DWIDTH 14 0
BBX 10 16 2 0
BITMAP
3F80
0000
0000
0000
1F00
7F80
E1C0
00C0
07C0
3FC0
78C0
C0C0
C0C0
C1C0
7F40
3C40
ENDCHAR
STARTCHAR Abreve
ENCODING 258
SWIDTH 600 0
DWIDTH 14 0
BBX 13 20 1 0
BITMAP
10C0
1880
0F00
0000
0700
0700
0F00
0D00
0980
1980
1880
10C0
30C0
3FC0
3FE0
6060
6060
6030
C030
C038
ENDCHAR
STARTCHAR abreve
ENCODING 259
SWIDTH 600 0
DWIDTH 14 0
BBX 10 17 2 0
BITMAP
2080
3180
1F00
0000
0000
1F00
7F80
E1C0
00C0
07C0
3FC0
78C0
C0C0
C0C0
C1C0
7F40
3C40
ENDCHAR
STARTCHAR Aogonek
ENCODING 260
SWIDTH 600 0
DWIDTH 14 0
BBX 14 22 1 -6
BITMAP
0700
0700
0F00
0D00
0980
1980
1880
10C0
30C0
3FC0
3FE0
6060
6060
6030
C030
C030
0038
0020
0040
0068
0078
003C
ENDCHAR
STARTCHAR aogonek
ENCODING 261
SWIDTH 600 0
DWIDTH 14 0
BBX 11 18 2 -6
BITMAP
1F00
7F80
E1C0
00C0
07C0
3FC0
78C0
C0C0
C0C0
C1C0
7FC0
3E40
0080
0100
0100
0320
01E0
01C0
ENDCHAR
STARTCHAR Cacute
ENCODING 262
SWIDTH 600 0
DWIDTH 14 0
BBX 11 21 2 0
BITMAP
0080
0380
0700
0400
0000
0F80
3FC0
7060
6000
C000
C000
C000
C000
C000
C000
C000
C000
6040
7060
3FC0
0F80
ENDCHAR
STARTCHAR cacute
ENCODING 263
SWIDTH 600 0
DWIDTH 14 0
BBX 11 19 2 0
BITMAP
0080
01C0
0300
0600
0400
0000
0000
0F80
3FC0
70E0
E000
C000
C000
C000
C000
E000
7060
3FC0
1F80
ENDCHAR
STARTCHAR Ccircumflex
ENCODING 264
SWIDTH 600 0
DWIDTH 14 0
BBX 11 20 2 0
BITMAP
0700
0D80
10C0
0000
0F80
3FC0
7060
6000
C000
C000
C000
C000
C000
C000
C000
C000
6040
7060
3FC0
0F80
ENDCHAR
STARTCHAR ccircumflex
ENCODING 265
SWIDTH 600 0
DWIDTH 14 0
BBX 11 18 2 0
BITMAP
0700
0D80
1880
1040
0000
0000
0F80
3FC0
70E0
E000
C000
C000
C000
C000
E000
7060
3FC0
1F80
ENDCHAR
STARTCHAR Cdotaccent
ENCODING 266
SWIDTH 600 0
DWIDTH 14 0
BBX 11 20 2 0
BITMAP
0600
0700
0600
0000
0F80
3FC0
7060
6000
C000
C000
C000
C000
C000
C000
C000
C000
6040
7060
3FC0
0F80
ENDCHAR
STARTCHAR cdotaccent
ENCODING 267
SWIDTH 600 0
DWIDTH 14 0
BBX 11 17 2 0
BITMAP
0700
0700
0700
0000
0000
0F80
3FC0
70E0
E000
C000
C000
C000
C000
E000
7060
3FC0
1F80
ENDCHAR
STARTCHAR Ccaron
ENCODING 268
SWIDTH 600 0
DWIDTH 14 0
BBX 11 20 2 0
BITMAP
10C0
0D80
0700
0000
0F80
3FC0
7060
6000
C000
C000
C000
C000
C000
C000
C000
C000
6040
7060
3FC0
0F80
ENDCHAR
STARTCHAR ccaron
ENCODING 269
SWIDTH 600 0
DWIDTH 14 0
BBX 11 18 2 0
BITMAP
1040
1880
0F80
0700
0000
0000
0F80
3FC0
70E0
E000
C000
C000
C000
C000
E000
7060
3FC0
1F80
ENDCHAR
STARTCHAR Dcaron
ENCODING 270
SWIDTH 600 0
DWIDTH 14 0
BBX 11 20 2 0
BITMAP
2180
1B00
0E00
0000
FE00
FF80
C3C0
C0C0
C0E0
C060
C060
C060
C060
C060
C060
C0E0
C0C0
C3C0
FF80
FE00
ENDCHAR
STARTCHAR dcaron
ENCODING 271
SWIDTH 600 0
DWIDTH 14 0
BBX 14 19 1 0
BITMAP
000C
000C
006C
006C
006C
006C
0060
1E60
3FE0
71E0
6060
C060
C060
C060
C060
60E0
71E0
3F60
1E60
ENDCHAR
STARTCHAR Dcroat
ENCODING 272
SWIDTH 600 0
DWIDTH 14 0
BBX 13 16 0 0
BITMAP
3F80
3FE0
30F0
3030
3038
3018
FF18
FF18
3018
3018
3018
3038
3030
30F0
3FE0
3F80
ENDCHAR
STARTCHAR dcroat
ENCODING 273
SWIDTH 600 0
DWIDTH 14 0
BBX 13 17 1 0
BITMAP
0060
0060
07F8
07F8
0060
0060
0F60
3FE0
70E0
6060
E060
C060
E060
6060
70E0
3FE0
1F60
ENDCHAR
STARTCHAR Emacron
ENCODING 274
SWIDTH 600 0
DWIDTH 14 0
BBX 10 19 3 0
BITMAP
3F00
0000
0000
FF80
FF80
C000
C000
C000
C000
FF00
FF00
C000
C000
C000
C000
C000
C000
FFC0
FFC0
ENDCHAR
STARTCHAR emacron
ENCODING 275
SWIDTH 600 0
DWIDTH 14 0
BBX 11 16 2 0
BITMAP
3F80
0000
0000
0000
1F00
3F80
70C0
C060
C060
FFE0
FFE0
C000
C000
7040
3FC0
1F00
ENDCHAR
STARTCHAR Ebreve
ENCODING 276
SWIDTH 600 0
DWIDTH 14 0
BBX 10 20 3 0
BITMAP
6100
2300
1E00
0000
FF80
FF80
C000
C000
C000
C000
FF00
FF00
C000
C000
C000
C000
C000
C000
FFC0
FFC0
ENDCHAR
STARTCHAR ebreve
ENCODING 277
SWIDTH 600 0
DWIDTH 14 0
BBX 11 17 2 0
BITMAP
2080
3180
1F00
0000
0000
1F00
3F80
70C0
C060
C060
FFE0
FFE0
C000
C000
7040
3FC0
1F00
ENDCHAR
STARTCHAR Edotaccent
ENCODING 278
SWIDTH 600 0
DWIDTH 14 0
BBX 10 20 3 0
BITMAP
0C00
0C00
0C00
0000
FF80
FF80
C000
C000
C000
C000
FF00
FF00
C000
C000
C000
C000
C000
C000
FFC0
FFC0
ENDCHAR
STARTCHAR edotaccent
ENCODING 279
SWIDTH 600 0
DWIDTH 14 0
BBX 11 17 2 0
BITMAP
0E00
0E00
0E00
0000
0000
1F00
3F80
70C0
C060
C060
FFE0
FFE0
C000
C000
7040
3FC0
1F00
ENDCHAR
STARTCHAR Eogonek
ENCODING 280
SWIDTH 600 0
DWIDTH 14 0
BBX 10 22 3 -6
BITMAP
FF80
FF80
C000
C000
C000
C000
FF00
FF00
C000
C000
C000
C000
C000
C000
FFC0
FFC0
0180
0300
0200
0240
03C0
03C0
ENDCHAR
STARTCHAR eogonek
ENCODING 281
SWIDTH 600 0
DWIDTH 14 0
BBX 11 18 2 -6
BITMAP
1F00
3F80
70C0
C060
C060
FFE0
FFE0
C000
C000
7040
3FC0
1F80
0100
0200
0200
0240
03C0
03C0
ENDCHAR
STARTCHAR Ecaron
ENCODING 282
SWIDTH 600 0
DWIDTH 14 0
BBX 10 20 3 0
BITMAP
6100
3380
1E00
0000
FF80
FF80
C000
C000
C000
C000
FF00
FF00
C000
C000
C000
C000
C000
C000
FFC0
FFC0
ENDCHAR
STARTCHAR ecaron
ENCODING 283
SWIDTH 600 0
DWIDTH 14 0
BBX 11 18 2 0
BITMAP
2080
3180
1B00
0E00
0000
0000
1F00
3F80
70C0
C060
C060
FFE0
FFE0
C000
C000
7040
3FC0
1F00
ENDCHAR
STARTCHAR Gcircumflex
ENCODING 284
SWIDTH 600 0
DWIDTH 14 0
BBX 12 20 1 0
BITMAP
0700
0CC0
1840
0000
0780
1FE0
3870
7000
6000
6000
C000
C1F0
C1F0
C030
6030
6030
7030
3870
1FE0
0FC0
ENDCHAR
STARTCHAR gcircumflex
ENCODING 285
SWIDTH 600 0
DWIDTH 14 0
BBX 12 23 2 -5
BITMAP
0E00
1B00
3100
2080
0000
0000
1FF0
7FF0
6180
C080
C0C0
6180
7F80
7F00
4000
C000
7FC0
7FE0
C070
8020
C0E0
FFC0
3F00
ENDCHAR
STARTCHAR Gbreve
ENCODING 286
SWIDTH 600 0
DWIDTH 14 0
BBX 12 20 1 0
BITMAP
1840
08C0
0780
0000
0780
1FE0
3870
7000
6000
6000
C000
C1F0
C1F0
C030
6030
6030
7030
3870
1FE0
0FC0
ENDCHAR
STARTCHAR gbreve
ENCODING 287
SWIDTH 600 0
DWIDTH 14 0
BBX 12 22 2 -5
BITMAP
2080
3180
1F00
0000
0000
1FF0
7FF0
6180
C080
C0C0
6180
7F80
7F00
4000
C000
7FC0
7FE0
C070
8020
C0E0
FFC0
3F00
ENDCHAR
STARTCHAR Gdotaccent
ENCODING 288
SWIDTH 600 0
DWIDTH 14 0
BBX 12 20 1 0
BITMAP
0300
0700
0300
0000
0780
1FE0
3870
7000
6000
6000
C000
C1F0
C1F0
C030
6030
6030
7030
3870
1FE0
0FC0
ENDCHAR
STARTCHAR gdotaccent
ENCODING 289
SWIDTH 600 0
DWIDTH 14 0
BBX 12 22 2 -5
BITMAP
0E00
0E00
0E00
0000
0000
1FF0
7FF0
6180
C080
C0C0
6180
7F80
7F00
4000
C000
7FC0
7FE0
C070
8020
C0E0
FFC0
3F00
ENDCHAR
STARTCHAR uni0122
ENCODING 290
SWIDTH 600 0
DWIDTH 14 0
BBX 12 21 1 -5
BITMAP
0780
1FE0
3870
7000
6000
6000
C000
C1F0
C1F0
C030
6030
6030
7030
3870
1FE0
0FC0
0000
0300
0180
0780
0600
ENDCHAR
STARTCHAR uni0123
ENCODING 291
SWIDTH 600 0
DWIDTH 14 0
BBX 12 24 2 -5
BITMAP
0700
0F00
1800
0800
0600
0000
0000
1FF0
7FF0
6180
C080
C0C0
6180
7F80
7F00
4000
C000
7FC0
7FE0
C070
8020
C0E0
FFC0
3F00
ENDCHAR
STARTCHAR Hcircumflex
ENCODING 292
SWIDTH 600 0
DWIDTH 14 0
BBX 11 20 2 0
BITMAP
0E00
1B00
2180
0000
C0E0
C0E0
C0E0
C0E0
C0E0
C0E0
FFE0
FFE0
C0E0
C0E0
C0E0
C0E0
C0E0
C0E0
C0E0
C0E0
ENDCHAR
STARTCHAR hcircumflex
ENCODING 293
SWIDTH 600 0
DWIDTH 14 0
BBX 13 21 0 0
BITMAP
3800
4C00
8600
0000
3000
3000
3000
3000
3000
33E0
37F0
3C30
3830
3018
3018
3018
3018
3018
3018
3018
3018
ENDCHAR
STARTCHAR Hbar
ENCODING 294
SWIDTH 600 0
DWIDTH 14 0
BBX 14 16 0 0
BITMAP
3038
3038
3038
FFFC
FFFC
3038
3FF8
3FF8
3038
3038
3038
3038
3038
3038
3038
3038
ENDCHAR
STARTCHAR hbar
ENCODING 295
SWIDTH 600 0
DWIDTH 14 0
BBX 13 17 0 0
BITMAP
3000
3000
FF80
FF80
3000
3000
33E0
37F0
3C30
3830
3018
3018
3018
3018
3018
3018
3018
ENDCHAR
STARTCHAR Itilde
ENCODING 296
SWIDTH 600 0
DWIDTH 14 0
BBX 10 20 2 0
BITMAP
3880
6C80
4300
0000
FFC0
FFC0
0C00
0C00
0C00
0C00
0C00
0C00
0C00
0C00
0C00
0C00
0C00
0C00
FFC0
FFC0
ENDCHAR
STARTCHAR itilde
ENCODING 297
SWIDTH 600 0
DWIDTH 14 0
BBX 11 17 2 0
BITMAP
0800
1E60
31C0
0000
0000
FF00
FF00
0300
0300
0300
0300
0300
0300
0300
0300
0300
0300
ENDCHAR
STARTCHAR Imacron
ENCODING 298
SWIDTH 600 0
DWIDTH 14 0
BBX 10 19 2 0
BITMAP
3F00
0000
0000
FFC0
FFC0
0C00
0C00
0C00
0C00
0C00
0C00
0C00
0C00
0C00
0C00
0C00
0C00
FFC0
FFC0
ENDCHAR
STARTCHAR imacron
ENCODING 299
SWIDTH 600 0
DWIDTH 14 0
BBX 10 16 2 0
BITMAP
1FC0
0000
0000
0000
FF00
FF00
0300
0300
0300
0300
0300
0300
0300
0300
0300
0300
ENDCHAR
STARTCHAR Ibreve
ENCODING 300
SWIDTH 600 0
DWIDTH 14 0
BBX 10 20 2 0
BITMAP
2180
3100
1E00
0000
FFC0
FFC0
0C00
0C00
0C00
0C00
0C00
0C00
0C00
0C00
0C00
0C00
0C00
0C00
FFC0
FFC0
ENDCHAR
STARTCHAR ibreve
ENCODING 301
SWIDTH 600 0
DWIDTH 14 0
BBX 10 17 2 0
BITMAP
1040
18C0
0F80
0000
0000
FF00
FF00
0300
0300
0300
0300
0300
0300
0300
0300
0300
0300
ENDCHAR
STARTCHAR Iogonek
ENCODING 302
SWIDTH 600 0
DWIDTH 14 0
BBX 10 22 2 -6
BITMAP
FFC0
FFC0
0C00
0C00
0C00
0C00
0C00
0C00
0C00
0C00
0C00
0C00
0C00
0C00
FFC0
FFC0
0C00
0800
1800
1A00
1F00
0E00
ENDCHAR
STARTCHAR iogonek
ENCODING 303
SWIDTH 600 0
DWIDTH 14 0
BBX 9 23 2 -6
BITMAP
0700
0700
0700
0000
0000
FF00
FF00
0300
0300
0300
0300
0300
0300
0300
0300
0300
0300
0600
0400
0800
0D00
0F80
0700
ENDCHAR
STARTCHAR Idotaccent
ENCODING 304
SWIDTH 600 0
DWIDTH 14 0
BBX 10 20 2 0
BITMAP
0C00
0E00
0C00
0000
FFC0
FFC0
0C00
0C00
0C00
0C00
0C00
0C00
0C00
0C00
0C00
0C00
0C00
0C00
FFC0
FFC0
ENDCHAR
STARTCHAR dotlessi
ENCODING 305
SWIDTH 600 0
DWIDTH 14 0
BBX 8 12 2 0
BITMAP
FF
FF
03
03
03
03
03
03
03
03
03
03
ENDCHAR
STARTCHAR IJ
ENCODING 306
SWIDTH 600 0
DWIDTH 14 0
BBX 9 20 3 -4
BITMAP
C180
C180
C180
C180
C180
C180
C180
C180
C180
C180
C180
C180
C180
C180
C180
C180
0180
0380
0F00
0E00
ENDCHAR
STARTCHAR ij
ENCODING 307
SWIDTH 600 0
DWIDTH 14 0
BBX 11 22 2 -5
BITMAP
60C0
E0E0
60C0
0000
0000
60C0
60C0
60C0
60C0
60C0
60C0
60C0
60C0
60C0
60C0
60C0
60C0
00C0
00C0
00C0
07C0
0780
ENDCHAR
STARTCHAR Jcircumflex
ENCODING 308
SWIDTH 600 0
DWIDTH 14 0
BBX 10 20 2 0
BITMAP
0E00
1B00
3080
0000
7FC0
7FC0
00C0
00C0
00C0
00C0
00C0
00C0
00C0
00C0
00C0
00C0
41C0
E180
7F80
3E00
ENDCHAR
STARTCHAR jcircumflex
ENCODING 309
SWIDTH 600 0
DWIDTH 14 0
BBX 11 23 1 -5
BITMAP
0380
06C0
0C40
0820
0000
0000
7F80
7F80
0180
0180
0180
0180
0180
0180
0180
0180
0180
0180
0180
0300
8300
7F00
FC00
ENDCHAR
STARTCHAR uni0136
ENCODING 310
SWIDTH 600 0
DWIDTH 14 0
BBX 12 21 2 -5
BITMAP
C060
C0C0
C180
C300
C700
C600
CE00
DE00
F300
F300
E180
C180
C0C0
C0E0
C060
C070
0000
0600
0300
0F00
0E00
ENDCHAR
STARTCHAR uni0137
ENCODING 311
SWIDTH 600 0
DWIDTH 14 0
BBX 11 22 3 -5
BITMAP
C000
C000
C000
C000
C000
C1C0
C380
C700
C600
CC00
DC00
F600
E600
C300
C180
C1C0
C0C0
0020
0C00
0600
1E00
1C00
ENDCHAR
STARTCHAR kgreenlandic
ENCODING 312
SWIDTH 600 0
DWIDTH 14 0
BBX 11 12 3 0
BITMAP
C1C0
C380
C700
CE00
DC00
FC00
F600
E700
C300
C180
C1C0
C0E0
ENDCHAR
STARTCHAR Lacute
ENCODING 313
SWIDTH 600 0
DWIDTH 14 0
BBX 10 21 3 0
BITMAP
1000
3800
6000
C000
0000
C000
C000
C000
C000
C000
C000
C000
C000
C000
C000
C000
C000
C000
C000
FFC0
FFC0
ENDCHAR
STARTCHAR lacute
ENCODING 314
SWIDTH 600 0
DWIDTH 14 0
BBX 11 22 2 0
BITMAP
0200
0700
0C00
1800
0000
FC00
FC00
0C00
0C00
0C00
0C00
0C00
0C00
0C00
0C00
0C00
0C00
0C00
0C00
0E40
07E0
03C0
ENDCHAR
STARTCHAR uni013B
ENCODING 315
SWIDTH 600 0
DWIDTH 14 0
BBX 10 21 3 -5
BITMAP
C000
C000
C000
C000
C000
C000
C000
C000
C000
C000
C000
C000
C000
C000
FFC0
FFC0
0000
0C00
0200
1E00
1C00
ENDCHAR
STARTCHAR uni013C
ENCODING 316
SWIDTH 600 0
DWIDTH 14 0
BBX 11 22 2 -5
BITMAP
FC00
FC00
0C00
0C00
0C00
0C00
0C00
0C00
0C00
0C00
0C00
0C00
0C00
0C00
0E40
07E0
03C0
0000
0300
0080
0780
0700
ENDCHAR
STARTCHAR Lcaron
ENCODING 317
SWIDTH 600 0
DWIDTH 14 0
BBX 10 18 3 0
BITMAP
0300
0300
C300
C300
C300
C300
C000
C000
C000
C000
C000
C000
C000
C000
C000
C000
FFC0
FFC0
ENDCHAR
STARTCHAR lcaron
ENCODING 318
SWIDTH 600 0
DWIDTH 14 0
BBX 11 19 2 0
BITMAP
0080
0080
FC80
FC80
0C80
0C80
0C00
0C00
0C00
0C00
0C00
0C00
0C00
0C00
0C00
0C00
0E40
07E0
03C0
ENDCHAR
STARTCHAR Ldot
ENCODING 319
SWIDTH 600 0
DWIDTH 14 0
BBX 10 16 3 0
BITMAP
C000
C000
C000
C000
C000
C000
C180
C1C0
C180
C000
C000
C000
C000
C000
FFC0
FFC0
ENDCHAR
STARTCHAR ldot
ENCODING 320
SWIDTH 600 0
DWIDTH 14 0
BBX 14 17 1 0
BITMAP
FC00
FC00
0C00
0C00
0C00
0C00
0C00
0C1C
0C1C
0C1C
0C00
0C00
0C00
0C00
0E20
07E0
03C0
ENDCHAR
STARTCHAR Lslash
ENCODING 321
SWIDTH 600 0
DWIDTH 14 0
BBX 13 16 0 0
BITMAP
1800
1800
1800
1800
1800
1860
19C0
1F80
1E00
3800
F800
9800
1800
1800
1FF8
1FF8
ENDCHAR
STARTCHAR lslash
ENCODING 322
SWIDTH 600 0
DWIDTH 14 0
BBX 11 17 2 0
BITMAP
FC00
FC00
0C00
0C00
0C40
0DC0
0F00
0C00
3C00
6C00
8C00
0C00
0C00
0C00
0E40
07E0
03C0
ENDCHAR
STARTCHAR Nacute
ENCODING 323
SWIDTH 600 0
DWIDTH 14 0
BBX 10 21 2 0
BITMAP
0100
0300
0E00
0800
0000
C040
E040
E040
F040
D040
D840
D840
CC40
CC40
C640
C640
C340
C340
C1C0
C1C0
C0C0
ENDCHAR
STARTCHAR nacute
ENCODING 324
SWIDTH 600 0
DWIDTH 14 0
BBX 11 19 2 0
BITMAP
0100
0380
0700
0600
0C00
0000
0000
CF80
DFC0
F0C0
E0C0
C060
C060
C060
C060
C060
C060
C060
C060
ENDCHAR
STARTCHAR uni0145
ENCODING 325
SWIDTH 600 0
DWIDTH 14 0
BBX 10 21 2 -5
BITMAP
C040
E040
E040
F040
D040
D840
D840
CC40
CC40
C640
C640
C340
C340
C1C0
C1C0
C0C0
0000
0C00
0600
1E00
1C00
ENDCHAR
STARTCHAR uni0146
ENCODING 326
SWIDTH 600 0
DWIDTH 14 0
BBX 11 17 2 -5
BITMAP
CF80
DFC0
F0C0
E0C0
C060
C060
C060
C060
C060
C060
C060
C060
0000
0E00
0200
1E00
1C00
ENDCHAR
STARTCHAR Ncaron
ENCODING 327
SWIDTH 600 0
DWIDTH 14 0
BBX 10 20 2 0
BITMAP
2180
1B00
0E00
0000
C040
E040
E040
F040
D040
D840
D840
CC40
CC40
C640
C640
C340
C340
C1C0
C1C0
C0C0
ENDCHAR
STARTCHAR ncaron
ENCODING 328
SWIDTH 600 0
DWIDTH 14 0
BBX 11 18 2 0
BITMAP
2080
1180
1B00
0E00
0000
0000
CF80
DFC0
F0C0
E0C0
C060
C060
C060
C060
C060
C060
C060
C060
ENDCHAR
STARTCHAR napostrophe
ENCODING 329
SWIDTH 600 0
DWIDTH 14 0
BBX 15 17 -1 0
BITMAP
7000
7000
7800
7800
1000
123C
32FE
6386
C306
0306
0306
0306
0306
0306
0306
0306
0306
ENDCHAR
STARTCHAR Eng
ENCODING 330
SWIDTH 600 0
DWIDTH 14 0
BBX 11 16 2 0
BITMAP
CF00
DF80
F1C0
E0E0
C060
C060
C060
C060
C060
C060
C060
C060
C060
C0C0
C3C0
C780
ENDCHAR
STARTCHAR eng
ENCODING 331
SWIDTH 600 0
DWIDTH 14 0
BBX 11 17 2 -5
BITMAP
CF80
DFC0
F0C0
E0C0
C060
C060
C060
C060
C060
C060
C060
C060
0060
00E0
00C0
03C0
0780
ENDCHAR
STARTCHAR Omacron
ENCODING 332
SWIDTH 600 0
DWIDTH 14 0
BBX 12 19 1 0
BITMAP
1F80
0000
0000
0F80
3FC0
30E0
6060
6030
E030
C030
C030
C030
C030
E030
6030
6060
30E0
3FC0
0F80
ENDCHAR
STARTCHAR omacron
ENCODING 333
SWIDTH 600 0
DWIDTH 14 0
BBX 12 16 1 0
BITMAP
1F80
0000
0000
0000
0F80
3FC0
70E0
6060
6030
E030
E030
6030
6070
70E0
3FC0
0F80
ENDCHAR
STARTCHAR Obreve
ENCODING 334
SWIDTH 600 0
DWIDTH 14 0
BBX 12 20 1 0
BITMAP
10C0
1880
0F00
0000
0F80
3FC0
30E0
6060
6030
E030
C030
C030
C030
C030
E030
6030
6060
30E0
3FC0
0F80
ENDCHAR
STARTCHAR obreve
ENCODING 335
SWIDTH 600 0
DWIDTH 14 0
BBX 12 17 1 0
BITMAP
30C0
1880
0F00
0000
0000
0F80
3FC0
70E0
6060
6030
E030
E030
6030
6070
70E0
3FC0
0F80
ENDCHAR
STARTCHAR Ohungarumlaut
ENCODING 336
SWIDTH 600 0
DWIDTH 14 0
BBX 12 21 1 0
BITMAP
0640
0460
0CC0
1980
0000
0F80
3FC0
30E0
6060
6030
E030
C030
C030
C030
C030
E030
6030
6060
30E0
3FC0
0F80
ENDCHAR
STARTCHAR ohungarumlaut
ENCODING 337
SWIDTH 600 0
DWIDTH 14 0
BBX 12 18 1 0
BITMAP
0240
0660
04C0
0C80
0980
0000
0F80
3FC0
70E0
6060
6030
E030
E030
6030
6070
70E0
3FC0
0F80
ENDCHAR
STARTCHAR OE
ENCODING 338
SWIDTH 600 0
DWIDTH 14 0
BBX 13 16 1 0
BITMAP
0FF8
3FF8
7300
6300
C300
C300
C3F0
C3F0
C300
C300
C300
C300
6300
7300
3FF8
1FF8
ENDCHAR
STARTCHAR oe
ENCODING 339
SWIDTH 600 0
DWIDTH 14 0
BBX 14 12 0 0
BITMAP
1C70
7EF8
628C
638C
C104
C1FC
C1FC
C100
6380
62C8
7EFC
1C78
ENDCHAR
STARTCHAR Racute
ENCODING 340
SWIDTH 600 0
DWIDTH 14 0
BBX 11 21 2 0
BITMAP
0100
0700
0E00
0800
0000
FF00
FFC0
C0C0
C060
C060
C060
C1C0
FFC0
FF00
C700
C300
C180
C180
C0C0
C0C0
C060
ENDCHAR
STARTCHAR racute
ENCODING 341
SWIDTH 600 0
DWIDTH 14 0
BBX 10 19 3 0
BITMAP
0100
0380
0600
0C00
0800
0000
0000
C7C0
CFC0
D800
F000
E000
C000
C000
C000
C000
C000
C000
C000
ENDCHAR
STARTCHAR uni0156
ENCODING 342
SWIDTH 600 0
DWIDTH 14 0
BBX 11 21 2 -5
BITMAP
FF00
FFC0
C0C0
C060
C060
C060
C1C0
FFC0
FF00
C700
C300
C180
C180
C0C0
C0C0
C060
0000
0600
0B00
1E00
0C00
ENDCHAR
STARTCHAR uni0157
ENCODING 343
SWIDTH 600 0
DWIDTH 14 0
BBX 11 17 2 -5
BITMAP
63E0
67E0
6C00
7800
7000
6000
6000
6000
6000
6000
6000
6000
0000
3000
5800
F000
6000
ENDCHAR
STARTCHAR Rcaron
ENCODING 344
SWIDTH 600 0
DWIDTH 14 0
BBX 11 20 2 0
BITMAP
2180
1B00
0E00
0000
FF00
FFC0
C0C0
C060
C060
C060
C1C0
FFC0
FF00
C700
C300
C180
C180
C0C0
C0C0
C060
ENDCHAR
STARTCHAR rcaron
ENCODING 345
SWIDTH 600 0
DWIDTH 14 0
BBX 10 18 3 0
BITMAP
2080
3100
1F00
0E00
0000
0000
C7C0
CFC0
D800
F000
E000
C000
C000
C000
C000
C000
C000
C000
ENDCHAR
STARTCHAR Sacute
ENCODING 346
SWIDTH 600 0
DWIDTH 14 0
BBX 11 21 2 0
BITMAP
0100
0380
0600
0C00
0000
1F00
7FC0
60C0
E000
C000
6000
7800
1E00
0780
01C0
00E0
0060
8060
E0C0
7FC0
1F00
ENDCHAR
STARTCHAR sacute
ENCODING 347
SWIDTH 600 0
DWIDTH 14 0
BBX 11 19 2 0
BITMAP
0100
0380
0600
0C00
0800
0000
0000
3F00
7F80
60C0
C000
7000
3F00
0FC0
00C0
8060
E0C0
7FC0
1F00
ENDCHAR
STARTCHAR Scircumflex
ENCODING 348
SWIDTH 600 0
DWIDTH 14 0
BBX 11 20 2 0
BITMAP
0E00
1B00
3080
0000
1F00
7FC0
60C0
E000
C000
6000
7800
1E00
0780
01C0
00E0
0060
8060
E0C0
7FC0
1F00
ENDCHAR
STARTCHAR scircumflex
ENCODING 349
SWIDTH 600 0
DWIDTH 14 0
BBX 11 18 2 0
BITMAP
0E00
1F00
3100
2080
0000
0000
3F00
7F80
60C0
C000
7000
3F00
0FC0
00C0
8060
E0C0
7FC0
1F00
ENDCHAR
STARTCHAR uni015E
ENCODING 350
SWIDTH 600 0
DWIDTH 14 0
BBX 11 22 2 -6
BITMAP
1F00
7FC0
60C0
E000
C000
6000
7800
1E00
0780
01C0
00E0
0060
8060
E0C0
7FC0
1F00
0400
0400
0E00
0300
0200
1C00
ENDCHAR
STARTCHAR uni015F
ENCODING 351
SWIDTH 600 0
DWIDTH 14 0
BBX 11 18 2 -6
BITMAP
3F00
7F80
60C0
C000
7000
3F00
0FC0
00C0
8060
E0C0
7FC0
1F00
0400
0C00
0E00
0200
0200
1C00
ENDCHAR
STARTCHAR Scaron
ENCODING 352
SWIDTH 600 0
DWIDTH 14 0
BBX 11 20 2 0
BITMAP
3080
1B00
0E00
0000
1F00
7FC0
60C0
E000
C000
6000
7800
1E00
0780
01C0
00E0
0060
8060
E0C0
7FC0
1F00
ENDCHAR
STARTCHAR scaron
ENCODING 353
SWIDTH 600 0
DWIDTH 14 0
BBX 11 18 2 0
BITMAP
2080
3100
1F00
0E00
0000
0000
3F00
7F80
60C0
C000
7000
3F00
0FC0
00C0
8060
E0C0
7FC0
1F00
ENDCHAR
STARTCHAR uni0162
ENCODING 354
SWIDTH 600 0
DWIDTH 14 0
BBX 12 22 1 -6
BITMAP
FFF0
FFF0
0600
0600
0600
0600
0600
0600
0600
0600
0600
0600
0600
0600
0600
0600
0600
0400
0600
0300
0300
0E00
ENDCHAR
STARTCHAR uni0163
ENCODING 355
SWIDTH 600 0
DWIDTH 14 0
BBX 11 22 2 -6
BITMAP
1800
1800
1800
1800
FFE0
FFE0
1800
1800
1800
1800
1800
1800
1800
1C20
0FE0
07C0
0100
0300
0380
0180
0180
0700
ENDCHAR
STARTCHAR Tcaron
ENCODING 356
SWIDTH 600 0
DWIDTH 14 0
BBX 12 20 1 0
BITMAP
10C0
0D80
0700
0000
FFF0
FFF0
0600
0600
0600
0600
0600
0600
0600
0600
0600
0600
0600
0600
0600
0600
ENDCHAR
STARTCHAR tcaron
ENCODING 357
SWIDTH 600 0
DWIDTH 14 0
BBX 11 19 2 0
BITMAP
0080
0080
0080
1880
1880
1880
1800
FFE0
FFE0
1800
1800
1800
1800
1800
1800
1800
1C20
0FE0
07C0
ENDCHAR
STARTCHAR Tbar
ENCODING 358
SWIDTH 600 0
DWIDTH 14 0
BBX 12 16 1 0
BITMAP
FFF0
FFF0
0600
0600
0600
0600
0600
3FE0
3FE0
0600
0600
0600
0600
0600
0600
0600
ENDCHAR
STARTCHAR tbar
ENCODING 359
SWIDTH 600 0
DWIDTH 14 0
BBX 11 16 2 0
BITMAP
1800
1800
1800
1800
FFE0
FFE0
1800
1800
FFC0
FFC0
1800
1800
1800
1C20
0FE0
07C0
ENDCHAR
STARTCHAR Utilde
ENCODING 360
SWIDTH 600 0
DWIDTH 14 0
BBX 11 20 2 0
BITMAP
3880
6C80
4300
0000
C060
C060
C060
C060
C060
C060
C060
C060
C060
C060
C040
C0C0
E0C0
61C0
7F80
1F00
ENDCHAR
STARTCHAR utilde
ENCODING 361
SWIDTH 600 0
DWIDTH 14 0
BBX 10 17 2 0
BITMAP
1000
6C80
4700
0000
0000
C0C0
C0C0
C0C0
C0C0
C0C0
C0C0
C0C0
C0C0
C1C0
E3C0
7EC0
3CC0
ENDCHAR
STARTCHAR Umacron
ENCODING 362
SWIDTH 600 0
DWIDTH 14 0
BBX 11 19 2 0
BITMAP
3F00
0000
0000
C060
C060
C060
C060
C060
C060
C060
C060
C060
C060
C040
C0C0
E0C0
61C0
7F80
1F00
ENDCHAR
STARTCHAR umacron
ENCODING 363
SWIDTH 600 0
DWIDTH 14 0
BBX 10 16 2 0
BITMAP
3F00
0000
0000
0000
C0C0
C0C0
C0C0
C0C0
C0C0
C0C0
C0C0
C0C0
C1C0
E3C0
7EC0
3CC0
ENDCHAR
STARTCHAR Ubreve
ENCODING 364
SWIDTH 600 0
DWIDTH 14 0
BBX 11 20 2 0
BITMAP
2180
3100
1E00
0000
C060
C060
C060
C060
C060
C060
C060
C060
C060
C060
C040
C0C0
E0C0
61C0
7F80
1F00
ENDCHAR
STARTCHAR ubreve
ENCODING 365
SWIDTH 600 0
DWIDTH 14 0
BBX 10 17 2 0
BITMAP
6180
3100
1E00
0000
0000
C0C0
C0C0
C0C0
C0C0
C0C0
C0C0
C0C0
C0C0
C1C0
E3C0
7EC0
3CC0
ENDCHAR
STARTCHAR Uring
ENCODING 366
SWIDTH 600 0
DWIDTH 14 0
BBX 11 22 2 0
BITMAP
0E00
1200
1300
1200
0E00
0000
C060
C060
C060
C060
C060
C060
C060
C060
C060
C060
C040
C0C0
E0C0
61C0
7F80
1F00
ENDCHAR
STARTCHAR uring
ENCODING 367
SWIDTH 600 0
DWIDTH 14 0
BBX 10 19 2 0
BITMAP
1E00
1300
3300
1300
1E00
0000
0000
C0C0
C0C0
C0C0
C0C0
C0C0
C0C0
C0C0
C0C0
C1C0
E3C0
7EC0
3CC0
ENDCHAR
STARTCHAR Uhungarumlaut
ENCODING 368
SWIDTH 600 0
DWIDTH 14 0
BBX 11 21 2 0
BITMAP
0C80
08C0
1980
3300
0000
C060
C060
C060
C060
C060
C060
C060
C060
C060
C060
C040
C0C0
E0C0
61C0
7F80
1F00
ENDCHAR
STARTCHAR uhungarumlaut
ENCODING 369
SWIDTH 600 0
DWIDTH 14 0
BBX 10 18 2 0
BITMAP
0C80
0CC0
0980
1900
1300
0000
C0C0
C0C0
C0C0
C0C0
C0C0
C0C0
C0C0
C0C0
C1C0
E3C0
7EC0
3CC0
ENDCHAR
STARTCHAR Uogonek
ENCODING 370
SWIDTH 600 0
DWIDTH 14 0
BBX 11 22 2 -6
BITMAP
C060
C060
C060
C060
C060
C060
C060
C060
C060
C060
C0C0
C0C0
E0C0
61C0
7F80
1F00
0C00
0800
1800
1A00
1F00
0E00
ENDCHAR
STARTCHAR uogonek
ENCODING 371
SWIDTH 600 0
DWIDTH 14 0
BBX 11 18 2 -6
BITMAP
C0C0
C0C0
C0C0
C0C0
C0C0
C0C0
C0C0
C0C0
C1C0
E3C0
7EC0
3CC0
0080
0100
0300
0340
03E0
01C0
ENDCHAR
STARTCHAR Wcircumflex
ENCODING 372
SWIDTH 600 0
DWIDTH 14 0
BBX 14 20 0 0
BITMAP
0380
06C0
0860
0000
E00C
E00C
600C
600C
631C
6398
6398
6798
2698
36D8
34D8
3CD8
3C50
3C50
3870
1870
ENDCHAR
STARTCHAR wcircumflex
ENCODING 373
SWIDTH 600 0
DWIDTH 14 0
BBX 14 18 0 0
BITMAP
0380
0780
0CC0
1820
0000
0000
C00C
430C
638C
6388
6798
6698
26D8
34D8
3CD0
3C50
3C70
1870
ENDCHAR
STARTCHAR Ycircumflex
ENCODING 374
SWIDTH 600 0
DWIDTH 14 0
BBX 12 20 1 0
BITMAP
0700
0D80
10C0
0000
C030
6030
6060
3060
30C0
18C0
1980
0D80
0F00
0700
0600
0600
0600
0600
0600
0600
ENDCHAR
STARTCHAR ycircumflex
ENCODING 375
SWIDTH 600 0
DWIDTH 14 0
BBX 12 23 1 -5
BITMAP
0700
0F80
1880
1040
0000
0000
C030
6030
6060
3060
3040
18C0
18C0
0980
0D80
0D00
0700
0700
0600
0600
0C00
7C00
7000
ENDCHAR
STARTCHAR Ydieresis
ENCODING 376
SWIDTH 600 0
DWIDTH 14 0
BBX 12 19 1 0
BITMAP
1980
19C0
0000
C030
6030
6060
3060
30C0
18C0
1980
0D80
0F00
0700
0600
0600
0600
0600
0600
0600
ENDCHAR
STARTCHAR Zacute
ENCODING 377
SWIDTH 600 0
DWIDTH 14 0
BBX 11 21 2 0
BITMAP
0100
0380
0600
0C00
0000
FFE0
FFE0
00C0
0180
0180
0300
0600
0E00
0C00
1800
3800
3000
6000
C000
FFE0
FFE0
ENDCHAR
STARTCHAR zacute
ENCODING 378
SWIDTH 600 0
DWIDTH 14 0
BBX 11 19 2 0
BITMAP
0100
0380
0700
0600
0C00
0000
0000
7FE0
7FC0
01C0
0380
0700
0E00
1C00
1800
3000
6000
FFE0
FFE0
ENDCHAR
STARTCHAR Zdotaccent
ENCODING 379
SWIDTH 600 0
DWIDTH 14 0
BBX 11 20 2 0
BITMAP
0600
0E00
0600
0000
FFE0
FFE0
00C0
0180
0180
0300
0600
0E00
0C00
1800
3800
3000
6000
C000
FFE0
FFE0
ENDCHAR
STARTCHAR zdotaccent
ENCODING 380
SWIDTH 600 0
DWIDTH 14 0
BBX 11 17 2 0
BITMAP
0600
0E00
0600
0000
0000
7FE0
7FC0
01C0
0380
0700
0E00
1C00
1800
3000
6000
FFE0
FFE0
ENDCHAR
STARTCHAR Zcaron
ENCODING 381
SWIDTH 600 0
DWIDTH 14 0
BBX 11 20 2 0
BITMAP
3080
1B00
0E00
0000
FFE0
FFE0
00C0
0180
0180
0300
0600
0E00
0C00
1800
3800
3000
6000
C000
FFE0
FFE0
ENDCHAR
STARTCHAR zcaron
ENCODING 382
SWIDTH 600 0
DWIDTH 14 0
BBX 11 18 2 0
BITMAP
2080
1180
1F00
0E00
0000
0000
7FE0
7FC0
01C0
0380
0700
0E00
1C00
1800
3000
6000
FFE0
FFE0
ENDCHAR
STARTCHAR longs
ENCODING 383
SWIDTH 600 0
DWIDTH 14 0
BBX 12 17 2 0
BITMAP
03E0
07F0
0E20
0C00
0C00
FC00
FC00
0C00
0C00
0C00
0C00
0C00
0C00
0C00
0C00
0C00
0C00
ENDCHAR
STARTCHAR uni0180
ENCODING 384
SWIDTH 600 0
DWIDTH 14 0
BBX 13 17 0 0
BITMAP
3000
3000
FF80
FF80
3000
3000
33C0
3FF0
3C30
3018
3018
3018
3018
3038
3C70
3FE0
33C0
ENDCHAR
STARTCHAR uni018A
ENCODING 394
SWIDTH 600 0
DWIDTH 14 0
BBX 14 16 0 0
BITMAP
0FC0
3FE0
7670
6638
4618
C618
461C
660C
760C
361C
0618
0618
0638
0670
07E0
07C0
ENDCHAR
STARTCHAR uni018F
ENCODING 399
SWIDTH 600 0
DWIDTH 14 0
BBX 12 16 1 0
BITMAP
0F80
3FC0
30E0
0060
0030
0030
0030
FFF0
FFF0
4030
6030
6030
6060
30E0
1FC0
0F80
ENDCHAR
STARTCHAR uni0192
ENCODING 402
SWIDTH 600 0
DWIDTH 14 0
BBX 12 19 1 -3
BITMAP
00F0
03F0
0300
0300
0600
0600
1FE0
1FE0
0600
0600
0600
0600
0600
0C00
0C00
0C00
1C00
F800
F000
ENDCHAR
STARTCHAR uni0193
ENCODING 403
SWIDTH 600 0
DWIDTH 14 0
BBX 13 19 1 0
BITMAP
0038
0078
0060
07E0
1FE0
3870
7000
6000
6000
C000
C1F0
C1F0
C030
6030
6030
7030
3870
1FE0
0FC0
ENDCHAR
STARTCHAR Ohorn
ENCODING 416
SWIDTH 600 0
DWIDTH 14 0
BBX 12 19 1 0
BITMAP
0010
0030
0010
0FF0
3FE0
30E0
6060
6030
E030
C030
C030
C030
C030
E030
6030
6060
30E0
3FC0
0F80
ENDCHAR
STARTCHAR ohorn
ENCODING 417
SWIDTH 600 0
DWIDTH 14 0
BBX 12 16 1 0
BITMAP
0010
0030
0010
0030
0FF0
3FC0
70E0
6060
6030
E030
E030
6030
6070
70E0
3FC0
0F80
ENDCHAR
STARTCHAR Uhorn
ENCODING 431
SWIDTH 600 0
DWIDTH 14 0
BBX 13 20 2 0
BITMAP
0018
0018
0018
0018
C070
C060
C060
C060
C060
C060
C060
C060
C060
C060
C040
C0C0
E0C0
61C0
7F80
1F00
ENDCHAR
STARTCHAR uhorn
ENCODING 432
SWIDTH 600 0
DWIDTH 14 0
BBX 12 16 2 0
BITMAP
0010
0030
0010
0030
C0E0
C0C0
C0C0
C0C0
C0C0
C0C0
C0C0
C0C0
C1C0
E3C0
7EC0
3CC0
ENDCHAR
STARTCHAR uni01C2
ENCODING 450
SWIDTH 600 0
DWIDTH 14 0
BBX 10 22 2 -5
BITMAP
0C00
0C00
0C00
0C00
0C00
0C00
0C00
FFC0
FFC0
0C00
0C00
0C00
FFC0
FFC0
0C00
0C00
0C00
0C00
0C00
0C00
0C00
0C00
ENDCHAR
STARTCHAR uni01CD
ENCODING 461
SWIDTH 600 0
DWIDTH 14 0
BBX 13 20 1 0
BITMAP
10C0
0D80
0700
0000
0700
0700
0F00
0D00
0980
1980
1880
10C0
30C0
3FC0
3FE0
6060
6060
6030
C030
C038
ENDCHAR
STARTCHAR uni01CE
ENCODING 462
SWIDTH 600 0
DWIDTH 14 0
BBX 10 18 2 0
BITMAP
2080
1180
1F00
0E00
0000
0000
1F00
7F80
E1C0
00C0
07C0
3FC0
78C0
C0C0
C0C0
C1C0
7F40
3C40
ENDCHAR
STARTCHAR uni01CF
ENCODING 463
SWIDTH 600 0
DWIDTH 14 0
BBX 10 20 2 0
BITMAP
2180
1B00
0E00
0000
FFC0
FFC0
0C00
0C00
0C00
0C00
0C00
0C00
0C00
0C00
0C00
0C00
0C00
0C00
FFC0
FFC0
ENDCHAR
STARTCHAR uni01D0
ENCODING 464
SWIDTH 600 0
DWIDTH 14 0
BBX 10 18 2 0
BITMAP
1040
1880
0D80
0700
0000
0000
FF00
FF00
0300
0300
0300
0300
0300
0300
0300
0300
0300
0300
ENDCHAR
STARTCHAR uni01D1
ENCODING 465
SWIDTH 600 0
DWIDTH 14 0
BBX 12 20 1 0
BITMAP
10C0
0D80
0700
0000
0F80
3FC0
30E0
6060
6030
E030
C030
C030
C030
C030
E030
6030
6060
30E0
3FC0
0F80
ENDCHAR
STARTCHAR uni01D2
ENCODING 466
SWIDTH 600 0
DWIDTH 14 0
BBX 12 18 1 0
BITMAP
1040
3980
0F00
0700
0000
0000
0F80
3FC0
70E0
6060
6030
E030
E030
6030
6070
70E0
3FC0
0F80
ENDCHAR
STARTCHAR uni01D3
ENCODING 467
SWIDTH 600 0
DWIDTH 14 0
BBX 11 20 2 0
BITMAP
2180
1B00
0E00
0000
C060
C060
C060
C060
C060
C060
C060
C060
C060
C060
C040
C0C0
E0C0
61C0
7F80
1F00
ENDCHAR
STARTCHAR uni01D4
ENCODING 468
SWIDTH 600 0
DWIDTH 14 0
BBX 10 18 2 0
BITMAP
2180
7300
1E00
0E00
0000
0000
C0C0
C0C0
C0C0
C0C0
C0C0
C0C0
C0C0
C0C0
C1C0
E3C0
7EC0
3CC0
ENDCHAR
STARTCHAR uni01D5
ENCODING 469
SWIDTH 600 0
DWIDTH 14 0
BBX 11 21 2 0
BITMAP
3F00
0000
3180
3180
0000
C060
C060
C060
C060
C060
C060
C060
C060
C060
C060
C040
C0C0
E0C0
61C0
7F80
1F00
ENDCHAR
STARTCHAR uni01D6
ENCODING 470
SWIDTH 600 0
DWIDTH 14 0
BBX 10 19 2 0
BITMAP
3F00
0000
0000
3300
3380
0000
0000
C0C0
C0C0
C0C0
C0C0
C0C0
C0C0
C0C0
C0C0
C1C0
E3C0
7EC0
3CC0
ENDCHAR
STARTCHAR uni01D7
ENCODING 471
SWIDTH 600 0
DWIDTH 14 0
BBX 11 23 2 0
BITMAP
0200
0700
0C00
0000
3180
3180
0000
C060
C060
C060
C060
C060
C060
C060
C060
C060
C060
C040
C0C0
E0C0
61C0
7F80
1F00
ENDCHAR
STARTCHAR uni01D8
ENCODING 472
SWIDTH 600 0
DWIDTH 14 0
BBX 10 20 2 0
BITMAP
0200
0400
0800
0000
3300
3380
0000
0000
C0C0
C0C0
C0C0
C0C0
C0C0
C0C0
C0C0
C0C0
C1C0
E3C0
7EC0
3CC0
ENDCHAR
STARTCHAR uni01D9
ENCODING 473
SWIDTH 600 0
DWIDTH 14 0
BBX 11 23 2 0
BITMAP
2100
1B00
0E00
0000
3180
3180
0000
C060
C060
C060
C060
C060
C060
C060
C060
C060
C060
C040
C0C0
E0C0
61C0
7F80
1F00
ENDCHAR
STARTCHAR uni01DA
ENCODING 474
SWIDTH 600 0
DWIDTH 14 0
BBX 10 20 2 0
BITMAP
2100
1A00
0C00
0000
3300
3380
0000
0000
C0C0
C0C0
C0C0
C0C0
C0C0
C0C0
C0C0
C0C0
C1C0
E3C0
7EC0
3CC0
ENDCHAR
STARTCHAR uni01DB
ENCODING 475
SWIDTH 600 0
DWIDTH 14 0
BBX 11 23 2 0
BITMAP
1000
1800
0400
0000
3180
3180
0000
C060
C060
C060
C060
C060
C060
C060
C060
C060
C060
C040
C0C0
E0C0
61C0
7F80
1F00
ENDCHAR
STARTCHAR uni01DC
ENCODING 476
SWIDTH 600 0
DWIDTH 14 0
BBX 10 20 2 0
BITMAP
1800
0800
0400
0000
3300
3380
0000
0000
C0C0
C0C0
C0C0
C0C0
C0C0
C0C0
C0C0
C0C0
C1C0
E3C0
7EC0
3CC0
ENDCHAR
STARTCHAR uni01E2
ENCODING 482
SWIDTH 600 0
DWIDTH 14 0
BBX 14 19 0 0
BITMAP
01F8
0000
0000
03FC
03FC
0680
0680
0480
0C80
0CF8
18F8
1880
1880
3F80
3F80
7080
6080
60FC
C0FC
ENDCHAR
STARTCHAR uni01E3
ENCODING 483
SWIDTH 600 0
DWIDTH 14 0
BBX 14 16 0 0
BITMAP
0FE0
0000
0000
0000
3C70
7EF8
438C
030C
0F04
3FFC
73FC
6300
C100
E388
7EFC
3878
ENDCHAR
STARTCHAR Gcaron
ENCODING 486
SWIDTH 600 0
DWIDTH 14 0
BBX 12 20 1 0
BITMAP
1840
0CC0
0700
0000
0780
1FE0
3870
7000
6000
6000
C000
C1F0
C1F0
C030
6030
6030
7030
3870
1FE0
0FC0
ENDCHAR
STARTCHAR gcaron
ENCODING 487
SWIDTH 600 0
DWIDTH 14 0
BBX 12 23 2 -5
BITMAP
2080
3100
1B00
0E00
0000
0000
1FF0
7FF0
6180
C080
C0C0
6180
7F80
7F00
4000
C000
7FC0
7FE0
C070
8020
C0E0
FFC0
3F00
ENDCHAR
STARTCHAR uni01EA
ENCODING 490
SWIDTH 600 0
DWIDTH 14 0
BBX 12 22 1 -6
BITMAP
0F80
3FC0
30E0
6060
6030
C030
C030
C030
C030
C030
C030
6030
6060
30E0
3FC0
0F80
0600
0400
0C00
0D00
0F80
0700
ENDCHAR
STARTCHAR uni01EB
ENCODING 491
SWIDTH 600 0
DWIDTH 14 0
BBX 12 18 1 -6
BITMAP
0F80
3FC0
70E0
6060
6030
E030
E030
6030
6070
70E0
3FC0
0F80
0200
0400
0C00
0D00
0780
0700
ENDCHAR
STARTCHAR uni01F4
ENCODING 500
SWIDTH 600 0
DWIDTH 14 0
BBX 12 21 1 0
BITMAP
0080
01C0
0300
0600
0000
0780
1FE0
3870
7000
6000
6000
C000
C1F0
C1F0
C030
6030
6030
7030
3870
1FE0
0FC0
ENDCHAR
STARTCHAR uni01F5
ENCODING 501
SWIDTH 600 0
DWIDTH 14 0
BBX 12 24 2 -5
BITMAP
0100
0380
0600
0C00
0800
0000
0000
1FF0
7FF0
6180
C080
C0C0
6180
7F80
7F00
4000
C000
7FC0
7FE0
C070
8020
C0E0
FFC0
3F00
ENDCHAR
STARTCHAR uni01F8
ENCODING 504
SWIDTH 600 0
DWIDTH 14 0
BBX 10 21 2 0
BITMAP
1000
3800
0C00
0600
0000
C040
E040
E040
F040
D040
D840
D840
CC40
CC40
C640
C640
C340
C340
C1C0
C1C0
C0C0
ENDCHAR
STARTCHAR uni01F9
ENCODING 505
SWIDTH 600 0
DWIDTH 14 0
BBX 11 19 2 0
BITMAP
1000
3800
0C00
0600
0200
0000
0000
CF80
DFC0
F0C0
E0C0
C060
C060
C060
C060
C060
C060
C060
C060
ENDCHAR
STARTCHAR Aringacute
ENCODING 506
SWIDTH 600 0
DWIDTH 14 0
BBX 13 23 1 0
BITMAP
0180
0600
0F00
0980
0900
0700
0000
0700
0700
0F00
0D00
0980
1980
1880
10C0
30C0
3FC0
3FE0
6060
6060
6030
C030
C038
ENDCHAR
STARTCHAR aringacute
ENCODING 507
SWIDTH 600 0
DWIDTH 14 0
BBX 10 21 2 0
BITMAP
0200
0300
0600
1B00
1100
1900
0E00
0000
0000
1F00
7F80
E1C0
00C0
00C0
0FC0
70C0
C0C0
C0C0
E1C0
FF40
3C40
ENDCHAR
STARTCHAR AEacute
ENCODING 508
SWIDTH 600 0
DWIDTH 14 0
BBX 14 21 0 0
BITMAP
0010
0038
0060
0040
0000
03FC
03FC
0680
0680
0480
0C80
0CF8
18F8
1880
1880
3F80
3F80
7080
6080
60FC
C0FC
ENDCHAR
STARTCHAR aeacute
ENCODING 509
SWIDTH 600 0
DWIDTH 14 0
BBX 14 19 0 0
BITMAP
0040
00E0
01C0
0380
0100
0000
0000
3C70
7EF8
438C
030C
0F04
3FFC
73FC
6300
C100
E388
7EFC
3878
ENDCHAR
STARTCHAR Oslashacute
ENCODING 510
SWIDTH 600 0
DWIDTH 14 0
BBX 12 22 1 -1
BITMAP
0100
0380
0700
0400
0020
0FB0
3FF0
30E0
60E0
60F0
E1B0
C330
C230
C630
CC30
D830
7830
7060
70E0
7FC0
CF80
8000
ENDCHAR
STARTCHAR oslashacute
ENCODING 511
SWIDTH 600 0
DWIDTH 14 0
BBX 12 19 1 0
BITMAP
0080
0180
0300
0600
0400
0000
0000
0FB0
3FE0
70E0
61E0
61B0
E330
C630
6C30
7870
70E0
7FC0
CF80
ENDCHAR
STARTCHAR uni0218
ENCODING 536
SWIDTH 600 0
DWIDTH 14 0
BBX 11 21 2 -5
BITMAP
1F00
7FC0
60C0
E000
C000
6000
7800
1E00
0780
01C0
00E0
0060
8060
E0C0
7FC0
1F00
0000
0E00
0200
1E00
1C00
ENDCHAR
STARTCHAR uni0219
ENCODING 537
SWIDTH 600 0
DWIDTH 14 0
BBX 11 17 2 -5
BITMAP
3F00
7F80
60C0
C000
7000
3F00
0FC0
00C0
8060
E0C0
7FC0
1F00
0000
0C00
0200
1E00
1C00
ENDCHAR
STARTCHAR uni021A
ENCODING 538
SWIDTH 600 0
DWIDTH 14 0
BBX 12 21 1 -5
BITMAP
FFF0
FFF0
0600
0600
0600
0600
0600
0600
0600
0600
0600
0600
0600
0600
0600
0600
0000
0600
0300
0F00
0E00
ENDCHAR
STARTCHAR uni021B
ENCODING 539
SWIDTH 600 0
DWIDTH 14 0
BBX 11 21 2 -5
BITMAP
1800
1800
1800
1800
FFE0
FFE0
1800
1800
1800
1800
1800
1800
1800
1C20
0FE0
07C0
0000
0300
0180
0780
0700
ENDCHAR
STARTCHAR uni0237
ENCODING 567
SWIDTH 600 0
DWIDTH 14 0
BBX 9 17 1 -5
BITMAP
7F80
7F80
0180
0180
0180
0180
0180
0180
0180
0180
0180
0180
0180
0300
8300
7F00
FC00
ENDCHAR
STARTCHAR uni0243
ENCODING 579
SWIDTH 600 0
DWIDTH 14 0
BBX 12 16 1 0
BITMAP
3F80
3FE0
3060
3060
3060
30E0
3F80
3FC0
3070
3030
FE30
FE30
3030
3070
3FE0
3F80
ENDCHAR
STARTCHAR uni0250
ENCODING 592
SWIDTH 600 0
DWIDTH 14 0
BBX 11 12 2 0
BITMAP
CF80
DFC0
F0E0
E060
C1C0
FF80
FC00
C000
E000
60C0
7F80
3E00
ENDCHAR
STARTCHAR uni0251
ENCODING 593
SWIDTH 600 0
DWIDTH 14 0
BBX 11 12 1 0
BITMAP
0F20
3FE0
70E0
6060
6060
E060
C060
6060
6060
70E0
3FE0
1F60
ENDCHAR
STARTCHAR uni0252
ENCODING 594
SWIDTH 600 0
DWIDTH 14 0
BBX 11 12 2 0
BITMAP
CF00
FFC0
F0C0
C0E0
C060
C060
C060
C060
C0C0
F1C0
FF80
CF00
ENDCHAR
STARTCHAR uni0253
ENCODING 595
SWIDTH 600 0
DWIDTH 14 0
BBX 11 17 2 0
BITMAP
3E00
7E00
6000
C000
C000
CF00
FFC0
F0C0
C0E0
C060
C060
C060
C060
C0E0
F1C0
FF80
CF00
ENDCHAR
STARTCHAR uni0254
ENCODING 596
SWIDTH 600 0
DWIDTH 14 0
BBX 11 12 1 0
BITMAP
1F00
7FC0
61C0
0060
0060
0060
0060
0060
0060
61C0
FFC0
1F00
ENDCHAR
STARTCHAR uni0255
ENCODING 597
SWIDTH 600 0
DWIDTH 14 0
BBX 11 14 2 -2
BITMAP
0F80
3FC0
70E0
E000
C000
C000
C3C0
C7E0
EC60
7860
3FC0
3F80
6000
6000
ENDCHAR
STARTCHAR uni0256
ENCODING 598
SWIDTH 600 0
DWIDTH 14 0
BBX 14 22 1 -5
BITMAP
0060
0060
0060
0060
0060
0F60
3FE0
70E0
6060
6060
E060
C060
6060
6060
70E0
3FE0
1F60
0060
0060
0060
0038
003C
ENDCHAR
STARTCHAR uni0257
ENCODING 599
SWIDTH 600 0
DWIDTH 14 0
BBX 14 17 1 0
BITMAP
003C
0078
0060
0060
0060
0F60
3FE0
70E0
6060
6060
E060
C060
6060
6060
70E0
3FE0
1E60
ENDCHAR
STARTCHAR uni0258
ENCODING 600
SWIDTH 600 0
DWIDTH 14 0
BBX 11 12 2 0
BITMAP
1E00
7F80
E1C0
C0C0
8060
FFE0
FFE0
0060
00C0
C1C0
FF80
3E00
ENDCHAR
STARTCHAR uni0259
ENCODING 601
SWIDTH 600 0
DWIDTH 14 0
BBX 11 12 2 0
BITMAP
3F00
7F80
C1C0
00C0
0060
FFE0
FFE0
8060
C0C0
E1C0
7F80
1F00
ENDCHAR
STARTCHAR uni025A
ENCODING 602
SWIDTH 600 0
DWIDTH 14 0
BBX 14 12 1 0
BITMAP
3C00
FF00
4340
01E0
03B0
1F9C
7198
C180
C180
C300
7F00
3C00
ENDCHAR
STARTCHAR uni025B
ENCODING 603
SWIDTH 600 0
DWIDTH 14 0
BBX 11 12 2 0
BITMAP
1F00
7FC0
60E0
6000
6000
3F00
7F00
E000
C000
E060
7FC0
3F80
ENDCHAR
STARTCHAR uni025C
ENCODING 604
SWIDTH 600 0
DWIDTH 14 0
BBX 11 12 1 0
BITMAP
1F80
7FC0
60E0
0060
00C0
0F80
0FC0
0060
0060
60E0
FFE0
1F80
ENDCHAR
STARTCHAR uni025E
ENCODING 606
SWIDTH 600 0
DWIDTH 14 0
BBX 12 12 1 0
BITMAP
0F80
3FE0
7860
6060
6060
C3C0
C3E0
6070
6030
7070
3FE0
0FC0
ENDCHAR
STARTCHAR uni025F
ENCODING 607
SWIDTH 600 0
DWIDTH 14 0
BBX 13 17 1 -5
BITMAP
7F80
7F80
0180
0180
0180
3FF8
3FF8
0180
0180
0180
0180
0180
0180
0300
8300
7F00
FC00
ENDCHAR
STARTCHAR uni0260
ENCODING 608
SWIDTH 600 0
DWIDTH 14 0
BBX 14 20 1 -5
BITMAP
003C
0038
0070
0F60
3FE0
70E0
6060
6060
E060
E060
6060
6060
79E0
3FE0
0C60
0060
0060
20E0
7FC0
1F00
ENDCHAR
STARTCHAR uni0261
ENCODING 609
SWIDTH 600 0
DWIDTH 14 0
BBX 11 17 1 -5
BITMAP
0F20
3FE0
70E0
6060
6060
C060
C060
6060
6060
70E0
3FE0
1F60
0060
0060
20E0
7FC0
1F00
ENDCHAR
STARTCHAR uni0262
ENCODING 610
SWIDTH 600 0
DWIDTH 14 0
BBX 11 12 2 0
BITMAP
0F80
3FC0
70E0
E000
C000
C3E0
C3E0
C060
E060
70E0
3FC0
1F80
ENDCHAR
STARTCHAR uni0263
ENCODING 611
SWIDTH 600 0
DWIDTH 14 0
BBX 12 17 1 -5
BITMAP
C030
6030
6060
3060
30C0
18C0
1980
0980
0D00
0700
0700
0F00
0D80
0980
1980
0F80
0700
ENDCHAR
STARTCHAR uni0264
ENCODING 612
SWIDTH 600 0
DWIDTH 14 0
BBX 12 12 1 0
BITMAP
70F0
FDF0
0F80
0700
0D80
18C0
30C0
3060
3060
38C0
3FC0
0F80
ENDCHAR
STARTCHAR uni0265
ENCODING 613
SWIDTH 600 0
DWIDTH 14 0
BBX 10 17 2 -5
BITMAP
C0C0
C0C0
C0C0
C0C0
C0C0
C0C0
C0C0
C0C0
C1C0
E3C0
7EC0
3CC0
00C0
00C0
00C0
00C0
00C0
ENDCHAR
STARTCHAR uni0266
ENCODING 614
SWIDTH 600 0
DWIDTH 14 0
BBX 11 17 2 0
BITMAP
3E00
7E00
6000
C000
C000
CF80
DFC0
F0C0
E0C0
C060
C060
C060
C060
C060
C060
C060
C060
ENDCHAR
STARTCHAR uni0267
ENCODING 615
SWIDTH 600 0
DWIDTH 14 0
BBX 11 22 2 -5
BITMAP
3E00
7E00
6000
C000
C000
CF80
DFC0
F0C0
E0C0
C060
C060
C060
C060
C060
C060
C060
C060
0060
00E0
00C0
03C0
0780
ENDCHAR
STARTCHAR uni0268
ENCODING 616
SWIDTH 600 0
DWIDTH 14 0
BBX 12 17 2 0
BITMAP
0700
0700
0700
0000
0000
FF00
FF00
0300
0300
0300
7FF0
7FF0
0300
0300
0300
0300
0300
ENDCHAR
STARTCHAR uni026A
ENCODING 618
SWIDTH 600 0
DWIDTH 14 0
BBX 10 12 2 0
BITMAP
FFC0
FFC0
0C00
0C00
0C00
0C00
0C00
0C00
0C00
0C00
FFC0
FFC0
ENDCHAR
STARTCHAR uni026B
ENCODING 619
SWIDTH 600 0
DWIDTH 14 0
BBX 11 17 2 0
BITMAP
FC00
FC00
0C00
0C00
0C00
0C00
0C00
3C00
7C80
CF80
0C00
0C00
0C00
0C00
0E40
07E0
03C0
ENDCHAR
STARTCHAR uni026C
ENCODING 620
SWIDTH 600 0
DWIDTH 14 0
BBX 11 17 2 0
BITMAP
FC00
FC00
0C00
0C00
7C00
FC00
9C00
CC00
FF80
7F80
0C00
0C00
0C00
0C00
0E40
0FE0
03C0
ENDCHAR
STARTCHAR uni026D
ENCODING 621
SWIDTH 600 0
DWIDTH 14 0
BBX 11 22 2 -5
BITMAP
FC00
FC00
0C00
0C00
0C00
0C00
0C00
0C00
0C00
0C00
0C00
0C00
0C00
0C00
0C00
0C00
0C00
0C00
0C00
0E40
07E0
03C0
ENDCHAR
STARTCHAR uni026E
ENCODING 622
SWIDTH 600 0
DWIDTH 14 0
BBX 12 22 2 -5
BITMAP
C000
C000
C000
C000
C000
FFE0
FFE0
C0C0
C080
C180
C300
C600
C780
CFE0
C0E0
C070
C030
0030
0060
30E0
3FC0
0F80
ENDCHAR
STARTCHAR uni026F
ENCODING 623
SWIDTH 600 0
DWIDTH 14 0
BBX 12 12 1 0
BITMAP
C630
C630
C630
C630
C630
C630
C630
C630
C630
CE70
FBF0
73B0
ENDCHAR
STARTCHAR uni0270
ENCODING 624
SWIDTH 600 0
DWIDTH 14 0
BBX 12 17 1 -5
BITMAP
C630
C630
C630
C630
C630
C630
C630
C630
C630
CE70
FFF0
73B0
0030
0030
0030
0030
0030
ENDCHAR
STARTCHAR uni0271
ENCODING 625
SWIDTH 600 0
DWIDTH 14 0
BBX 12 17 1 -5
BITMAP
DCE0
FFF0
E730
E730
C630
C630
C630
C630
C630
C630
C630
C630
0030
0030
0030
00F0
00E0
ENDCHAR
STARTCHAR uni0272
ENCODING 626
SWIDTH 600 0
DWIDTH 14 0
BBX 13 17 0 -5
BITMAP
31E0
37F0
3C30
3830
3018
3018
3018
3018
3018
3018
3018
3018
3000
3000
3000
F000
E000
ENDCHAR
STARTCHAR uni0273
ENCODING 627
SWIDTH 600 0
DWIDTH 14 0
BBX 13 17 2 -5
BITMAP
CF80
DFC0
F0C0
E0C0
C0C0
C0C0
C0C0
C0C0
C0C0
C0C0
C0C0
C0C0
00C0
00C0
0060
0078
0038
ENDCHAR
STARTCHAR uni0274
ENCODING 628
SWIDTH 600 0
DWIDTH 14 0
BBX 10 12 2 0
BITMAP
E0C0
E0C0
F0C0
D8C0
D8C0
CCC0
C6C0
C6C0
C3C0
C1C0
C1C0
C0C0
ENDCHAR
STARTCHAR uni0275
ENCODING 629
SWIDTH 600 0
DWIDTH 14 0
BBX 12 12 1 0
BITMAP
0F80
3FC0
70E0
6070
6030
FFF0
FFF0
4030
6030
70E0
3FC0
0F80
ENDCHAR
STARTCHAR uni0276
ENCODING 630
SWIDTH 600 0
DWIDTH 14 0
BBX 13 12 1 0
BITMAP
1FF8
7FF8
6300
C300
C300
C3F0
C3F0
C300
C300
6300
7FF8
1FF8
ENDCHAR
STARTCHAR uni0278
ENCODING 632
SWIDTH 600 0
DWIDTH 14 0
BBX 12 22 1 -5
BITMAP
0600
0600
0600
0600
0600
1F80
3FE0
7660
E630
C630
C630
C630
C630
E630
7660
3FE0
1F80
0600
0600
0600
0600
0600
ENDCHAR
STARTCHAR uni0279
ENCODING 633
SWIDTH 600 0
DWIDTH 14 0
BBX 9 12 2 0
BITMAP
0180
0180
0180
0180
0180
0180
0180
0180
0380
0F80
FD80
F180
ENDCHAR
STARTCHAR uni027A
ENCODING 634
SWIDTH 600 0
DWIDTH 14 0
BBX 9 17 2 0
BITMAP
0180
0180
0180
0180
0180
0180
0180
0180
0180
0180
0180
0180
0180
0380
0F80
FD80
F180
ENDCHAR
STARTCHAR uni027B
ENCODING 635
SWIDTH 600 0
DWIDTH 14 0
BBX 10 17 2 -5
BITMAP
0600
0600
0600
0600
0600
0600
0600
0600
0600
1E00
FE00
E600
0600
0600
0600
03C0
01C0
ENDCHAR
STARTCHAR uni027D
ENCODING 637
SWIDTH 600 0
DWIDTH 14 0
BBX 10 17 3 -5
BITMAP
C7C0
CFC0
D800
F000
E000
C000
C000
C000
C000
C000
C000
C000
6000
6000
6100
7F00
1F80
ENDCHAR
STARTCHAR uni027E
ENCODING 638
SWIDTH 600 0
DWIDTH 14 0
BBX 10 12 3 0
BITMAP
0FC0
3FC0
7800
6000
6000
E000
C000
C000
C000
C000
C000
C000
ENDCHAR
STARTCHAR uni0280
ENCODING 640
SWIDTH 600 0
DWIDTH 14 0
BBX 11 12 2 0
BITMAP
FF80
FFC0
C0C0
C060
C0C0
FFC0
FF00
C300
C180
C180
C0C0
C060
ENDCHAR
STARTCHAR uni0281
ENCODING 641
SWIDTH 600 0
DWIDTH 14 0
BBX 11 12 1 0
BITMAP
E060
3060
3860
1860
1FE0
3FE0
7060
6060
6060
6060
7FE0
1FE0
ENDCHAR
STARTCHAR uni0282
ENCODING 642
SWIDTH 600 0
DWIDTH 14 0
BBX 11 17 2 -5
BITMAP
3F00
7F80
60C0
C000
7000
3F00
0FC0
00C0
8060
E0C0
FFC0
BF00
8000
C000
C000
F000
7000
ENDCHAR
STARTCHAR uni0283
ENCODING 643
SWIDTH 600 0
DWIDTH 14 0
BBX 12 22 1 -5
BITMAP
01E0
03F0
0720
0600
0600
0600
0600
0600
0600
0600
0600
0600
0600
0600
0600
0600
0600
0600
0600
8600
7E00
FC00
ENDCHAR
STARTCHAR uni0284
ENCODING 644
SWIDTH 600 0
DWIDTH 14 0
BBX 12 22 1 -5
BITMAP
01E0
03F0
0720
0600
0600
0600
0600
0600
0600
0600
7FE0
7FE0
0600
0600
0600
0600
0600
0600
0600
8600
7E00
FC00
ENDCHAR
STARTCHAR uni0287
ENCODING 647
SWIDTH 600 0
DWIDTH 14 0
BBX 12 16 1 -4
BITMAP
7C00
FF00
8300
0300
0300
0300
0300
0300
0300
0300
7FF0
7FF0
0300
0300
0300
0300
ENDCHAR
STARTCHAR uni0288
ENCODING 648
SWIDTH 600 0
DWIDTH 14 0
BBX 11 21 2 -5
BITMAP
1800
1800
1800
1800
FFE0
FFE0
1800
1800
1800
1800
1800
1800
1800
1800
1800
1800
1800
1800
1C20
0FE0
07C0
ENDCHAR
STARTCHAR uni0289
ENCODING 649
SWIDTH 600 0
DWIDTH 14 0
BBX 14 12 0 0
BITMAP
3030
3030
3030
3030
FFFC
FFFC
3030
3030
3070
18F0
1FF0
0F30
ENDCHAR
STARTCHAR uni028A
ENCODING 650
SWIDTH 600 0
DWIDTH 14 0
BBX 12 12 1 0
BITMAP
F8F0
F8F0
30C0
6060
6020
6030
E030
6030
6070
70E0
3FC0
0F80
ENDCHAR
STARTCHAR uni028B
ENCODING 651
SWIDTH 600 0
DWIDTH 14 0
BBX 11 12 2 0
BITMAP
C380
C3C0
C0E0
C060
C060
C060
C060
C060
C0C0
E1C0
7F80
1F00
ENDCHAR
STARTCHAR uni028C
ENCODING 652
SWIDTH 600 0
DWIDTH 14 0
BBX 12 12 1 0
BITMAP
0600
0F00
0F00
0980
1980
18C0
30C0
30C0
3060
6060
6030
C030
ENDCHAR
STARTCHAR uni028D
ENCODING 653
SWIDTH 600 0
DWIDTH 14 0
BBX 14 12 0 0
BITMAP
1870
3C70
3C70
3CD0
34D8
2698
6698
6798
6388
638C
C30C
C00C
ENDCHAR
STARTCHAR uni028E
ENCODING 654
SWIDTH 600 0
DWIDTH 14 0
BBX 12 17 1 0
BITMAP
00F0
01F0
0380
0300
0600
0600
0600
0F00
0B00
1980
1980
30C0
30C0
2060
6060
6030
C030
ENDCHAR
STARTCHAR uni028F
ENCODING 655
SWIDTH 600 0
DWIDTH 14 0
BBX 12 12 1 0
BITMAP
E030
6060
30E0
18C0
1980
0D80
0F00
0600
0600
0600
0600
0600
ENDCHAR
STARTCHAR uni0290
ENCODING 656
SWIDTH 600 0
DWIDTH 14 0
BBX 13 17 2 -5
BITMAP
7FC0
7FC0
0180
0300
0700
0E00
1C00
3800
3000
6000
FFC0
FFC0
00C0
00C0
0060
0078
0038
ENDCHAR
STARTCHAR uni0291
ENCODING 657
SWIDTH 600 0
DWIDTH 14 0
BBX 12 15 2 -3
BITMAP
7FC0
7FC0
0180
0300
0600
0C00
18E0
31F0
31B0
6330
FFE0
FFC0
0600
0600
0600
ENDCHAR
STARTCHAR uni0292
ENCODING 658
SWIDTH 600 0
DWIDTH 14 0
BBX 12 17 1 -5
BITMAP
7FE0
7FE0
00C0
0180
0600
0C00
1F80
1FC0
10E0
0060
0030
0030
0070
4060
E0E0
3FC0
1F00
ENDCHAR
STARTCHAR uni0294
ENCODING 660
SWIDTH 600 0
DWIDTH 14 0
BBX 10 17 2 0
BITMAP
3E00
7F80
E1C0
80C0
00C0
00C0
00C0
0180
0380
0E00
0C00
0C00
0C00
0C00
0C00
0C00
0C00
ENDCHAR
STARTCHAR uni0295
ENCODING 661
SWIDTH 600 0
DWIDTH 14 0
BBX 11 17 2 0
BITMAP
1F00
7F80
70C0
C060
C000
C000
C000
6000
3000
1C00
0600
0600
0600
0600
0600
0600
0600
ENDCHAR
STARTCHAR uni0298
ENCODING 664
SWIDTH 600 0
DWIDTH 14 0
BBX 12 17 1 0
BITMAP
0F00
1FC0
38E0
6060
6060
6030
4030
C630
C730
C630
4030
6030
6070
6060
30E0
3FC0
0F80
ENDCHAR
STARTCHAR uni0299
ENCODING 665
SWIDTH 600 0
DWIDTH 14 0
BBX 10 12 3 0
BITMAP
FF00
FF80
C1C0
C0C0
C180
FF00
FF80
C0C0
C0C0
C0C0
FFC0
FF00
ENDCHAR
STARTCHAR uni029C
ENCODING 668
SWIDTH 600 0
DWIDTH 14 0
BBX 10 12 2 0
BITMAP
C0C0
C0C0
C0C0
C0C0
C0C0
FFC0
FFC0
C0C0
C0C0
C0C0
C0C0
C0C0
ENDCHAR
STARTCHAR uni029D
ENCODING 669
SWIDTH 600 0
DWIDTH 14 0
BBX 11 23 1 -6
BITMAP
0380
0380
0380
0000
0000
7F80
7F80
0180
0180
0180
0180
0180
0180
0180
0180
0180
7D80
7F80
C300
C380
7EC0
3CC0
0060
ENDCHAR
STARTCHAR uni029E
ENCODING 670
SWIDTH 600 0
DWIDTH 14 0
BBX 11 17 1 -5
BITMAP
E060
6060
3060
1860
18E0
0DE0
0760
0E60
1C60
3860
7060
E060
0060
0060
0060
0060
0060
ENDCHAR
STARTCHAR uni029F
ENCODING 671
SWIDTH 600 0
DWIDTH 14 0
BBX 9 12 4 0
BITMAP
C000
C000
C000
C000
C000
C000
C000
C000
C000
C000
FF80
FF80
ENDCHAR
STARTCHAR uni02A1
ENCODING 673
SWIDTH 600 0
DWIDTH 14 0
BBX 10 17 2 0
BITMAP
1F00
7F80
E1C0
80C0
00C0
00C0
00C0
0180
0700
FFC0
FFC0
0C00
0C00
0C00
0C00
0C00
0C00
ENDCHAR
STARTCHAR uni02A2
ENCODING 674
SWIDTH 600 0
DWIDTH 14 0
BBX 11 17 2 0
BITMAP
1F00
7F80
60E0
C040
C000
C000
6000
3000
1800
FFE0
FFE0
0600
0600
0600
0600
0600
0600
ENDCHAR
STARTCHAR uni02A4
ENCODING 676
SWIDTH 600 0
DWIDTH 14 0
BBX 15 22 0 -5
BITMAP
0300
0300
0300
0300
0300
3BFC
7FFC
670C
C318
C310
C330
C360
C378
C37C
670C
7F06
3B06
0006
0006
008C
01FC
0078
ENDCHAR
STARTCHAR uni02A6
ENCODING 678
SWIDTH 600 0
DWIDTH 14 0
BBX 13 15 1 0
BITMAP
2000
2000
6000
FFE0
FFF0
6318
6300
6180
60E0
6030
6018
6018
3038
3FF0
0FC0
ENDCHAR
STARTCHAR uni02A7
ENCODING 679
SWIDTH 600 0
DWIDTH 14 0
BBX 13 22 1 -5
BITMAP
0038
3078
3060
3060
3060
FFE0
FFE0
3060
3060
3060
3060
3060
3060
3060
3060
3E60
1E60
0060
0060
00E0
03C0
0380
ENDCHAR
STARTCHAR h.sups
ENCODING 688
SWIDTH 600 0
DWIDTH 14 0
BBX 7 12 4 8
BITMAP
C0
C0
C0
DC
FE
E6
C6
C6
C6
C6
C6
C6
ENDCHAR
STARTCHAR j.sups
ENCODING 690
SWIDTH 600 0
DWIDTH 14 0
BBX 6 15 3 6
BITMAP
0C
0C
00
00
7C
7C
0C
0C
0C
0C
0C
0C
0C
7C
F8
ENDCHAR
STARTCHAR r.sups
ENCODING 691
SWIDTH 600 0
DWIDTH 14 0
BBX 6 9 6 8
BITMAP
9C
FC
E0
C0
80
80
80
80
80
ENDCHAR
STARTCHAR w.sups
ENCODING 695
SWIDTH 600 0
DWIDTH 14 0
BBX 11 8 1 9
BITMAP
C620
4660
4E60
6A40
6B40
29C0
3980
3180
ENDCHAR
STARTCHAR y.sups
ENCODING 696
SWIDTH 600 0
DWIDTH 14 0
BBX 8 11 3 6
BITMAP
C3
62
22
26
34
14
1C
08
18
70
60
ENDCHAR
STARTCHAR uni02B9
ENCODING 697
SWIDTH 600 0
DWIDTH 14 0
BBX 3 6 6 10
BITMAP
60
40
C0
C0
C0
C0
ENDCHAR
STARTCHAR uni02BB
ENCODING 699
SWIDTH 600 0
DWIDTH 14 0
BBX 4 9 5 8
BITMAP
10
30
60
C0
C0
E0
F0
F0
60
ENDCHAR
STARTCHAR uni02BC
ENCODING 700
SWIDTH 600 0
DWIDTH 14 0
BBX 4 9 5 8
BITMAP
60
F0
F0
70
10
30
20
E0
80
ENDCHAR
STARTCHAR uni02BE
ENCODING 702
SWIDTH 600 0
DWIDTH 14 0
BBX 5 8 5 12
BITMAP
E0
F0
38
18
18
38
F0
E0
ENDCHAR
STARTCHAR uni02BF
ENCODING 703
SWIDTH 600 0
DWIDTH 14 0
BBX 4 8 5 12
BITMAP
70
F0
C0
80
80
C0
F0
70
ENDCHAR
STARTCHAR uni02C1
ENCODING 705
SWIDTH 600 0
DWIDTH 14 0
BBX 7 10 4 10
BITMAP
38
7C
C6
80
80
C0
60
30
10
10
ENDCHAR
STARTCHAR circumflex
ENCODING 710
SWIDTH 600 0
DWIDTH 14 0
BBX 8 4 3 14
BITMAP
1C
3C
66
C1
ENDCHAR
STARTCHAR caron
ENCODING 711
SWIDTH 600 0
DWIDTH 14 0
BBX 8 4 3 14
BITMAP
41
E6
3C
1C
ENDCHAR
STARTCHAR uni02C8
ENCODING 712
SWIDTH 600 0
DWIDTH 14 0
BBX 2 8 6 9
BITMAP
C0
C0
C0
C0
C0
C0
C0
40
ENDCHAR
STARTCHAR uni02C9
ENCODING 713
SWIDTH 600 0
DWIDTH 14 0
BBX 6 1 4 15
BITMAP
FC
ENDCHAR
STARTCHAR uni02CA
ENCODING 714
SWIDTH 600 0
DWIDTH 14 0
BBX 4 5 6 14
BITMAP
10
30
60
C0
80
ENDCHAR
STARTCHAR uni02CB
ENCODING 715
SWIDTH 600 0
DWIDTH 14 0
BBX 5 5 4 14
BITMAP
40
E0
60
30
18
ENDCHAR
STARTCHAR uni02CC
ENCODING 716
SWIDTH 600 0
DWIDTH 14 0
BBX 2 8 6 -6
BITMAP
C0
C0
C0
C0
C0
C0
C0
C0
ENDCHAR
STARTCHAR uni02D0
ENCODING 720
SWIDTH 600 0
DWIDTH 14 0
BBX 5 12 5 0
BITMAP
F8
70
60
20
00
00
00
00
20
60
70
F8
ENDCHAR
STARTCHAR uni02D1
ENCODING 721
SWIDTH 600 0
DWIDTH 14 0
BBX 5 4 5 8
BITMAP
F8
70
60
20
ENDCHAR
STARTCHAR breve
ENCODING 728
SWIDTH 600 0
DWIDTH 14 0
BBX 8 3 3 14
BITMAP
C3
62
3C
ENDCHAR
STARTCHAR dotaccent
ENCODING 729
SWIDTH 600 0
DWIDTH 14 0
BBX 3 3 6 14
BITMAP
C0
E0
C0
ENDCHAR
STARTCHAR ring
ENCODING 730
SWIDTH 600 0
DWIDTH 14 0
BBX 5 5 5 14
BITMAP
70
98
88
98
70
ENDCHAR
STARTCHAR ogonek
ENCODING 731
SWIDTH 600 0
DWIDTH 14 0
BBX 5 5 5 -5
BITMAP
60
C0
C0
D0
78
ENDCHAR
STARTCHAR tilde
ENCODING 732
SWIDTH 600 0
DWIDTH 14 0
BBX 8 3 3 14
BITMAP
20
D9
8E
ENDCHAR
STARTCHAR hungarumlaut
ENCODING 733
SWIDTH 600 0
DWIDTH 14 0
BBX 7 5 5 13
BITMAP
24
66
4C
C8
98
ENDCHAR
STARTCHAR uni02DE
ENCODING 734
SWIDTH 600 0
DWIDTH 14 0
BBX 6 5 3 5
BITMAP
30
F0
90
1C
0C
ENDCHAR
STARTCHAR uni02E0
ENCODING 736
SWIDTH 600 0
DWIDTH 14 0
BBX 8 12 3 5
BITMAP
C3
62
66
26
34
1C
18
18
14
34
3C
1C
ENDCHAR
STARTCHAR l.sups
ENCODING 737
SWIDTH 600 0
DWIDTH 14 0
BBX 6 12 5 9
BITMAP
E0
E0
20
20
20
20
20
20
20
20
3C
3C
ENDCHAR
STARTCHAR s.sups
ENCODING 738
SWIDTH 600 0
DWIDTH 14 0
BBX 7 8 4 9
BITMAP
78
FC
C4
40
3C
86
FE
7C
ENDCHAR
STARTCHAR x.sups
ENCODING 739
SWIDTH 600 0
DWIDTH 14 0
BBX 7 8 4 9
BITMAP
C6
6C
28
38
38
6C
44
C6
ENDCHAR
STARTCHAR uni02E4
ENCODING 740
SWIDTH 600 0
DWIDTH 14 0
BBX 7 12 4 9
BITMAP
38
7C
C6
80
80
C0
60
30
10
10
10
10
ENDCHAR
STARTCHAR uni0300
ENCODING 768
SWIDTH 600 0
DWIDTH 14 0
BBX 5 5 4 14
BITMAP
40
E0
60
30
18
ENDCHAR
STARTCHAR uni0301
ENCODING 769
SWIDTH 600 0
DWIDTH 14 0
BBX 4 5 6 14
BITMAP
10
30
60
C0
80
ENDCHAR
STARTCHAR uni0302
ENCODING 770
SWIDTH 600 0
DWIDTH 14 0
BBX 8 4 3 14
BITMAP
1C
3C
66
C1
ENDCHAR
STARTCHAR uni0303
ENCODING 771
SWIDTH 600 0
DWIDTH 14 0
BBX 8 3 3 14
BITMAP
20
D9
8E
ENDCHAR
STARTCHAR uni0304
ENCODING 772
SWIDTH 600 0
DWIDTH 14 0
BBX 6 1 4 15
BITMAP
FC
ENDCHAR
STARTCHAR uni0305
ENCODING 773
SWIDTH 600 0
DWIDTH 14 0
BBX 6 1 4 15
BITMAP
FC
ENDCHAR
STARTCHAR uni0306
ENCODING 774
SWIDTH 600 0
DWIDTH 14 0
BBX 8 3 3 14
BITMAP
C3
62
3C
ENDCHAR
STARTCHAR uni0307
ENCODING 775
SWIDTH 600 0
DWIDTH 14 0
BBX 3 3 6 14
BITMAP
C0
E0
C0
ENDCHAR
STARTCHAR uni0308
ENCODING 776
SWIDTH 600 0
DWIDTH 14 0
BBX 7 3 4 14
BITMAP
C4
CE
C6
ENDCHAR
STARTCHAR uni0309
ENCODING 777
SWIDTH 600 0
DWIDTH 14 0
BBX 3 4 6 14
BITMAP
C0
60
60
C0
ENDCHAR
STARTCHAR uni030A
ENCODING 778
SWIDTH 600 0
DWIDTH 14 0
BBX 5 5 5 14
BITMAP
70
98
88
98
70
ENDCHAR
STARTCHAR uni030B
ENCODING 779
SWIDTH 600 0
DWIDTH 14 0
BBX 7 5 5 13
BITMAP
24
66
4C
C8
98
ENDCHAR
STARTCHAR uni030C
ENCODING 780
SWIDTH 600 0
DWIDTH 14 0
BBX 8 4 3 14
BITMAP
41
E6
3C
1C
ENDCHAR
STARTCHAR uni030F
ENCODING 783
SWIDTH 600 0
DWIDTH 14 0
BBX 7 5 3 13
BITMAP
88
D8
4C
64
26
ENDCHAR
STARTCHAR uni0310
ENCODING 784
SWIDTH 600 0
DWIDTH 14 0
BBX 8 6 3 14
BITMAP
10
18
1C
D1
63
3C
ENDCHAR
STARTCHAR uni0311
ENCODING 785
SWIDTH 600 0
DWIDTH 14 0
BBX 8 3 3 14
BITMAP
3C
62
C3
ENDCHAR
STARTCHAR uni0312
ENCODING 786
SWIDTH 600 0
DWIDTH 14 0
BBX 2 4 6 13
BITMAP
40
80
C0
C0
ENDCHAR
STARTCHAR uni0313
ENCODING 787
SWIDTH 600 0
DWIDTH 14 0
BBX 3 4 6 14
BITMAP
C0
E0
40
80
ENDCHAR
STARTCHAR uni0318
ENCODING 792
SWIDTH 600 0
DWIDTH 14 0
BBX 4 6 5 -7
BITMAP
10
10
F0
F0
10
10
ENDCHAR
STARTCHAR uni0319
ENCODING 793
SWIDTH 600 0
DWIDTH 14 0
BBX 4 6 5 -7
BITMAP
80
80
F0
F0
80
80
ENDCHAR
STARTCHAR uni031A
ENCODING 794
SWIDTH 600 0
DWIDTH 14 0
BBX 4 4 5 13
BITMAP
F0
F0
10
10
ENDCHAR
STARTCHAR uni031B
ENCODING 795
SWIDTH 600 0
DWIDTH 14 0
BBX 4 5 7 11
BITMAP
20
30
30
60
C0
ENDCHAR
STARTCHAR uni031C
ENCODING 796
SWIDTH 600 0
DWIDTH 14 0
BBX 4 4 5 -6
BITMAP
70
C0
C0
70
ENDCHAR
STARTCHAR uni031D
ENCODING 797
SWIDTH 600 0
DWIDTH 14 0
BBX 6 4 4 -5
BITMAP
10
10
FC
FC
ENDCHAR
STARTCHAR uni031E
ENCODING 798
SWIDTH 600 0
DWIDTH 14 0
BBX 6 4 4 -6
BITMAP
FC
FC
10
10
ENDCHAR
STARTCHAR uni031F
ENCODING 799
SWIDTH 600 0
DWIDTH 14 0
BBX 6 6 4 -7
BITMAP
10
10
FC
FC
10
10
ENDCHAR
STARTCHAR uni0320
ENCODING 800
SWIDTH 600 0
DWIDTH 14 0
BBX 6 2 4 -4
BITMAP
FC
FC
ENDCHAR
STARTCHAR uni0323
ENCODING 803
SWIDTH 600 0
DWIDTH 14 0
BBX 3 3 6 -5
BITMAP
C0
E0
C0
ENDCHAR
STARTCHAR uni0324
ENCODING 804
SWIDTH 600 0
DWIDTH 14 0
BBX 7 3 4 -5
BITMAP
C4
CE
C6
ENDCHAR
STARTCHAR uni0325
ENCODING 805
SWIDTH 600 0
DWIDTH 14 0
BBX 5 5 5 -5
BITMAP
70
98
88
98
70
ENDCHAR
STARTCHAR uni0326
ENCODING 806
SWIDTH 600 0
DWIDTH 14 0
BBX 4 4 5 -5
BITMAP
60
30
F0
E0
ENDCHAR
STARTCHAR uni0327
ENCODING 807
SWIDTH 600 0
DWIDTH 14 0
BBX 4 6 5 -6
BITMAP
60
40
60
30
30
E0
ENDCHAR
STARTCHAR uni0328
ENCODING 808
SWIDTH 600 0
DWIDTH 14 0
BBX 5 5 5 -5
BITMAP
60
C0
C0
D0
78
ENDCHAR
STARTCHAR uni0329
ENCODING 809
SWIDTH 600 0
DWIDTH 14 0
BBX 2 5 6 -7
BITMAP
C0
C0
C0
C0
C0
ENDCHAR
STARTCHAR uni032A
ENCODING 810
SWIDTH 600 0
DWIDTH 14 0
BBX 6 4 4 -6
BITMAP
FC
FC
84
84
ENDCHAR
STARTCHAR uni032C
ENCODING 812
SWIDTH 600 0
DWIDTH 14 0
BBX 8 4 3 -5
BITMAP
41
E6
3C
1C
ENDCHAR
STARTCHAR uni032E
ENCODING 814
SWIDTH 600 0
DWIDTH 14 0
BBX 8 3 3 -5
BITMAP
C3
62
3C
ENDCHAR
STARTCHAR uni032F
ENCODING 815
SWIDTH 600 0
DWIDTH 14 0
BBX 8 3 3 -5
BITMAP
3C
62
C3
ENDCHAR
STARTCHAR uni0330
ENCODING 816
SWIDTH 600 0
DWIDTH 14 0
BBX 8 3 3 -5
BITMAP
20
D9
8E
ENDCHAR
STARTCHAR uni0331
ENCODING 817
SWIDTH 600 0
DWIDTH 14 0
BBX 6 1 4 -3
BITMAP
FC
ENDCHAR
STARTCHAR uni0334
ENCODING 820
SWIDTH 600 0
DWIDTH 14 0
BBX 9 3 3 4
BITMAP
4000
F980
8700
ENDCHAR
STARTCHAR uni0339
ENCODING 825
SWIDTH 600 0
DWIDTH 14 0
BBX 3 4 6 -6
BITMAP
C0
60
60
C0
ENDCHAR
STARTCHAR uni033A
ENCODING 826
SWIDTH 600 0
DWIDTH 14 0
BBX 6 4 4 -6
BITMAP
84
84
FC
FC
ENDCHAR
STARTCHAR uni033B
ENCODING 827
SWIDTH 600 0
DWIDTH 14 0
BBX 6 5 4 -7
BITMAP
FC
FC
84
FC
FC
ENDCHAR
STARTCHAR uni033C
ENCODING 828
SWIDTH 600 0
DWIDTH 14 0
BBX 8 4 3 -5
BITMAP
76
FF
D9
89
ENDCHAR
STARTCHAR uni033D
ENCODING 829
SWIDTH 600 0
DWIDTH 14 0
BBX 4 4 5 14
BITMAP
90
70
70
90
ENDCHAR
STARTCHAR uni0342
ENCODING 834
SWIDTH 600 0
DWIDTH 14 0
BBX 8 3 3 14
BITMAP
20
D9
8E
ENDCHAR
STARTCHAR uni0345
ENCODING 837
SWIDTH 600 0
DWIDTH 14 0
BBX 3 3 6 -5
BITMAP
C0
E0
60
ENDCHAR
STARTCHAR uni035F
ENCODING 863
SWIDTH 600 0
DWIDTH 14 0
BBX 24 2 -5 -4
BITMAP
FFFFFF
FFFFFF
ENDCHAR
STARTCHAR uni0361
ENCODING 865
SWIDTH 600 0
DWIDTH 14 0
BBX 22 5 -4 14
BITMAP
01FE00
0FFFC0
3E00F0
70001C
C00004
ENDCHAR
STARTCHAR uni0374
ENCODING 884
SWIDTH 600 0
DWIDTH 14 0
BBX 3 6 6 11
BITMAP
60
40
C0
C0
C0
C0
ENDCHAR
STARTCHAR uni0375
ENCODING 885
SWIDTH 600 0
DWIDTH 14 0
BBX 2 6 6 0
BITMAP
40
40
C0
C0
C0
C0
ENDCHAR
STARTCHAR uni037A
ENCODING 890
SWIDTH 600 0
DWIDTH 14 0
BBX 3 3 6 -5
BITMAP
C0
E0
60
ENDCHAR
STARTCHAR uni037E
ENCODING 894
SWIDTH 600 0
DWIDTH 14 0
BBX 5 18 5 -5
BITMAP
70
F0
F0
70
00
00
00
00
00
70
F0
F0
78
10
30
30
60
C0
ENDCHAR
STARTCHAR tonos
ENCODING 900
SWIDTH 600 0
DWIDTH 14 0
BBX 4 6 6 13
BITMAP
70
60
60
60
40
C0
ENDCHAR
STARTCHAR dieresistonos
ENCODING 901
SWIDTH 600 0
DWIDTH 14 0
BBX 8 6 3 13
BITMAP
0C
0C
08
CB
FB
10
ENDCHAR
STARTCHAR Alphatonos
ENCODING 902
SWIDTH 600 0
DWIDTH 14 0
BBX 13 16 1 0
BITMAP
6700
4700
C500
CD80
CD80
C880
98C0
18C0
10C0
3FE0
3FE0
3060
6030
6030
6030
C038
ENDCHAR
STARTCHAR anoteleia
ENCODING 903
SWIDTH 600 0
DWIDTH 14 0
BBX 4 4 5 8
BITMAP
70
F0
F0
70
ENDCHAR
STARTCHAR Epsilontonos
ENCODING 904
SWIDTH 600 0
DWIDTH 14 0
BBX 12 16 1 0
BITMAP
CFE0
CFE0
CC00
CC00
8C00
8C00
8FC0
0FC0
0C00
0C00
0C00
0C00
0C00
0C00
0FF0
0FF0
ENDCHAR
STARTCHAR Etatonos
ENCODING 905
SWIDTH 600 0
DWIDTH 14 0
BBX 12 16 1 0
BITMAP
C830
C830
C830
C830
8830
8830
8FF0
0FF0
0830
0830
0830
0830
0830
0830
0830
0830
ENDCHAR
STARTCHAR Iotatonos
ENCODING 906
SWIDTH 600 0
DWIDTH 14 0
BBX 11 16 1 0
BITMAP
DFE0
DFE0
C300
C300
8300
8300
8300
0300
0300
0300
0300
0300
0300
0300
1FE0
1FE0
ENDCHAR
STARTCHAR Omicrontonos
ENCODING 908
SWIDTH 600 0
DWIDTH 14 0
BBX 12 16 1 0
BITMAP
C780
CFC0
CC60
D870
9830
9830
9030
3030
3030
1030
1830
1830
1870
0C60
0FC0
0780
ENDCHAR
STARTCHAR Upsilontonos
ENCODING 910
SWIDTH 600 0
DWIDTH 14 0
BBX 13 16 1 0
BITMAP
6C18
4C18
CC10
C630
C630
C220
8360
0360
01C0
01C0
0080
0080
0080
0080
0080
0080
ENDCHAR
STARTCHAR Omegatonos
ENCODING 911
SWIDTH 600 0
DWIDTH 14 0
BBX 12 16 1 0
BITMAP
C780
CFC0
DC60
D870
9830
9830
B030
3030
1030
1830
1830
1820
0860
0C40
3CF0
3CF0
ENDCHAR
STARTCHAR iotadieresistonos
ENCODING 912
SWIDTH 600 0
DWIDTH 14 0
BBX 11 19 2 0
BITMAP
0600
0400
0C00
6D80
6B80
0800
0000
FC00
FC00
0C00
0C00
0C00
0C00
0C00
0C00
0C00
0C00
0FC0
07E0
ENDCHAR
STARTCHAR Alpha
ENCODING 913
SWIDTH 600 0
DWIDTH 14 0
BBX 13 16 1 0
BITMAP
0700
0700
0F00
0D00
0980
1980
1880
10C0
30C0
3FC0
3FE0
6060
6060
6030
C030
C038
ENDCHAR
STARTCHAR Beta
ENCODING 914
SWIDTH 600 0
DWIDTH 14 0
BBX 11 16 2 0
BITMAP
FF00
FFC0
C1C0
C0C0
C0C0
C1C0
FF00
FF80
C0C0
C060
C060
C060
C060
C0E0
FFC0
FF00
ENDCHAR
STARTCHAR Gamma
ENCODING 915
SWIDTH 600 0
DWIDTH 14 0
BBX 10 16 3 0
BITMAP
FFC0
FFC0
C000
C000
C000
C000
C000
C000
C000
C000
C000
C000
C000
C000
C000
C000
ENDCHAR
STARTCHAR uni0394
ENCODING 916
SWIDTH 600 0
DWIDTH 14 0
BBX 12 16 1 0
BITMAP
0700
0700
0F00
0D80
0980
1980
18C0
30C0
30C0
3060
6060
6060
6030
C030
FFF0
FFF0
ENDCHAR
STARTCHAR Epsilon
ENCODING 917
SWIDTH 600 0
DWIDTH 14 0
BBX 10 16 3 0
BITMAP
FF80
FF80
C000
C000
C000
C000
FF00
FF00
C000
C000
C000
C000
C000
C000
FFC0
FFC0
ENDCHAR
STARTCHAR Zeta
ENCODING 918
SWIDTH 600 0
DWIDTH 14 0
BBX 11 16 2 0
BITMAP
FFE0
FFE0
00C0
0180
0180
0300
0600
0E00
0C00
1800
3800
3000
6000
C000
FFE0
FFE0
ENDCHAR
STARTCHAR Eta
ENCODING 919
SWIDTH 600 0
DWIDTH 14 0
BBX 11 16 2 0
BITMAP
C0E0
C0E0
C0E0
C0E0
C0E0
C0E0
FFE0
FFE0
C0E0
C0E0
C0E0
C0E0
C0E0
C0E0
C0E0
C0E0
ENDCHAR
STARTCHAR Theta
ENCODING 920
SWIDTH 600 0
DWIDTH 14 0
BBX 12 16 1 0
BITMAP
0F80
3FC0
30E0
6060
6030
E030
CFB0
CFB0
C030
C030
E030
6030
6060
30E0
3FC0
0F80
ENDCHAR
STARTCHAR Iota
ENCODING 921
SWIDTH 600 0
DWIDTH 14 0
BBX 10 16 2 0
BITMAP
FFC0
FFC0
0C00
0C00
0C00
0C00
0C00
0C00
0C00
0C00
0C00
0C00
0C00
0C00
FFC0
FFC0
ENDCHAR
STARTCHAR Kappa
ENCODING 922
SWIDTH 600 0
DWIDTH 14 0
BBX 12 16 2 0
BITMAP
C060
C0C0
C180
C300
C700
C600
CE00
DE00
F300
F300
E180
C180
C0C0
C0E0
C060
C070
ENDCHAR
STARTCHAR Lambda
ENCODING 923
SWIDTH 600 0
DWIDTH 14 0
BBX 12 16 1 0
BITMAP
0700
0700
0F00
0D00
0980
1980
1980
18C0
30C0
30C0
3060
6060
6060
6030
E030
C030
ENDCHAR
STARTCHAR Mu
ENCODING 924
SWIDTH 600 0
DWIDTH 14 0
BBX 11 16 2 0
BITMAP
C0E0
E0E0
E1E0
A1E0
B160
F360
D360
DA60
DA60
CE60
CC60
CC60
C060
C060
C060
C060
ENDCHAR
STARTCHAR Nu
ENCODING 925
SWIDTH 600 0
DWIDTH 14 0
BBX 10 16 2 0
BITMAP
C040
E040
E040
F040
D040
D840
D840
CC40
CC40
C640
C640
C340
C340
C1C0
C1C0
C0C0
ENDCHAR
STARTCHAR Xi
ENCODING 926
SWIDTH 600 0
DWIDTH 14 0
BBX 11 16 2 0
BITMAP
FFC0
FFC0
0000
0000
0000
0000
7F80
7F80
0000
0000
0000
0000
0000
0000
FFE0
FFE0
ENDCHAR
STARTCHAR Omicron
ENCODING 927
SWIDTH 600 0
DWIDTH 14 0
BBX 12 16 1 0
BITMAP
0F80
3FC0
30E0
6060
6030
E030
C030
C030
C030
C030
E030
6030
6060
30E0
3FC0
0F80
ENDCHAR
STARTCHAR Pi
ENCODING 928
SWIDTH 600 0
DWIDTH 14 0
BBX 11 16 2 0
BITMAP
FFE0
FFE0
C0E0
C0E0
C0E0
C0E0
C0E0
C0E0
C0E0
C0E0
C0E0
C0E0
C0E0
C0E0
C0E0
C0E0
ENDCHAR
STARTCHAR Rho
ENCODING 929
SWIDTH 600 0
DWIDTH 14 0
BBX 11 16 2 0
BITMAP
FF00
FFC0
C0E0
C060
C060
C060
C060
C0C0
FFC0
FF00
C000
C000
C000
C000
C000
C000
ENDCHAR
STARTCHAR Sigma
ENCODING 931
SWIDTH 600 0
DWIDTH 14 0
BBX 11 16 2 0
BITMAP
FFC0
FFC0
6000
3000
3800
1800
0C00
0600
0600
0C00
1800
3000
7000
6000
FFE0
FFE0
ENDCHAR
STARTCHAR Tau
ENCODING 932
SWIDTH 600 0
DWIDTH 14 0
BBX 12 16 1 0
BITMAP
FFF0
FFF0
0600
0600
0600
0600
0600
0600
0600
0600
0600
0600
0600
0600
0600
0600
ENDCHAR
STARTCHAR Upsilon
ENCODING 933
SWIDTH 600 0
DWIDTH 14 0
BBX 12 16 1 0
BITMAP
C030
6030
6060
3060
30C0
18C0
1980
0D80
0F00
0700
0600
0600
0600
0600
0600
0600
ENDCHAR
STARTCHAR Phi
ENCODING 934
SWIDTH 600 0
DWIDTH 14 0
BBX 13 16 1 0
BITMAP
0600
0600
1F80
7FE0
6670
C630
C618
C618
C618
C618
C630
6670
7FE0
1F80
0600
0600
ENDCHAR
STARTCHAR Chi
ENCODING 935
SWIDTH 600 0
DWIDTH 14 0
BBX 12 16 1 0
BITMAP
6070
7060
30C0
18C0
1980
0D80
0F00
0700
0700
0F00
1980
19C0
30C0
3060
6060
E030
ENDCHAR
STARTCHAR Psi
ENCODING 936
SWIDTH 600 0
DWIDTH 14 0
BBX 12 16 1 0
BITMAP
C630
C630
C630
C630
C630
C630
E630
7670
7FE0
1F80
0600
0600
0600
0600
0600
0600
ENDCHAR
STARTCHAR uni03A9
ENCODING 937
SWIDTH 600 0
DWIDTH 14 0
BBX 12 16 1 0
BITMAP
0F80
3FC0
70E0
6060
6030
C030
C030
C030
C030
C030
6030
6060
3060
30C0
F9F0
F9F0
ENDCHAR
STARTCHAR Iotadieresis
ENCODING 938
SWIDTH 600 0
DWIDTH 14 0
BBX 10 19 2 0
BITMAP
3300
3380
0000
FFC0
FFC0
0C00
0C00
0C00
0C00
0C00
0C00
0C00
0C00
0C00
0C00
0C00
0C00
FFC0
FFC0
ENDCHAR
STARTCHAR Upsilondieresis
ENCODING 939
SWIDTH 600 0
DWIDTH 14 0
BBX 12 19 1 0
BITMAP
1980
19C0
0000
C030
6030
6060
3060
30C0
18C0
1980
0D80
0F00
0700
0600
0600
0600
0600
0600
0600
ENDCHAR
STARTCHAR alphatonos
ENCODING 940
SWIDTH 600 0
DWIDTH 14 0
BBX 13 19 1 0
BITMAP
0180
0180
0100
0300
0300
0200
0000
1F30
3FB0
71A0
60E0
6060
C060
C060
E060
6060
71E0
3F78
1E38
ENDCHAR
STARTCHAR epsilontonos
ENCODING 941
SWIDTH 600 0
DWIDTH 14 0
BBX 11 19 2 0
BITMAP
0300
0300
0300
0200
0600
0600
0000
1F00
7FC0
60C0
6000
6000
3F00
7F00
E000
C000
E0E0
7FC0
3F80
ENDCHAR
STARTCHAR etatonos
ENCODING 942
SWIDTH 600 0
DWIDTH 14 0
BBX 10 24 2 -5
BITMAP
0300
0300
0200
0600
0600
0600
0000
C780
DFC0
F0C0
E0C0
C0C0
C0C0
C0C0
C0C0
C0C0
C0C0
C0C0
C0C0
00C0
00C0
00C0
00C0
00C0
ENDCHAR
STARTCHAR iotatonos
ENCODING 943
SWIDTH 600 0
DWIDTH 14 0
BBX 11 19 2 0
BITMAP
0600
0600
0400
0C00
0C00
0800
0000
FC00
FC00
0C00
0C00
0C00
0C00
0C00
0C00
0C00
0C00
0FC0
07E0
ENDCHAR
STARTCHAR upsilondieresistonos
ENCODING 944
SWIDTH 600 0
DWIDTH 14 0
BBX 11 19 2 0
BITMAP
0600
0600
0400
6580
6D80
0800
0000
C0C0
C0C0
C0C0
C0C0
C060
C060
C060
C0C0
C0C0
E1C0
7F80
3F00
ENDCHAR
STARTCHAR alpha
ENCODING 945
SWIDTH 600 0
DWIDTH 14 0
BBX 13 12 1 0
BITMAP
1F30
3FB0
71A0
60E0
6060
C060
C060
E060
6060
71E0
3F78
1E38
ENDCHAR
STARTCHAR beta
ENCODING 946
SWIDTH 600 0
DWIDTH 14 0
BBX 11 22 2 -5
BITMAP
1F00
3F80
6180
E0C0
C0C0
C180
C300
CF00
CFC0
C0C0
C060
C060
C060
C060
F0C0
FFC0
CF80
C000
C000
C000
C000
C000
ENDCHAR
STARTCHAR gamma
ENCODING 947
SWIDTH 600 0
DWIDTH 14 0
BBX 12 18 1 -5
BITMAP
4000
E030
6030
3060
3060
1860
18C0
08C0
0C80
0D80
0500
0700
0600
0600
0600
0600
0600
0600
ENDCHAR
STARTCHAR delta
ENCODING 948
SWIDTH 600 0
DWIDTH 14 0
BBX 11 17 2 0
BITMAP
3F00
7FE0
60C0
6000
3000
1800
0E00
3F00
6180
C0C0
C060
C060
C060
C0E0
E1C0
7F80
1F00
ENDCHAR
STARTCHAR epsilon
ENCODING 949
SWIDTH 600 0
DWIDTH 14 0
BBX 11 12 2 0
BITMAP
1F00
7FC0
60C0
6000
6000
3F00
7F00
E000
C000
E0E0
7FC0
3F80
ENDCHAR
STARTCHAR zeta
ENCODING 950
SWIDTH 600 0
DWIDTH 14 0
BBX 10 22 3 -5
BITMAP
FFC0
FFC0
0380
0600
0C00
1800
3000
6000
6000
C000
C000
C000
C000
C000
F000
7F00
1F80
03C0
00C0
0080
0180
0100
ENDCHAR
STARTCHAR eta
ENCODING 951
SWIDTH 600 0
DWIDTH 14 0
BBX 10 17 2 -5
BITMAP
C780
DFC0
F0C0
E0C0
C0C0
C0C0
C0C0
C0C0
C0C0
C0C0
C0C0
C0C0
00C0
00C0
00C0
00C0
00C0
ENDCHAR
STARTCHAR theta
ENCODING 952
SWIDTH 600 0
DWIDTH 14 0
BBX 11 17 2 0
BITMAP
1E00
3F80
7180
E0C0
C0C0
C040
C060
FFE0
FFE0
C060
C060
C0C0
C0C0
E0C0
7180
3F80
1E00
ENDCHAR
STARTCHAR iota
ENCODING 953
SWIDTH 600 0
DWIDTH 14 0
BBX 11 12 2 0
BITMAP
FC00
FC00
0C00
0C00
0C00
0C00
0C00
0C00
0C00
0C00
0FC0
07E0
ENDCHAR
STARTCHAR kappa
ENCODING 954
SWIDTH 600 0
DWIDTH 14 0
BBX 12 12 2 0
BITMAP
C060
61E0
63C0
6700
6C00
7E00
7700
7300
6180
61C0
60E0
4070
ENDCHAR
STARTCHAR lambda
ENCODING 955
SWIDTH 600 0
DWIDTH 14 0
BBX 12 17 1 0
BITMAP
7800
7C00
0E00
0600
0600
0300
0700
0780
0D80
0D80
18C0
18C0
30E0
3060
7060
6030
E030
ENDCHAR
STARTCHAR uni03BC
ENCODING 956
SWIDTH 600 0
DWIDTH 14 0
BBX 11 17 2 -5
BITMAP
C0C0
C0C0
C0C0
C0C0
C0C0
C0C0
C0C0
C0C0
C1C0
E3C0
FEE0
DC60
C000
C000
C000
C000
C000
ENDCHAR
STARTCHAR nu
ENCODING 957
SWIDTH 600 0
DWIDTH 14 0
BBX 12 13 1 0
BITMAP
4000
E030
6030
3020
3060
1860
1840
0CC0
0CC0
0D80
0580
0700
0600
ENDCHAR
STARTCHAR xi
ENCODING 958
SWIDTH 600 0
DWIDTH 14 0
BBX 11 22 2 -5
BITMAP
FFE0
FFE0
1800
3000
3000
3000
1800
0F80
1F80
3800
6000
6000
6000
6000
7800
3F80
0FC0
01E0
0060
0040
00C0
00C0
ENDCHAR
STARTCHAR omicron
ENCODING 959
SWIDTH 600 0
DWIDTH 14 0
BBX 11 12 2 0
BITMAP
1F00
7F80
E1C0
C0C0
C060
C060
C060
C060
C0C0
E1C0
7F80
1F00
ENDCHAR
STARTCHAR pi
ENCODING 960
SWIDTH 600 0
DWIDTH 14 0
BBX 13 12 1 0
BITMAP
FFF8
FFF8
3060
3040
3040
3040
3040
3040
3040
3040
3070
3070
ENDCHAR
STARTCHAR rho
ENCODING 961
SWIDTH 600 0
DWIDTH 14 0
BBX 11 17 2 -5
BITMAP
1F00
3FC0
71C0
60E0
C060
C060
C060
C060
C0E0
E1C0
FF80
CF00
C000
C000
C000
C000
C000
ENDCHAR
STARTCHAR uni03C2
ENCODING 962
SWIDTH 600 0
DWIDTH 14 0
BBX 11 17 2 -5
BITMAP
0F80
3FC0
70E0
6000
C000
C000
C000
C000
6000
7800
3F00
0FC0
01C0
00C0
00C0
0180
0180
ENDCHAR
STARTCHAR sigma
ENCODING 963
SWIDTH 600 0
DWIDTH 14 0
BBX 13 12 1 0
BITMAP
0FF8
3FF8
70C0
6060
6060
E060
E060
6060
6060
70E0
3FC0
0F00
ENDCHAR
STARTCHAR tau
ENCODING 964
SWIDTH 600 0
DWIDTH 14 0
BBX 11 12 2 0
BITMAP
FFE0
FFE0
0C00
0C00
0C00
0C00
0C00
0C00
0C00
0C00
0F80
0780
ENDCHAR
STARTCHAR upsilon
ENCODING 965
SWIDTH 600 0
DWIDTH 14 0
BBX 11 12 2 0
BITMAP
C0C0
C0C0
C0C0
C0C0
C060
C060
C060
C0C0
C0C0
E1C0
7F80
3F00
ENDCHAR
STARTCHAR phi
ENCODING 966
SWIDTH 600 0
DWIDTH 14 0
BBX 12 20 1 -5
BITMAP
0600
0600
0600
1F80
3FE0
7660
E630
C630
C630
C630
C630
E630
7660
3FE0
1F80
0600
0600
0600
0600
0600
ENDCHAR
STARTCHAR chi
ENCODING 967
SWIDTH 600 0
DWIDTH 14 0
BBX 12 17 1 -5
BITMAP
E070
7060
30C0
18C0
1980
0F80
0F00
0700
0700
0F00
0F80
1D80
19C0
38C0
3060
6070
E030
ENDCHAR
STARTCHAR psi
ENCODING 968
SWIDTH 600 0
DWIDTH 14 0
BBX 12 20 1 -5
BITMAP
0600
0600
0600
C660
C630
C630
C630
C630
C630
C630
C630
6630
6660
3FE0
1F80
0600
0600
0600
0600
0600
ENDCHAR
STARTCHAR omega
ENCODING 969
SWIDTH 600 0
DWIDTH 14 0
BBX 13 12 1 0
BITMAP
2060
7060
6030
C030
C630
C618
C618
C638
C630
E730
7FF0
39E0
ENDCHAR
STARTCHAR iotadieresis
ENCODING 970
SWIDTH 600 0
DWIDTH 14 0
BBX 11 17 2 0
BITMAP
6300
7300
6300
0000
0000
FC00
FC00
0C00
0C00
0C00
0C00
0C00
0C00
0C00
0C00
0FC0
07E0
ENDCHAR
STARTCHAR upsilondieresis
ENCODING 971
SWIDTH 600 0
DWIDTH 14 0
BBX 11 17 2 0
BITMAP
3300
7380
3300
0000
0000
C0C0
C0C0
C0C0
C0C0
C060
C060
C060
C0C0
C0C0
E1C0
7F80
3F00
ENDCHAR
STARTCHAR omicrontonos
ENCODING 972
SWIDTH 600 0
DWIDTH 14 0
BBX 11 19 2 0
BITMAP
0700
0600
0600
0600
0400
0C00
0000
1F00
7F80
E1C0
C0C0
C060
C060
C060
C060
C0C0
E1C0
7F80
1F00
ENDCHAR
STARTCHAR upsilontonos
ENCODING 973
SWIDTH 600 0
DWIDTH 14 0
BBX 11 19 2 0
BITMAP
0600
0600
0600
0400
0400
0C00
0000
C0C0
C0C0
C0C0
C0C0
C060
C060
C060
C0C0
C0C0
E1C0
7F80
3F00
ENDCHAR
STARTCHAR omegatonos
ENCODING 974
SWIDTH 600 0
DWIDTH 14 0
BBX 13 19 1 0
BITMAP
0380
0300
0300
0300
0200
0600
0000
2060
7060
6030
C030
C630
C618
C618
C638
C630
E730
7FF0
39E0
ENDCHAR
STARTCHAR uni03D0
ENCODING 976
SWIDTH 600 0
DWIDTH 14 0
BBX 11 17 2 0
BITMAP
1E00
7F80
6180
E0C0
C0C0
C180
C180
C700
FF80
E0C0
C060
C060
C060
E060
70E0
3FC0
1F00
ENDCHAR
STARTCHAR uni03D1
ENCODING 977
SWIDTH 600 0
DWIDTH 14 0
BBX 11 17 2 0
BITMAP
3E00
7F80
E180
C0C0
C0C0
C040
E060
7FE0
1FE0
0060
C060
C0C0
C0C0
E0C0
6180
7F80
1E00
ENDCHAR
STARTCHAR uni03D5
ENCODING 981
SWIDTH 600 0
DWIDTH 14 0
BBX 12 20 1 -5
BITMAP
0600
0600
0600
1F80
3FE0
7660
E630
C630
C630
C630
C630
E630
7660
3FE0
1F80
0600
0600
0600
0600
0600
ENDCHAR
STARTCHAR uni03D7
ENCODING 983
SWIDTH 600 0
DWIDTH 14 0
BBX 12 16 2 -4
BITMAP
C060
61E0
63C0
6700
6C00
7E00
7700
7300
6180
60C0
60E0
4070
0060
00E0
00C0
0380
ENDCHAR
STARTCHAR uni03D9
ENCODING 985
SWIDTH 600 0
DWIDTH 14 0
BBX 12 17 1 -5
BITMAP
0F80
3FC0
70E0
6060
6030
E030
E030
6030
6070
70E0
3FC0
0F80
0600
0600
0600
0600
0600
ENDCHAR
STARTCHAR uni03DB
ENCODING 987
SWIDTH 600 0
DWIDTH 14 0
BBX 10 17 2 -5
BITMAP
0FC0
3FC0
7000
6000
C000
C000
C000
C000
6000
7800
3F00
0FC0
01C0
00C0
00C0
0080
0180
ENDCHAR
STARTCHAR uni03DD
ENCODING 989
SWIDTH 600 0
DWIDTH 14 0
BBX 10 17 3 -5
BITMAP
FFC0
FFC0
C000
C000
C000
C000
C000
FF80
C000
C000
C000
C000
C000
C000
C000
C000
E000
ENDCHAR
STARTCHAR uni03E1
ENCODING 993
SWIDTH 600 0
DWIDTH 14 0
BBX 11 21 2 -4
BITMAP
2000
7000
3800
1C00
0E00
0700
0300
0780
1F80
7980
E0C0
80C0
03C0
0FC0
3C60
3060
0060
0060
0060
00C0
00C0
ENDCHAR
STARTCHAR uni0400
ENCODING 1024
SWIDTH 600 0
DWIDTH 14 0
BBX 10 21 3 0
BITMAP
1000
3800
0C00
0600
0000
FF80
FF80
C000
C000
C000
C000
FF00
FF00
C000
C000
C000
C000
C000
C000
FFC0
FFC0
ENDCHAR
STARTCHAR uni0401
ENCODING 1025
SWIDTH 600 0
DWIDTH 14 0
BBX 10 19 3 0
BITMAP
3300
3300
0000
FF80
FF80
C000
C000
C000
C000
FF00
FF00
C000
C000
C000
C000
C000
C000
FFC0
FFC0
ENDCHAR
STARTCHAR uni0402
ENCODING 1026
SWIDTH 600 0
DWIDTH 14 0
BBX 14 16 0 0
BITMAP
FFE0
FFE0
0C00
0C00
0C00
0C00
0FE0
0FF8
0C18
0C0C
0C0C
0C0C
0C0C
0C18
0C78
0CF0
ENDCHAR
STARTCHAR uni0403
ENCODING 1027
SWIDTH 600 0
DWIDTH 14 0
BBX 10 21 3 0
BITMAP
0400
0E00
1C00
1000
0000
FFC0
FFC0
C000
C000
C000
C000
C000
C000
C000
C000
C000
C000
C000
C000
C000
C000
ENDCHAR
STARTCHAR uni0404
ENCODING 1028
SWIDTH 600 0
DWIDTH 14 0
BBX 11 16 2 0
BITMAP
0F80
3FC0
7060
6000
C000
C000
FF00
FF00
C000
C000
C000
C000
6040
7060
3FC0
0F80
ENDCHAR
STARTCHAR uni0405
ENCODING 1029
SWIDTH 600 0
DWIDTH 14 0
BBX 11 16 2 0
BITMAP
1F00
7FC0
60C0
E000
C000
6000
7800
1E00
0780
01C0
00E0
0060
8060
E0C0
7FC0
1F00
ENDCHAR
STARTCHAR uni0406
ENCODING 1030
SWIDTH 600 0
DWIDTH 14 0
BBX 10 16 2 0
BITMAP
FFC0
FFC0
0C00
0C00
0C00
0C00
0C00
0C00
0C00
0C00
0C00
0C00
0C00
0C00
FFC0
FFC0
ENDCHAR
STARTCHAR uni0407
ENCODING 1031
SWIDTH 600 0
DWIDTH 14 0
BBX 10 19 2 0
BITMAP
3300
3380
0000
FFC0
FFC0
0C00
0C00
0C00
0C00
0C00
0C00
0C00
0C00
0C00
0C00
0C00
0C00
FFC0
FFC0
ENDCHAR
STARTCHAR uni0408
ENCODING 1032
SWIDTH 600 0
DWIDTH 14 0
BBX 10 16 2 0
BITMAP
7FC0
7FC0
00C0
00C0
00C0
00C0
00C0
00C0
00C0
00C0
00C0
00C0
41C0
E180
7F80
3E00
ENDCHAR
STARTCHAR uni0409
ENCODING 1033
SWIDTH 600 0
DWIDTH 14 0
BBX 14 16 0 0
BITMAP
1F80
1F80
1980
1180
1180
1180
31E0
31F8
3198
318C
318C
318C
318C
6198
E1F8
C1E0
ENDCHAR
STARTCHAR uni040A
ENCODING 1034
SWIDTH 600 0
DWIDTH 14 0
BBX 13 16 1 0
BITMAP
C600
C600
C600
C600
C600
C600
FFC0
FFF0
C630
C618
C618
C618
C618
C630
C7F0
C7C0
ENDCHAR
STARTCHAR uni040B
ENCODING 1035
SWIDTH 600 0
DWIDTH 14 0
BBX 14 16 0 0
BITMAP
FFE0
FFE0
0C00
0C00
0C00
0C00
0FE0
0FF8
0C18
0C18
0C0C
0C0C
0C0C
0C0C
0C0C
0C0C
ENDCHAR
STARTCHAR uni040C
ENCODING 1036
SWIDTH 600 0
DWIDTH 14 0
BBX 12 21 2 0
BITMAP
0100
0380
0600
0C00
0000
C070
C0E0
C1C0
C180
C300
C300
C600
FE00
FE00
C700
C300
C180
C1C0
C0C0
C060
C070
ENDCHAR
STARTCHAR uni040D
ENCODING 1037
SWIDTH 600 0
DWIDTH 14 0
BBX 11 21 2 0
BITMAP
1000
3800
0C00
0600
0000
C0E0
C0E0
C1E0
C360
C360
C760
C660
CE60
CC60
D860
D860
F060
F060
E060
E060
C060
ENDCHAR
STARTCHAR uni040E
ENCODING 1038
SWIDTH 600 0
DWIDTH 14 0
BBX 12 20 1 0
BITMAP
10C0
18C0
0F80
0000
C030
6030
6060
3060
3060
18C0
18C0
1980
0D80
0D80
0700
0700
0600
0600
3C00
3800
ENDCHAR
STARTCHAR uni040F
ENCODING 1039
SWIDTH 600 0
DWIDTH 14 0
BBX 11 21 2 -5
BITMAP
C060
C060
C060
C060
C060
C060
C060
C060
C060
C060
C060
C060
C060
C060
FFE0
FFE0
0C00
0C00
0C00
0C00
0C00
ENDCHAR
STARTCHAR uni0410
ENCODING 1040
SWIDTH 600 0
DWIDTH 14 0
BBX 13 16 1 0
BITMAP
0700
0700
0F00
0D00
0980
1980
1880
10C0
30C0
3FC0
3FE0
6060
6060
6030
C030
C038
ENDCHAR
STARTCHAR uni0411
ENCODING 1041
SWIDTH 600 0
DWIDTH 14 0
BBX 11 16 2 0
BITMAP
FFC0
FFC0
C000
C000
C000
C000
FF00
FFC0
C0E0
C060
C060
C060
C060
C0E0
FFC0
FF00
ENDCHAR
STARTCHAR uni0412
ENCODING 1042
SWIDTH 600 0
DWIDTH 14 0
BBX 11 16 2 0
BITMAP
FF00
FFC0
C1C0
C0C0
C0C0
C1C0
FF00
FF80
C0C0
C060
C060
C060
C060
C0E0
FFC0
FF00
ENDCHAR
STARTCHAR uni0413
ENCODING 1043
SWIDTH 600 0
DWIDTH 14 0
BBX 10 16 3 0
BITMAP
FFC0
FFC0
C000
C000
C000
C000
C000
C000
C000
C000
C000
C000
C000
C000
C000
C000
ENDCHAR
STARTCHAR uni0414
ENCODING 1044
SWIDTH 600 0
DWIDTH 14 0
BBX 13 21 1 -5
BITMAP
0FE0
1FE0
1860
1860
1860
1860
1060
3060
3060
3060
3060
2060
6060
6060
FFF8
FFF8
C018
C018
C018
C018
C018
ENDCHAR
STARTCHAR uni0415
ENCODING 1045
SWIDTH 600 0
DWIDTH 14 0
BBX 10 16 3 0
BITMAP
FF80
FF80
C000
C000
C000
C000
FF00
FF00
C000
C000
C000
C000
C000
C000
FFC0
FFC0
ENDCHAR
STARTCHAR uni0416
ENCODING 1046
SWIDTH 600 0
DWIDTH 14 0
BBX 14 16 0 0
BITMAP
E30C
E31C
3318
3330
1330
1B30
1B20
1FE0
1FE0
1B30
3330
3338
7318
6318
630C
C30C
ENDCHAR
STARTCHAR uni0417
ENCODING 1047
SWIDTH 600 0
DWIDTH 14 0
BBX 12 16 1 0
BITMAP
0F80
3FC0
70E0
4060
0060
00E0
0F80
0FC0
00E0
0030
0030
0030
4030
F0E0
3FE0
0F80
ENDCHAR
STARTCHAR uni0418
ENCODING 1048
SWIDTH 600 0
DWIDTH 14 0
BBX 11 16 2 0
BITMAP
C0E0
C0E0
C1E0
C360
C360
C760
C660
CE60
CC60
D860
D860
F060
F060
E060
E060
C060
ENDCHAR
STARTCHAR uni0419
ENCODING 1049
SWIDTH 600 0
DWIDTH 14 0
BBX 11 20 2 0
BITMAP
2180
3180
1F00
0000
C0E0
C0E0
C1E0
C360
C360
C760
C660
CE60
CC60
D860
D860
F060
F060
E060
E060
C060
ENDCHAR
STARTCHAR uni041A
ENCODING 1050
SWIDTH 600 0
DWIDTH 14 0
BBX 12 16 2 0
BITMAP
C070
C0E0
C1C0
C180
C300
C300
C600
FE00
FE00
C700
C300
C180
C1C0
C0C0
C060
C070
ENDCHAR
STARTCHAR uni041B
ENCODING 1051
SWIDTH 600 0
DWIDTH 14 0
BBX 13 16 0 0
BITMAP
07F8
07F8
0438
0C38
0C38
0C38
0C38
0C38
1838
1838
1838
1838
3838
3038
F038
E038
ENDCHAR
STARTCHAR uni041C
ENCODING 1052
SWIDTH 600 0
DWIDTH 14 0
BBX 11 16 2 0
BITMAP
C0E0
E0E0
E1E0
A1E0
B160
F360
D360
DA60
DA60
CE60
CC60
CC60
C060
C060
C060
C060
ENDCHAR
STARTCHAR uni041D
ENCODING 1053
SWIDTH 600 0
DWIDTH 14 0
BBX 11 16 2 0
BITMAP
C0E0
C0E0
C0E0
C0E0
C0E0
C0E0
FFE0
FFE0
C0E0
C0E0
C0E0
C0E0
C0E0
C0E0
C0E0
C0E0
ENDCHAR
STARTCHAR uni041E
ENCODING 1054
SWIDTH 600 0
DWIDTH 14 0
BBX 12 16 1 0
BITMAP
0F80
3FC0
30E0
6060
6030
E030
C030
C030
C030
C030
E030
6030
6060
30E0
3FC0
0F80
ENDCHAR
STARTCHAR uni041F
ENCODING 1055
SWIDTH 600 0
DWIDTH 14 0
BBX 11 16 2 0
BITMAP
FFE0
FFE0
C0E0
C0E0
C0E0
C0E0
C0E0
C0E0
C0E0
C0E0
C0E0
C0E0
C0E0
C0E0
C0E0
C0E0
ENDCHAR
STARTCHAR uni0420
ENCODING 1056
SWIDTH 600 0
DWIDTH 14 0
BBX 11 16 2 0
BITMAP
FF00
FFC0
C0E0
C060
C060
C060
C060
C0C0
FFC0
FF00
C000
C000
C000
C000
C000
C000
ENDCHAR
STARTCHAR uni0421
ENCODING 1057
SWIDTH 600 0
DWIDTH 14 0
BBX 11 16 2 0
BITMAP
0F80
3FC0
7060
6000
C000
C000
C000
C000
C000
C000
C000
C000
6040
7060
3FC0
0F80
ENDCHAR
STARTCHAR uni0422
ENCODING 1058
SWIDTH 600 0
DWIDTH 14 0
BBX 12 16 1 0
BITMAP
FFF0
FFF0
0600
0600
0600
0600
0600
0600
0600
0600
0600
0600
0600
0600
0600
0600
ENDCHAR
STARTCHAR uni0423
ENCODING 1059
SWIDTH 600 0
DWIDTH 14 0
BBX 12 16 1 0
BITMAP
C030
6030
6060
3060
3060
18C0
18C0
1980
0D80
0D80
0700
0700
0600
0600
3C00
3800
ENDCHAR
STARTCHAR uni0424
ENCODING 1060
SWIDTH 600 0
DWIDTH 14 0
BBX 13 16 1 0
BITMAP
0600
0600
1FC0
7FE0
E670
C630
C618
C618
C618
C618
C630
E670
7FE0
1F80
0600
0600
ENDCHAR
STARTCHAR uni0425
ENCODING 1061
SWIDTH 600 0
DWIDTH 14 0
BBX 12 16 1 0
BITMAP
6070
7060
30C0
18C0
1980
0D80
0F00
0700
0700
0F00
1980
19C0
30C0
3060
6060
E030
ENDCHAR
STARTCHAR uni0426
ENCODING 1062
SWIDTH 600 0
DWIDTH 14 0
BBX 12 21 2 -5
BITMAP
C0C0
C0C0
C0C0
C0C0
C0C0
C0C0
C0C0
C0C0
C0C0
C0C0
C0C0
C0C0
C0C0
C0C0
FFF0
FFF0
0030
0030
0030
0030
0030
ENDCHAR
STARTCHAR uni0427
ENCODING 1063
SWIDTH 600 0
DWIDTH 14 0
BBX 10 16 2 0
BITMAP
C0C0
C0C0
C0C0
C0C0
C0C0
C0C0
E0C0
7FC0
3FC0
00C0
00C0
00C0
00C0
00C0
00C0
00C0
ENDCHAR
STARTCHAR uni0428
ENCODING 1064
SWIDTH 600 0
DWIDTH 14 0
BBX 12 16 1 0
BITMAP
C610
C610
C610
C610
C610
C610
C610
C610
C610
C610
C610
C610
C610
C610
FFF0
FFF0
ENDCHAR
STARTCHAR uni0429
ENCODING 1065
SWIDTH 600 0
DWIDTH 14 0
BBX 13 21 1 -5
BITMAP
C630
C630
C630
C630
C630
C630
C630
C630
C630
C630
C630
C630
C630
C630
FFF8
FFF8
0018
0018
0018
0018
0018
ENDCHAR
STARTCHAR uni042A
ENCODING 1066
SWIDTH 600 0
DWIDTH 14 0
BBX 14 16 0 0
BITMAP
FE00
FE00
0600
0600
0600
0600
07E0
07F8
0638
061C
060C
060C
061C
0638
07F8
07E0
ENDCHAR
STARTCHAR uni042B
ENCODING 1067
SWIDTH 600 0
DWIDTH 14 0
BBX 12 16 1 0
BITMAP
C030
C030
C030
C030
C030
C030
FC30
FE30
C730
C330
C330
C330
C330
C730
FE30
FC30
ENDCHAR
STARTCHAR uni042C
ENCODING 1068
SWIDTH 600 0
DWIDTH 14 0
BBX 11 16 2 0
BITMAP
C000
C000
C000
C000
C000
C000
FF00
FFC0
C0E0
C060
C060
C060
C060
C0E0
FFC0
FF00
ENDCHAR
STARTCHAR uni042D
ENCODING 1069
SWIDTH 600 0
DWIDTH 14 0
BBX 12 16 1 0
BITMAP
1F00
7F80
E1C0
0060
0060
0030
1FF0
1FF0
0030
0030
0070
0060
80E0
E1C0
7F80
1F00
ENDCHAR
STARTCHAR uni042E
ENCODING 1070
SWIDTH 600 0
DWIDTH 14 0
BBX 13 16 1 0
BITMAP
C3C0
C7E0
C670
CC30
CC30
CC30
FC30
FC38
CC38
CC30
CC30
CC30
CC30
C670
C7E0
C3C0
ENDCHAR
STARTCHAR uni042F
ENCODING 1071
SWIDTH 600 0
DWIDTH 14 0
BBX 11 16 1 0
BITMAP
1FE0
7FE0
7060
6060
6060
6060
7060
3FE0
1FE0
0C60
1860
3860
3060
6060
6060
C060
ENDCHAR
STARTCHAR uni0430
ENCODING 1072
SWIDTH 600 0
DWIDTH 14 0
BBX 10 12 2 0
BITMAP
1F00
7F80
E1C0
00C0
07C0
3FC0
78C0
C0C0
C0C0
C1C0
7F40
3C40
ENDCHAR
STARTCHAR uni0431
ENCODING 1073
SWIDTH 600 0
DWIDTH 14 0
BBX 11 17 2 0
BITMAP
00C0
0FC0
3F80
7000
6000
C000
CF00
FF80
E1C0
C0E0
C060
C060
C060
C0C0
61C0
3F80
1F00
ENDCHAR
STARTCHAR uni0432
ENCODING 1074
SWIDTH 600 0
DWIDTH 14 0
BBX 11 12 2 0
BITMAP
FF80
FFC0
C0C0
C0C0
C0C0
FF80
FFC0
C0E0
C060
C0E0
FFC0
FF80
ENDCHAR
STARTCHAR uni0433
ENCODING 1075
SWIDTH 600 0
DWIDTH 14 0
BBX 10 12 3 0
BITMAP
FFC0
FFC0
C000
C000
C000
C000
C000
C000
C000
C000
C000
C000
ENDCHAR
STARTCHAR uni0434
ENCODING 1076
SWIDTH 600 0
DWIDTH 14 0
BBX 12 17 1 -5
BITMAP
1FE0
1FE0
1060
3060
3060
3060
3060
3060
2060
6060
FFF0
FFF0
C030
C030
C030
C030
C030
ENDCHAR
STARTCHAR uni0435
ENCODING 1077
SWIDTH 600 0
DWIDTH 14 0
BBX 11 12 2 0
BITMAP
1F00
3F80
70C0
C060
C060
FFE0
FFE0
C000
C000
7040
3FC0
1F00
ENDCHAR
STARTCHAR uni0436
ENCODING 1078
SWIDTH 600 0
DWIDTH 14 0
BBX 14 12 0 0
BITMAP
E30C
E31C
3330
1330
1B30
1FE0
1FF0
3330
3338
6318
631C
C30C
ENDCHAR
STARTCHAR uni0437
ENCODING 1079
SWIDTH 600 0
DWIDTH 14 0
BBX 11 12 1 0
BITMAP
1F80
7FC0
60E0
0060
00C0
0F80
0FC0
0060
0060
60E0
FFE0
1F80
ENDCHAR
STARTCHAR uni0438
ENCODING 1080
SWIDTH 600 0
DWIDTH 14 0
BBX 10 12 2 0
BITMAP
C0C0
C1C0
C1C0
C3C0
C6C0
C4C0
CCC0
D8C0
D0C0
F0C0
E0C0
E0C0
ENDCHAR
STARTCHAR uni0439
ENCODING 1081
SWIDTH 600 0
DWIDTH 14 0
BBX 10 17 2 0
BITMAP
2180
3180
1F00
0000
0000
C0C0
C1C0
C1C0
C3C0
C6C0
C4C0
CCC0
D8C0
D0C0
F0C0
E0C0
E0C0
ENDCHAR
STARTCHAR uni043A
ENCODING 1082
SWIDTH 600 0
DWIDTH 14 0
BBX 10 12 3 0
BITMAP
C0C0
C1C0
C300
C300
C600
FC00
FE00
C600
C300
C380
C180
C0C0
ENDCHAR
STARTCHAR uni043B
ENCODING 1083
SWIDTH 600 0
DWIDTH 14 0
BBX 11 12 1 0
BITMAP
1FE0
1FE0
1860
1060
1060
3060
3060
3060
3060
3060
E060
C060
ENDCHAR
STARTCHAR uni043C
ENCODING 1084
SWIDTH 600 0
DWIDTH 14 0
BBX 11 12 2 0
BITMAP
C0E0
E0E0
E1E0
A1E0
B160
B360
9360
9A60
8E60
8E60
8C60
8060
ENDCHAR
STARTCHAR uni043D
ENCODING 1085
SWIDTH 600 0
DWIDTH 14 0
BBX 10 12 2 0
BITMAP
C0C0
C0C0
C0C0
C0C0
C0C0
FFC0
FFC0
C0C0
C0C0
C0C0
C0C0
C0C0
ENDCHAR
STARTCHAR uni043E
ENCODING 1086
SWIDTH 600 0
DWIDTH 14 0
BBX 12 12 1 0
BITMAP
0F80
3FC0
70E0
6060
6030
E030
E030
6030
6070
70E0
3FC0
0F80
ENDCHAR
STARTCHAR uni043F
ENCODING 1087
SWIDTH 600 0
DWIDTH 14 0
BBX 10 12 2 0
BITMAP
FFC0
FFC0
C0C0
C0C0
C0C0
C0C0
C0C0
C0C0
C0C0
C0C0
C0C0
C0C0
ENDCHAR
STARTCHAR uni0440
ENCODING 1088
SWIDTH 600 0
DWIDTH 14 0
BBX 11 17 2 -5
BITMAP
CF00
FFC0
F1C0
C0E0
C060
C060
C060
C060
C0E0
F1C0
FF80
CF00
C000
C000
C000
C000
C000
ENDCHAR
STARTCHAR uni0441
ENCODING 1089
SWIDTH 600 0
DWIDTH 14 0
BBX 11 12 2 0
BITMAP
0F80
3FC0
70E0
E000
C000
C000
C000
C000
E000
7060
3FC0
1F80
ENDCHAR
STARTCHAR uni0442
ENCODING 1090
SWIDTH 600 0
DWIDTH 14 0
BBX 11 12 2 0
BITMAP
FFE0
FFE0
0C00
0C00
0C00
0C00
0C00
0C00
0C00
0C00
0C00
0C00
ENDCHAR
STARTCHAR uni0443
ENCODING 1091
SWIDTH 600 0
DWIDTH 14 0
BBX 12 17 1 -5
BITMAP
C030
6030
6060
3060
3040
18C0
18C0
0980
0D80
0D00
0700
0700
0600
0600
0C00
7C00
7000
ENDCHAR
STARTCHAR uni0444
ENCODING 1092
SWIDTH 600 0
DWIDTH 14 0
BBX 13 22 1 -5
BITMAP
0600
0600
0600
0600
0600
3EE0
7FF0
E730
C630
C618
C618
C618
C618
C630
E630
7FE0
3FE0
0600
0600
0600
0600
0600
ENDCHAR
STARTCHAR uni0445
ENCODING 1093
SWIDTH 600 0
DWIDTH 14 0
BBX 11 12 2 0
BITMAP
C0E0
61C0
3180
3300
1E00
0E00
1E00
1F00
3300
6180
60C0
C0E0
ENDCHAR
STARTCHAR uni0446
ENCODING 1094
SWIDTH 600 0
DWIDTH 14 0
BBX 12 17 2 -5
BITMAP
C0C0
C0C0
C0C0
C0C0
C0C0
C0C0
C0C0
C0C0
C0C0
C0C0
FFF0
FFF0
0030
0030
0030
0030
0020
ENDCHAR
STARTCHAR uni0447
ENCODING 1095
SWIDTH 600 0
DWIDTH 14 0
BBX 10 12 2 0
BITMAP
C0C0
C0C0
C0C0
C0C0
E0C0
7FC0
3FC0
00C0
00C0
00C0
00C0
00C0
ENDCHAR
STARTCHAR uni0448
ENCODING 1096
SWIDTH 600 0
DWIDTH 14 0
BBX 12 12 1 0
BITMAP
C630
C630
C630
C630
C630
C630
C630
C630
C630
C630
FFF0
FFF0
ENDCHAR
STARTCHAR uni0449
ENCODING 1097
SWIDTH 600 0
DWIDTH 14 0
BBX 13 17 1 -5
BITMAP
C630
C630
C630
C630
C630
C630
C630
C630
C630
C630
FFF8
FFF8
0018
0018
0018
0018
0018
ENDCHAR
STARTCHAR uni044A
ENCODING 1098
SWIDTH 600 0
DWIDTH 14 0
BBX 12 12 1 0
BITMAP
FC00
FC00
0C00
0C00
0FC0
0FE0
0C30
0C30
0C30
0C30
0FF0
0FC0
ENDCHAR
STARTCHAR uni044B
ENCODING 1099
SWIDTH 600 0
DWIDTH 14 0
BBX 11 12 2 0
BITMAP
8060
8060
8060
8060
FC60
FE60
8660
8260
8260
8660
FE60
F860
ENDCHAR
STARTCHAR uni044C
ENCODING 1100
SWIDTH 600 0
DWIDTH 14 0
BBX 9 12 3 0
BITMAP
C000
C000
C000
C000
FE00
FF80
C180
C180
C180
C180
FF80
FE00
ENDCHAR
STARTCHAR uni044D
ENCODING 1101
SWIDTH 600 0
DWIDTH 14 0
BBX 11 12 1 0
BITMAP
1F00
7FC0
60E0
0060
0060
0FE0
0FE0
0060
0060
60E0
FFC0
1F00
ENDCHAR
STARTCHAR uni044E
ENCODING 1102
SWIDTH 600 0
DWIDTH 14 0
BBX 13 12 1 0
BITMAP
C3C0
C7E0
C670
CC30
CC30
FC38
FC38
CC30
CC30
CE70
C7E0
C3C0
ENDCHAR
STARTCHAR uni044F
ENCODING 1103
SWIDTH 600 0
DWIDTH 14 0
BBX 11 12 1 0
BITMAP
1FE0
7FE0
6060
6060
6060
3FE0
1FE0
1C60
1860
3060
7060
E060
ENDCHAR
STARTCHAR uni0450
ENCODING 1104
SWIDTH 600 0
DWIDTH 14 0
BBX 11 19 2 0
BITMAP
1000
3800
0C00
0600
0200
0000
0000
1F00
3F80
70C0
C060
C060
FFE0
FFE0
C000
C000
7040
3FC0
1F00
ENDCHAR
STARTCHAR uni0451
ENCODING 1105
SWIDTH 600 0
DWIDTH 14 0
BBX 11 17 2 0
BITMAP
3180
3980
3180
0000
0000
1F00
3F80
70C0
C060
C060
FFE0
FFE0
C000
C000
7040
3FC0
1F00
ENDCHAR
STARTCHAR uni0452
ENCODING 1106
SWIDTH 600 0
DWIDTH 14 0
BBX 13 22 0 -5
BITMAP
3000
3000
FF80
FF80
3000
3000
33C0
37F0
3C70
3830
3018
3018
3018
3018
3018
3018
3018
0038
0030
0070
01E0
01C0
ENDCHAR
STARTCHAR uni0453
ENCODING 1107
SWIDTH 600 0
DWIDTH 14 0
BBX 10 19 3 0
BITMAP
0100
0380
0600
0C00
0800
0000
0000
FFC0
FFC0
C000
C000
C000
C000
C000
C000
C000
C000
C000
C000
ENDCHAR
STARTCHAR uni0454
ENCODING 1108
SWIDTH 600 0
DWIDTH 14 0
BBX 11 12 2 0
BITMAP
0F80
3FC0
7060
E000
C000
FF00
FF00
C000
C000
7060
3FC0
1F80
ENDCHAR
STARTCHAR uni0455
ENCODING 1109
SWIDTH 600 0
DWIDTH 14 0
BBX 11 12 2 0
BITMAP
3F00
7F80
60C0
C000
7000
3F00
0FC0
00C0
8060
E0C0
7FC0
1F00
ENDCHAR
STARTCHAR uni0456
ENCODING 1110
SWIDTH 600 0
DWIDTH 14 0
BBX 8 17 2 0
BITMAP
07
07
07
00
00
FF
FF
03
03
03
03
03
03
03
03
03
03
ENDCHAR
STARTCHAR uni0457
ENCODING 1111
SWIDTH 600 0
DWIDTH 14 0
BBX 10 17 2 0
BITMAP
18C0
19C0
18C0
0000
0000
FF00
FF00
0300
0300
0300
0300
0300
0300
0300
0300
0300
0300
ENDCHAR
STARTCHAR uni0458
ENCODING 1112
SWIDTH 600 0
DWIDTH 14 0
BBX 9 22 1 -5
BITMAP
0380
0380
0380
0000
0000
7F80
7F80
0180
0180
0180
0180
0180
0180
0180
0180
0180
0180
0180
0300
8300
7F00
FC00
ENDCHAR
STARTCHAR uni0459
ENCODING 1113
SWIDTH 600 0
DWIDTH 14 0
BBX 13 12 0 0
BITMAP
1F80
1F80
1180
1180
31E0
31F8
3198
3188
3198
7198
E1F8
C1E0
ENDCHAR
STARTCHAR uni045A
ENCODING 1114
SWIDTH 600 0
DWIDTH 14 0
BBX 12 12 1 0
BITMAP
C600
C600
C600
C600
FFC0
FFF0
FE30
C630
C630
C630
C7F0
C7C0
ENDCHAR
STARTCHAR uni045B
ENCODING 1115
SWIDTH 600 0
DWIDTH 14 0
BBX 13 17 0 0
BITMAP
3000
3000
FF80
FF80
3000
3000
33E0
37F0
3C30
3830
3018
3018
3018
3018
3018
3018
3018
ENDCHAR
STARTCHAR uni045C
ENCODING 1116
SWIDTH 600 0
DWIDTH 14 0
BBX 10 19 3 0
BITMAP
0200
0700
0E00
0C00
1800
0000
0000
C0C0
C1C0
C300
C300
C600
FC00
FE00
C600
C300
C380
C180
C0C0
ENDCHAR
STARTCHAR uni045D
ENCODING 1117
SWIDTH 600 0
DWIDTH 14 0
BBX 10 19 2 0
BITMAP
1000
3800
1C00
0E00
0600
0000
0000
C0C0
C1C0
C1C0
C3C0
C6C0
C4C0
CCC0
D8C0
D0C0
F0C0
E0C0
E0C0
ENDCHAR
STARTCHAR uni045E
ENCODING 1118
SWIDTH 600 0
DWIDTH 14 0
BBX 12 22 1 -5
BITMAP
10C0
18C0
0F80
0000
0000
C030
6030
6060
3060
3040
18C0
18C0
0980
0D80
0D00
0700
0700
0600
0600
0C00
7C00
7000
ENDCHAR
STARTCHAR uni045F
ENCODING 1119
SWIDTH 600 0
DWIDTH 14 0
BBX 10 17 2 -5
BITMAP
C0C0
C0C0
C0C0
C0C0
C0C0
C0C0
C0C0
C0C0
C0C0
C0C0
FFC0
FFC0
0FC0
0C00
0C00
0C00
0C00
ENDCHAR
STARTCHAR uni0462
ENCODING 1122
SWIDTH 600 0
DWIDTH 14 0
BBX 12 17 1 0
BITMAP
1800
1800
1800
FFC0
FFC0
1800
1800
1800
1FC0
1FE0
1870
1830
1830
1830
1870
1FE0
1FC0
ENDCHAR
STARTCHAR uni0463
ENCODING 1123
SWIDTH 600 0
DWIDTH 14 0
BBX 12 15 1 0
BITMAP
0C00
0C00
0C00
FFC0
FFC0
0C00
0C00
0FC0
0FE0
0C70
0C30
0C30
0C70
0FE0
0FC0
ENDCHAR
STARTCHAR uni0472
ENCODING 1138
SWIDTH 600 0
DWIDTH 14 0
BBX 12 16 1 0
BITMAP
0F80
3FC0
70E0
6060
6030
C030
FFF0
FFF0
C030
C030
C030
6030
6060
30E0
3FC0
0F80
ENDCHAR
STARTCHAR uni0473
ENCODING 1139
SWIDTH 600 0
DWIDTH 14 0
BBX 12 12 1 0
BITMAP
0F80
3FC0
70E0
6070
6030
FFF0
FFF0
4030
6030
70E0
3FC0
0F80
ENDCHAR
STARTCHAR uni0474
ENCODING 1140
SWIDTH 600 0
DWIDTH 14 0
BBX 13 16 1 0
BITMAP
C018
C038
6060
6060
6060
30C0
30C0
30C0
18C0
1980
1980
0980
0D00
0F00
0F00
0700
ENDCHAR
STARTCHAR uni0475
ENCODING 1141
SWIDTH 600 0
DWIDTH 14 0
BBX 11 12 2 0
BITMAP
C060
C0E0
60C0
6180
6180
3180
3300
3300
1B00
1E00
1E00
0E00
ENDCHAR
STARTCHAR uni0490
ENCODING 1168
SWIDTH 600 0
DWIDTH 14 0
BBX 10 20 3 0
BITMAP
00C0
00C0
00C0
00C0
FFC0
FFC0
C000
C000
C000
C000
C000
C000
C000
C000
C000
C000
C000
C000
C000
C000
ENDCHAR
STARTCHAR uni0491
ENCODING 1169
SWIDTH 600 0
DWIDTH 14 0
BBX 8 16 4 0
BITMAP
03
03
03
03
FF
FF
C0
C0
C0
C0
C0
C0
C0
C0
C0
C0
ENDCHAR
STARTCHAR uni0492
ENCODING 1170
SWIDTH 600 0
DWIDTH 14 0
BBX 12 16 1 0
BITMAP
3FF0
3FF0
3000
3000
3000
3000
3000
FF00
FF00
3000
3000
3000
3000
3000
3000
3000
ENDCHAR
STARTCHAR uni0493
ENCODING 1171
SWIDTH 600 0
DWIDTH 14 0
BBX 11 12 2 0
BITMAP
7FE0
7FE0
6000
6000
6000
FF00
FF00
6000
6000
6000
6000
6000
ENDCHAR
STARTCHAR uni0496
ENCODING 1174
SWIDTH 600 0
DWIDTH 14 0
BBX 15 21 0 -5
BITMAP
E30C
E31C
3318
3330
1330
1B30
1B20
1FE0
1FE0
1B30
3330
3338
7318
6318
630E
C30E
0006
0006
0006
0006
0006
ENDCHAR
STARTCHAR uni0497
ENCODING 1175
SWIDTH 600 0
DWIDTH 14 0
BBX 15 17 0 -5
BITMAP
E30C
E31C
3330
1330
1B30
1FE0
1FF0
3330
3338
6318
631E
C30E
0006
0006
0004
0004
0004
ENDCHAR
STARTCHAR uni0498
ENCODING 1176
SWIDTH 600 0
DWIDTH 14 0
BBX 12 21 1 -5
BITMAP
0F80
3FC0
70E0
4060
0060
00E0
0F80
0FC0
00E0
0030
0030
0030
4030
F0E0
3FE0
1F80
0600
0600
0600
0600
0600
ENDCHAR
STARTCHAR uni0499
ENCODING 1177
SWIDTH 600 0
DWIDTH 14 0
BBX 11 17 1 -5
BITMAP
1F80
7FC0
60E0
0060
00C0
0F80
0FC0
0060
0060
60E0
FFE0
1F80
0600
0600
0600
0600
0600
ENDCHAR
STARTCHAR uni049A
ENCODING 1178
SWIDTH 600 0
DWIDTH 14 0
BBX 12 21 2 -5
BITMAP
C070
C0E0
C1C0
C180
C300
C300
C600
FE00
FE00
C700
C300
C180
C1C0
C0C0
C070
C070
0030
0030
0030
0030
0030
ENDCHAR
STARTCHAR uni049B
ENCODING 1179
SWIDTH 600 0
DWIDTH 14 0
BBX 11 17 3 -5
BITMAP
C0C0
C1C0
C300
C600
C600
FC00
FE00
C700
C300
C180
C1E0
C0E0
0060
0060
0060
0060
0060
ENDCHAR
STARTCHAR uni04A0
ENCODING 1184
SWIDTH 600 0
DWIDTH 14 0
BBX 14 16 0 0
BITMAP
FE0C
FE1C
0630
0630
0660
0660
0640
07C0
07C0
0660
0660
0630
0630
0618
060C
060C
ENDCHAR
STARTCHAR uni04A1
ENCODING 1185
SWIDTH 600 0
DWIDTH 14 0
BBX 13 12 1 0
BITMAP
FC38
FC70
0C60
0C40
0CC0
0FC0
0FC0
0CC0
0C60
0C60
0C30
0C18
ENDCHAR
STARTCHAR uni04A2
ENCODING 1186
SWIDTH 600 0
DWIDTH 14 0
BBX 12 21 2 -5
BITMAP
C0C0
C0C0
C0C0
C0C0
C0C0
C0C0
FFC0
FFC0
C0C0
C0C0
C0C0
C0C0
C0C0
C0C0
C0F0
C0F0
0030
0030
0030
0030
0030
ENDCHAR
STARTCHAR uni04A3
ENCODING 1187
SWIDTH 600 0
DWIDTH 14 0
BBX 12 17 2 -5
BITMAP
C0C0
C0C0
C0C0
C0C0
C0C0
FFC0
FFC0
C0C0
C0C0
C0C0
C0F0
C0F0
0030
0030
0030
0030
0020
ENDCHAR
STARTCHAR uni04AA
ENCODING 1194
SWIDTH 600 0
DWIDTH 14 0
BBX 11 21 2 -5
BITMAP
0F80
3FC0
7060
6000
C000
C000
C000
C000
C000
C000
C000
C000
6040
7060
3FC0
0F80
0200
0200
0200
0200
0200
ENDCHAR
STARTCHAR uni04AB
ENCODING 1195
SWIDTH 600 0
DWIDTH 14 0
BBX 11 17 2 -5
BITMAP
0F80
3FC0
70E0
E000
C000
C000
C000
C000
E000
7060
3FC0
1F80
0600
0600
0600
0600
0600
ENDCHAR
STARTCHAR uni04AE
ENCODING 1198
SWIDTH 600 0
DWIDTH 14 0
BBX 12 16 1 0
BITMAP
C030
6030
6060
3060
30C0
18C0
1980
0D80
0F00
0700
0600
0600
0600
0600
0600
0600
ENDCHAR
STARTCHAR uni04AF
ENCODING 1199
SWIDTH 600 0
DWIDTH 14 0
BBX 12 17 1 -5
BITMAP
C030
6030
6060
3060
30C0
10C0
18C0
1980
0D80
0D00
0700
0700
0600
0600
0600
0600
0600
ENDCHAR
STARTCHAR uni04B0
ENCODING 1200
SWIDTH 600 0
DWIDTH 14 0
BBX 12 16 1 0
BITMAP
C030
6030
6060
3060
30C0
18C0
1980
0D80
0F00
3FE0
3FE0
0600
0600
0600
0600
0600
ENDCHAR
STARTCHAR uni04B1
ENCODING 1201
SWIDTH 600 0
DWIDTH 14 0
BBX 12 17 1 -5
BITMAP
C030
6030
6060
3060
30C0
10C0
1880
0980
0D80
0D00
7FE0
7FE0
0600
0600
0600
0600
0600
ENDCHAR
STARTCHAR uni04B2
ENCODING 1202
SWIDTH 600 0
DWIDTH 14 0
BBX 13 21 1 -5
BITMAP
6070
7060
30C0
18C0
1980
0D80
0F00
0700
0700
0F00
1980
19C0
30C0
3060
6078
6038
8018
0010
0010
0010
0010
ENDCHAR
STARTCHAR uni04B3
ENCODING 1203
SWIDTH 600 0
DWIDTH 14 0
BBX 11 17 2 -5
BITMAP
C0E0
61C0
3180
3300
1E00
0E00
1E00
1F00
3300
6180
60E0
C0E0
0020
0020
0020
0020
0020
ENDCHAR
STARTCHAR uni04B6
ENCODING 1206
SWIDTH 600 0
DWIDTH 14 0
BBX 12 21 2 -5
BITMAP
C0C0
C0C0
C0C0
C0C0
C0C0
C0C0
E0C0
7FC0
3FC0
00C0
00C0
00C0
00C0
00C0
00F0
00F0
0030
0030
0030
0030
0030
ENDCHAR
STARTCHAR uni04B7
ENCODING 1207
SWIDTH 600 0
DWIDTH 14 0
BBX 11 17 2 -5
BITMAP
C0C0
C0C0
C0C0
C0C0
E0C0
7FC0
3FC0
00C0
00C0
00C0
00E0
00E0
0060
0060
0060
0060
0060
ENDCHAR
STARTCHAR uni04BA
ENCODING 1210
SWIDTH 600 0
DWIDTH 14 0
BBX 11 16 2 0
BITMAP
C000
C000
C000
C000
C000
C000
FF00
FFC0
C1C0
C0E0
C060
C060
C060
C060
C060
C060
ENDCHAR
STARTCHAR uni04BB
ENCODING 1211
SWIDTH 600 0
DWIDTH 14 0
BBX 11 17 2 0
BITMAP
C000
C000
C000
C000
C000
CF80
DFC0
F0C0
E0C0
C060
C060
C060
C060
C060
C060
C060
C060
ENDCHAR
STARTCHAR uni04C0
ENCODING 1216
SWIDTH 600 0
DWIDTH 14 0
BBX 10 16 2 0
BITMAP
FFC0
FFC0
0C00
0C00
0C00
0C00
0C00
0C00
0C00
0C00
0C00
0C00
0C00
0C00
FFC0
FFC0
ENDCHAR
STARTCHAR uni04C1
ENCODING 1217
SWIDTH 600 0
DWIDTH 14 0
BBX 14 20 0 0
BITMAP
0860
0CC0
0780
0000
E30C
E31C
3318
3330
1330
1B30
1B20
1FE0
1FE0
1B30
3330
3338
7318
6318
630C
C30C
ENDCHAR
STARTCHAR uni04C2
ENCODING 1218
SWIDTH 600 0
DWIDTH 14 0
BBX 14 17 0 0
BITMAP
1860
0C60
0780
0000
0000
E30C
E31C
3330
1330
1B30
1FE0
1FF0
3330
3338
6318
631C
C30C
ENDCHAR
STARTCHAR uni04CF
ENCODING 1231
SWIDTH 600 0
DWIDTH 14 0
BBX 11 17 2 0
BITMAP
FC00
FC00
0C00
0C00
0C00
0C00
0C00
0C00
0C00
0C00
0C00
0C00
0C00
0C00
0E40
07E0
03C0
ENDCHAR
STARTCHAR uni04D0
ENCODING 1232
SWIDTH 600 0
DWIDTH 14 0
BBX 13 20 1 0
BITMAP
10C0
1980
0F00
0000
0700
0700
0F00
0D00
0980
1980
1880
10C0
30C0
3FC0
3FE0
6060
6060
6030
C030
C038
ENDCHAR
STARTCHAR uni04D1
ENCODING 1233
SWIDTH 600 0
DWIDTH 14 0
BBX 10 17 2 0
BITMAP
3080
3180
1F00
0000
0000
1F00
7F80
E1C0
00C0
07C0
3FC0
78C0
C0C0
C0C0
C1C0
7F40
3C40
ENDCHAR
STARTCHAR uni04D4
ENCODING 1236
SWIDTH 600 0
DWIDTH 14 0
BBX 14 16 0 0
BITMAP
03FC
03FC
0680
0680
0480
0C80
0CF8
18F8
1880
1880
3F80
3F80
7080
6080
60FC
C0FC
ENDCHAR
STARTCHAR uni04D5
ENCODING 1237
SWIDTH 600 0
DWIDTH 14 0
BBX 14 12 0 0
BITMAP
3C70
7EF8
438C
030C
0F04
3FFC
73FC
6300
C100
E388
7EFC
3878
ENDCHAR
STARTCHAR uni04D6
ENCODING 1238
SWIDTH 600 0
DWIDTH 14 0
BBX 10 20 3 0
BITMAP
6180
3300
1E00
0000
FF80
FF80
C000
C000
C000
C000
FF00
FF00
C000
C000
C000
C000
C000
C000
FFC0
FFC0
ENDCHAR
STARTCHAR uni04D7
ENCODING 1239
SWIDTH 600 0
DWIDTH 14 0
BBX 11 17 2 0
BITMAP
3080
3180
1F00
0000
0000
1F00
3F80
70C0
C060
C060
FFE0
FFE0
C000
C000
7040
3FC0
1F00
ENDCHAR
STARTCHAR uni04D8
ENCODING 1240
SWIDTH 600 0
DWIDTH 14 0
BBX 12 16 1 0
BITMAP
0F80
3FC0
30E0
0060
0030
0030
0030
FFF0
FFF0
4030
6030
6030
6060
30E0
1FC0
0F80
ENDCHAR
STARTCHAR uni04D9
ENCODING 1241
SWIDTH 600 0
DWIDTH 14 0
BBX 11 12 2 0
BITMAP
3F00
7F80
C1C0
00C0
0060
FFE0
FFE0
8060
C0C0
E1C0
7F80
1F00
ENDCHAR
STARTCHAR uni04E2
ENCODING 1250
SWIDTH 600 0
DWIDTH 14 0
BBX 11 19 2 0
BITMAP
3F80
0000
0000
C0E0
C0E0
C1E0
C360
C360
C760
C660
CE60
CC60
D860
D860
F060
F060
E060
E060
C060
ENDCHAR
STARTCHAR uni04E3
ENCODING 1251
SWIDTH 600 0
DWIDTH 14 0
BBX 10 16 2 0
BITMAP
3F80
0000
0000
0000
C0C0
C1C0
C1C0
C3C0
C6C0
C4C0
CCC0
D8C0
D0C0
F0C0
E0C0
E0C0
ENDCHAR
STARTCHAR uni04E6
ENCODING 1254
SWIDTH 600 0
DWIDTH 14 0
BBX 12 19 1 0
BITMAP
1980
19C0
0000
0F80
3FC0
30E0
6060
6030
E030
C030
C030
C030
C030
E030
6030
6060
30E0
3FC0
0F80
ENDCHAR
STARTCHAR uni04E7
ENCODING 1255
SWIDTH 600 0
DWIDTH 14 0
BBX 12 17 1 0
BITMAP
1880
19C0
18C0
0000
0000
0F80
3FC0
70E0
6060
6030
E030
E030
6030
6070
70E0
3FC0
0F80
ENDCHAR
STARTCHAR uni04E8
ENCODING 1256
SWIDTH 600 0
DWIDTH 14 0
BBX 12 16 1 0
BITMAP
0F80
3FC0
70E0
6060
6030
C030
FFF0
FFF0
C030
C030
C030
6030
6060
30E0
3FC0
0F80
ENDCHAR
STARTCHAR uni04E9
ENCODING 1257
SWIDTH 600 0
DWIDTH 14 0
BBX 12 12 1 0
BITMAP
0F80
3FC0
70E0
6070
6030
FFF0
FFF0
4030
6030
70E0
3FC0
0F80
ENDCHAR
STARTCHAR uni04EE
ENCODING 1262
SWIDTH 600 0
DWIDTH 14 0
BBX 12 19 1 0
BITMAP
1FC0
0000
0000
C030
6030
6060
3060
3060
18C0
18C0
1980
0D80
0D80
0700
0700
0600
0600
3C00
3800
ENDCHAR
STARTCHAR uni04EF
ENCODING 1263
SWIDTH 600 0
DWIDTH 14 0
BBX 12 21 1 -5
BITMAP
1F80
0000
0000
0000
C030
6030
6060
3060
3040
18C0
18C0
0980
0D80
0D00
0700
0700
0600
0600
0C00
7C00
7000
ENDCHAR
STARTCHAR uni04F2
ENCODING 1266
SWIDTH 600 0
DWIDTH 14 0
BBX 12 21 1 0
BITMAP
0660
0640
0CC0
0980
0000
C030
6030
6060
3060
3060
18C0
18C0
1980
0D80
0D80
0700
0700
0600
0600
3C00
3800
ENDCHAR
STARTCHAR uni04F3
ENCODING 1267
SWIDTH 600 0
DWIDTH 14 0
BBX 12 23 1 -5
BITMAP
0260
0640
04C0
0C80
0980
0000
C030
6030
6060
3060
3040
18C0
18C0
0980
0D80
0D00
0700
0700
0600
0600
0C00
7C00
7000
ENDCHAR
STARTCHAR a.sups
ENCODING 7491
SWIDTH 600 0
DWIDTH 14 0
BBX 7 8 4 9
BITMAP
3C
FC
86
3E
FE
C6
FE
70
ENDCHAR
STARTCHAR b.sups
ENCODING 7495
SWIDTH 600 0
DWIDTH 14 0
BBX 7 11 4 9
BITMAP
C0
C0
C0
DC
FE
C6
C2
C2
C6
FE
1C
ENDCHAR
STARTCHAR d.sups
ENCODING 7496
SWIDTH 600 0
DWIDTH 14 0
BBX 8 11 3 9
BITMAP
03
03
03
3B
7F
E3
C3
C3
C3
7F
38
ENDCHAR
STARTCHAR e.sups
ENCODING 7497
SWIDTH 600 0
DWIDTH 14 0
BBX 8 8 3 9
BITMAP
3C
7E
43
FF
7F
42
7F
3E
ENDCHAR
STARTCHAR g.sups
ENCODING 7501
SWIDTH 600 0
DWIDTH 14 0
BBX 8 12 4 5
BITMAP
7F
FF
84
FC
78
80
FE
7E
83
82
FE
7C
ENDCHAR
STARTCHAR k.sups
ENCODING 7503
SWIDTH 600 0
DWIDTH 14 0
BBX 7 12 5 9
BITMAP
80
80
80
80
8E
98
B0
F0
D8
88
8C
86
ENDCHAR
STARTCHAR m.sups
ENCODING 7504
SWIDTH 600 0
DWIDTH 14 0
BBX 11 9 2 8
BITMAP
B9C0
FFC0
CE60
8C60
8C60
8C60
8C60
8C60
8C60
ENDCHAR
STARTCHAR o.sups
ENCODING 7506
SWIDTH 600 0
DWIDTH 14 0
BBX 8 8 3 9
BITMAP
3C
7E
63
C3
C3
63
7E
3C
ENDCHAR
STARTCHAR p.sups
ENCODING 7510
SWIDTH 600 0
DWIDTH 14 0
BBX 7 11 4 6
BITMAP
9C
BE
C6
C2
C2
C6
FE
DC
C0
C0
C0
ENDCHAR
STARTCHAR t.sups
ENCODING 7511
SWIDTH 600 0
DWIDTH 14 0
BBX 7 10 4 9
BITMAP
20
20
FE
FE
20
20
20
30
3E
1E
ENDCHAR
STARTCHAR u.sups
ENCODING 7512
SWIDTH 600 0
DWIDTH 14 0
BBX 7 8 4 9
BITMAP
86
86
86
86
86
CE
FE
76
ENDCHAR
STARTCHAR v.sups
ENCODING 7515
SWIDTH 600 0
DWIDTH 14 0
BBX 8 8 3 9
BITMAP
C3
42
66
26
34
3C
1C
18
ENDCHAR
STARTCHAR c.sups
ENCODING 7580
SWIDTH 600 0
DWIDTH 14 0
BBX 7 8 4 9
BITMAP
3C
7E
64
C0
C0
62
7E
3C
ENDCHAR
STARTCHAR f.sups
ENCODING 7584
SWIDTH 600 0
DWIDTH 14 0
BBX 7 13 5 8
BITMAP
1E
3E
30
20
FC
FC
20
20
20
20
20
20
20
ENDCHAR
STARTCHAR z.sups
ENCODING 7611
SWIDTH 600 0
DWIDTH 14 0
BBX 8 8 3 9
BITMAP
7F
7E
04
08
10
20
7F
FF
ENDCHAR
STARTCHAR uni1E06
ENCODING 7686
SWIDTH 600 0
DWIDTH 14 0
BBX 11 19 2 -3
BITMAP
FF00
FFC0
C1C0
C0C0
C0C0
C1C0
FF00
FF80
C0C0
C060
C060
C060
C060
C0E0
FFC0
FF00
0000
0000
3F80
ENDCHAR
STARTCHAR uni1E07
ENCODING 7687
SWIDTH 600 0
DWIDTH 14 0
BBX 11 20 2 -3
BITMAP
C000
C000
C000
C000
C000
CF00
FFC0
F1C0
C0E0
C060
C060
C060
C060
C0C0
F1C0
FF80
CF00
0000
0000
3F80
ENDCHAR
STARTCHAR uni1E0C
ENCODING 7692
SWIDTH 600 0
DWIDTH 14 0
BBX 11 21 2 -5
BITMAP
FE00
FF80
C3C0
C0C0
C0E0
C060
C060
C060
C060
C060
C060
C0E0
C0C0
C3C0
FF80
FE00
0000
0000
0C00
1E00
0C00
ENDCHAR
STARTCHAR uni1E0D
ENCODING 7693
SWIDTH 600 0
DWIDTH 14 0
BBX 11 22 1 -5
BITMAP
0060
0060
0060
0060
0060
0F60
3FE0
70E0
6060
6060
E060
C060
6060
6060
70E0
3FE0
1F60
0000
0000
0600
0700
0600
ENDCHAR
STARTCHAR uni1E0E
ENCODING 7694
SWIDTH 600 0
DWIDTH 14 0
BBX 11 19 2 -3
BITMAP
FE00
FF80
C3C0
C0C0
C0E0
C060
C060
C060
C060
C060
C060
C0E0
C0C0
C3C0
FF80
FE00
0000
0000
3F00
ENDCHAR
STARTCHAR uni1E0F
ENCODING 7695
SWIDTH 600 0
DWIDTH 14 0
BBX 11 20 1 -3
BITMAP
0060
0060
0060
0060
0060
0F60
3FE0
70E0
6060
6060
E060
C060
6060
6060
70E0
3FE0
1F60
0000
0000
1F80
ENDCHAR
STARTCHAR uni1E10
ENCODING 7696
SWIDTH 600 0
DWIDTH 14 0
BBX 11 22 2 -6
BITMAP
FE00
FF80
C3C0
C0C0
C0E0
C060
C060
C060
C060
C060
C060
C0E0
C0C0
C3C0
FF80
FE00
0800
0800
0C00
1600
0600
1C00
ENDCHAR
STARTCHAR uni1E11
ENCODING 7697
SWIDTH 600 0
DWIDTH 14 0
BBX 11 23 1 -6
BITMAP
0060
0060
0060
0060
0060
0F60
3FE0
70E0
6060
6060
E060
C060
6060
6060
70E0
3FE0
1F60
0600
0400
0600
0300
0300
0E00
ENDCHAR
STARTCHAR uni1E16
ENCODING 7702
SWIDTH 600 0
DWIDTH 14 0
BBX 10 23 3 0
BITMAP
0200
0700
0800
0000
3F00
0000
0000
FF80
FF80
C000
C000
C000
C000
FF00
FF00
C000
C000
C000
C000
C000
C000
FFC0
FFC0
ENDCHAR
STARTCHAR uni1E17
ENCODING 7703
SWIDTH 600 0
DWIDTH 14 0
BBX 11 20 2 0
BITMAP
0300
0600
0C00
0000
3F80
0000
0000
0000
1F00
3F80
70C0
C060
C060
FFE0
FFE0
C000
C000
7040
3FC0
1F00
ENDCHAR
STARTCHAR uni1E20
ENCODING 7712
SWIDTH 600 0
DWIDTH 14 0
BBX 12 19 1 0
BITMAP
0FC0
0000
0000
0780
1FE0
3870
7000
6000
6000
C000
C1F0
C1F0
C030
6030
6030
7030
3870
1FE0
0FC0
ENDCHAR
STARTCHAR uni1E21
ENCODING 7713
SWIDTH 600 0
DWIDTH 14 0
BBX 12 21 2 -5
BITMAP
3F80
0000
0000
0000
1FF0
7FF0
6180
C080
C0C0
6180
7F80
7F00
4000
C000
7FC0
7FE0
C070
8020
C0E0
FFC0
3F00
ENDCHAR
STARTCHAR uni1E24
ENCODING 7716
SWIDTH 600 0
DWIDTH 14 0
BBX 11 21 2 -5
BITMAP
C0E0
C0E0
C0E0
C0E0
C0E0
C0E0
FFE0
FFE0
C0E0
C0E0
C0E0
C0E0
C0E0
C0E0
C0E0
C0E0
0000
0000
0C00
0E00
0C00
ENDCHAR
STARTCHAR uni1E25
ENCODING 7717
SWIDTH 600 0
DWIDTH 14 0
BBX 11 22 2 -5
BITMAP
C000
C000
C000
C000
C000
CF80
DFC0
F0C0
E0C0
C060
C060
C060
C060
C060
C060
C060
C060
0000
0000
0E00
0E00
0E00
ENDCHAR
STARTCHAR uni1E26
ENCODING 7718
SWIDTH 600 0
DWIDTH 14 0
BBX 11 19 2 0
BITMAP
3300
3380
0000
C0E0
C0E0
C0E0
C0E0
C0E0
C0E0
FFE0
FFE0
C0E0
C0E0
C0E0
C0E0
C0E0
C0E0
C0E0
C0E0
ENDCHAR
STARTCHAR uni1E27
ENCODING 7719
SWIDTH 600 0
DWIDTH 14 0
BBX 13 20 0 0
BITMAP
CC00
CE00
0000
3000
3000
3000
3000
3000
33E0
37F0
3C30
3830
3018
3018
3018
3018
3018
3018
3018
3018
ENDCHAR
STARTCHAR uni1E28
ENCODING 7720
SWIDTH 600 0
DWIDTH 14 0
BBX 12 22 1 -6
BITMAP
6070
6070
6070
6070
6070
6070
7FF0
7FF0
6070
6070
6070
6070
6070
6070
6070
6070
6000
4000
6000
B000
3000
C000
ENDCHAR
STARTCHAR uni1E29
ENCODING 7721
SWIDTH 600 0
DWIDTH 14 0
BBX 12 23 1 -6
BITMAP
6000
6000
6000
6000
6000
67C0
6FE0
7860
7060
6030
6030
6030
6030
6030
6030
6030
6030
2000
6000
7000
3000
3000
E000
ENDCHAR
STARTCHAR uni1E2A
ENCODING 7722
SWIDTH 600 0
DWIDTH 14 0
BBX 11 21 2 -5
BITMAP
C0E0
C0E0
C0E0
C0E0
C0E0
C0E0
FFE0
FFE0
C0E0
C0E0
C0E0
C0E0
C0E0
C0E0
C0E0
C0E0
0000
0000
6180
3100
1E00
ENDCHAR
STARTCHAR uni1E2B
ENCODING 7723
SWIDTH 600 0
DWIDTH 14 0
BBX 11 22 2 -5
BITMAP
C000
C000
C000
C000
C000
CF80
DFC0
F0C0
E0C0
C060
C060
C060
C060
C060
C060
C060
C060
0000
0000
2080
3180
1F00
ENDCHAR
STARTCHAR uni1E32
ENCODING 7730
SWIDTH 600 0
DWIDTH 14 0
BBX 12 21 2 -5
BITMAP
C060
C0C0
C180
C300
C700
C600
CE00
DE00
F300
F300
E180
C180
C0C0
C0E0
C060
C070
0000
0000
0600
0700
0600
ENDCHAR
STARTCHAR uni1E33
ENCODING 7731
SWIDTH 600 0
DWIDTH 14 0
BBX 11 22 3 -5
BITMAP
C000
C000
C000
C000
C000
C1C0
C380
C700
C600
CC00
DC00
F600
E600
C300
C180
C1C0
C0C0
0020
0000
0C00
1E00
0C00
ENDCHAR
STARTCHAR uni1E34
ENCODING 7732
SWIDTH 600 0
DWIDTH 14 0
BBX 12 19 2 -3
BITMAP
C060
C0C0
C180
C300
C700
C600
CE00
DE00
F300
F300
E180
C180
C0C0
C0E0
C060
C070
0000
0000
1F80
ENDCHAR
STARTCHAR uni1E35
ENCODING 7733
SWIDTH 600 0
DWIDTH 14 0
BBX 11 20 3 -3
BITMAP
C000
C000
C000
C000
C000
C1C0
C380
C700
C600
CC00
DC00
F600
E600
C300
C180
C1C0
C0C0
0020
0000
3F00
ENDCHAR
STARTCHAR uni1E36
ENCODING 7734
SWIDTH 600 0
DWIDTH 14 0
BBX 10 21 3 -5
BITMAP
C000
C000
C000
C000
C000
C000
C000
C000
C000
C000
C000
C000
C000
C000
FFC0
FFC0
0000
0000
0E00
0E00
0E00
ENDCHAR
STARTCHAR uni1E37
ENCODING 7735
SWIDTH 600 0
DWIDTH 14 0
BBX 11 22 2 -5
BITMAP
FC00
FC00
0C00
0C00
0C00
0C00
0C00
0C00
0C00
0C00
0C00
0C00
0C00
0C00
0E40
07E0
03C0
0000
0000
0300
0380
0300
ENDCHAR
STARTCHAR uni1E38
ENCODING 7736
SWIDTH 600 0
DWIDTH 14 0
BBX 12 24 1 -5
BITMAP
FE00
0000
0000
3000
3000
3000
3000
3000
3000
3000
3000
3000
3000
3000
3000
3000
3000
3FF0
3FF0
0000
0000
0380
0380
0380
ENDCHAR
STARTCHAR uni1E39
ENCODING 7737
SWIDTH 600 0
DWIDTH 14 0
BBX 11 25 2 -5
BITMAP
3F00
0000
0000
FC00
FC00
0C00
0C00
0C00
0C00
0C00
0C00
0C00
0C00
0C00
0C00
0C00
0C00
0E40
07E0
03C0
0000
0000
0300
0380
0300
ENDCHAR
STARTCHAR uni1E3A
ENCODING 7738
SWIDTH 600 0
DWIDTH 14 0
BBX 10 19 3 -3
BITMAP
C000
C000
C000
C000
C000
C000
C000
C000
C000
C000
C000
C000
C000
C000
FFC0
FFC0
0000
0000
3F80
ENDCHAR
STARTCHAR uni1E3B
ENCODING 7739
SWIDTH 600 0
DWIDTH 14 0
BBX 11 20 2 -3
BITMAP
FC00
FC00
0C00
0C00
0C00
0C00
0C00
0C00
0C00
0C00
0C00
0C00
0C00
0C00
0E40
07E0
03C0
0000
0000
0FC0
ENDCHAR
STARTCHAR uni1E3E
ENCODING 7742
SWIDTH 600 0
DWIDTH 14 0
BBX 11 21 2 0
BITMAP
0200
0700
0E00
0800
0000
C0E0
E0E0
E1E0
A1E0
B160
F360
D360
DA60
DA60
CE60
CC60
CC60
C060
C060
C060
C060
ENDCHAR
STARTCHAR uni1E3F
ENCODING 7743
SWIDTH 600 0
DWIDTH 14 0
BBX 12 19 1 0
BITMAP
0080
01C0
0380
0700
0200
0000
0000
DCE0
FFF0
E730
E730
C630
C630
C630
C630
C630
C630
C630
C630
ENDCHAR
STARTCHAR uni1E40
ENCODING 7744
SWIDTH 600 0
DWIDTH 14 0
BBX 11 20 2 0
BITMAP
0C00
0E00
0C00
0000
C0E0
E0E0
E1E0
A1E0
B160
F360
D360
DA60
DA60
CE60
CC60
CC60
C060
C060
C060
C060
ENDCHAR
STARTCHAR uni1E41
ENCODING 7745
SWIDTH 600 0
DWIDTH 14 0
BBX 12 17 1 0
BITMAP
0700
0700
0700
0000
0000
DCE0
FFF0
E730
E730
C630
C630
C630
C630
C630
C630
C630
C630
ENDCHAR
STARTCHAR uni1E42
ENCODING 7746
SWIDTH 600 0
DWIDTH 14 0
BBX 11 21 2 -5
BITMAP
C0E0
E0E0
E1E0
A1E0
B160
F360
D360
DA60
DA60
CE60
CC60
CC60
C060
C060
C060
C060
0000
0000
0C00
0E00
0C00
ENDCHAR
STARTCHAR uni1E43
ENCODING 7747
SWIDTH 600 0
DWIDTH 14 0
BBX 12 17 1 -5
BITMAP
DCE0
FFF0
E730
E730
C630
C630
C630
C630
C630
C630
C630
C630
0000
0000
0700
0700
0700
ENDCHAR
STARTCHAR uni1E44
ENCODING 7748
SWIDTH 600 0
DWIDTH 14 0
BBX 10 20 2 0
BITMAP
0C00
0E00
0E00
0000
C040
E040
E040
F040
D040
D840
D840
CC40
CC40
C640
C640
C340
C340
C1C0
C1C0
C0C0
ENDCHAR
STARTCHAR uni1E45
ENCODING 7749
SWIDTH 600 0
DWIDTH 14 0
BBX 11 17 2 0
BITMAP
0E00
0E00
0E00
0000
0000
CF80
DFC0
F0C0
E0C0
C060
C060
C060
C060
C060
C060
C060
C060
ENDCHAR
STARTCHAR uni1E46
ENCODING 7750
SWIDTH 600 0
DWIDTH 14 0
BBX 10 21 2 -5
BITMAP
C040
E040
E040
F040
D040
D840
D840
CC40
CC40
C640
C640
C340
C340
C1C0
C1C0
C0C0
0000
0000
0C00
0E00
0C00
ENDCHAR
STARTCHAR uni1E47
ENCODING 7751
SWIDTH 600 0
DWIDTH 14 0
BBX 11 17 2 -5
BITMAP
CF80
DFC0
F0C0
E0C0
C060
C060
C060
C060
C060
C060
C060
C060
0000
0000
0E00
0E00
0E00
ENDCHAR
STARTCHAR uni1E48
ENCODING 7752
SWIDTH 600 0
DWIDTH 14 0
BBX 10 19 2 -3
BITMAP
C040
E040
E040
F040
D040
D840
D840
CC40
CC40
C640
C640
C340
C340
C1C0
C1C0
C0C0
0000
0000
3F00
ENDCHAR
STARTCHAR uni1E49
ENCODING 7753
SWIDTH 600 0
DWIDTH 14 0
BBX 11 15 2 -3
BITMAP
CF80
DFC0
F0C0
E0C0
C060
C060
C060
C060
C060
C060
C060
C060
0000
0000
3F80
ENDCHAR
STARTCHAR uni1E52
ENCODING 7762
SWIDTH 600 0
DWIDTH 14 0
BBX 12 23 1 0
BITMAP
0100
0380
0600
0000
1F80
0000
0000
0F80
3FC0
30E0
6060
6030
E030
C030
C030
C030
C030
E030
6030
6060
30E0
3FC0
0F80
ENDCHAR
STARTCHAR uni1E53
ENCODING 7763
SWIDTH 600 0
DWIDTH 14 0
BBX 12 20 1 0
BITMAP
0100
0380
0400
0000
1F80
0000
0000
0000
0F80
3FC0
70E0
6060
6030
E030
E030
6030
6070
70E0
3FC0
0F80
ENDCHAR
STARTCHAR uni1E58
ENCODING 7768
SWIDTH 600 0
DWIDTH 14 0
BBX 11 20 2 0
BITMAP
0C00
0E00
0C00
0000
FF00
FFC0
C0C0
C060
C060
C060
C1C0
FFC0
FF00
C700
C300
C180
C180
C0C0
C0C0
C060
ENDCHAR
STARTCHAR uni1E59
ENCODING 7769
SWIDTH 600 0
DWIDTH 14 0
BBX 10 17 3 0
BITMAP
0E00
0E00
0E00
0000
0000
C7C0
CFC0
D800
F000
E000
C000
C000
C000
C000
C000
C000
C000
ENDCHAR
STARTCHAR uni1E5A
ENCODING 7770
SWIDTH 600 0
DWIDTH 14 0
BBX 11 21 2 -5
BITMAP
FF00
FFC0
C0C0
C060
C060
C060
C1C0
FFC0
FF00
C700
C300
C180
C180
C0C0
C0C0
C060
0000
0000
0E00
0E00
0E00
ENDCHAR
STARTCHAR uni1E5B
ENCODING 7771
SWIDTH 600 0
DWIDTH 14 0
BBX 10 17 3 -5
BITMAP
C7C0
CFC0
D800
F000
E000
C000
C000
C000
C000
C000
C000
C000
0000
0000
6000
E000
6000
ENDCHAR
STARTCHAR uni1E5C
ENCODING 7772
SWIDTH 600 0
DWIDTH 14 0
BBX 11 24 2 -5
BITMAP
3F80
0000
0000
FF00
FFC0
C0C0
C060
C060
C060
C1C0
FFC0
FF00
C700
C300
C180
C180
C0C0
C0C0
C060
0000
0000
0E00
0E00
0E00
ENDCHAR
STARTCHAR uni1E5D
ENCODING 7773
SWIDTH 600 0
DWIDTH 14 0
BBX 10 21 3 -5
BITMAP
3F80
0000
0000
0000
C7C0
CFC0
D800
F000
E000
C000
C000
C000
C000
C000
C000
C000
0000
0000
6000
E000
6000
ENDCHAR
STARTCHAR uni1E5E
ENCODING 7774
SWIDTH 600 0
DWIDTH 14 0
BBX 11 19 2 -3
BITMAP
FF00
FFC0
C0C0
C060
C060
C060
C1C0
FFC0
FF00
C700
C300
C180
C180
C0C0
C0C0
C060
0000
0000
3F80
ENDCHAR
STARTCHAR uni1E5F
ENCODING 7775
SWIDTH 600 0
DWIDTH 14 0
BBX 11 15 2 -3
BITMAP
63E0
67E0
6C00
7800
7000
6000
6000
6000
6000
6000
6000
6000
0000
0000
FC00
ENDCHAR
STARTCHAR uni1E60
ENCODING 7776
SWIDTH 600 0
DWIDTH 14 0
BBX 11 20 2 0
BITMAP
0600
0E00
0600
0000
1F00
7FC0
60C0
E000
C000
6000
7800
1E00
0780
01C0
00E0
0060
8060
E0C0
7FC0
1F00
ENDCHAR
STARTCHAR uni1E61
ENCODING 7777
SWIDTH 600 0
DWIDTH 14 0
BBX 11 17 2 0
BITMAP
0C00
0E00
0C00
0000
0000
3F00
7F80
60C0
C000
7000
3F00
0FC0
00C0
8060
E0C0
7FC0
1F00
ENDCHAR
STARTCHAR uni1E62
ENCODING 7778
SWIDTH 600 0
DWIDTH 14 0
BBX 11 21 2 -5
BITMAP
1F00
7FC0
60C0
E000
C000
6000
7800
1E00
0780
01C0
00E0
0060
8060
E0C0
7FC0
1F00
0000
0000
0E00
0E00
0E00
ENDCHAR
STARTCHAR uni1E63
ENCODING 7779
SWIDTH 600 0
DWIDTH 14 0
BBX 11 17 2 -5
BITMAP
3F00
7F80
60C0
C000
7000
3F00
0FC0
00C0
8060
E0C0
7FC0
1F00
0000
0000
0E00
0E00
0E00
ENDCHAR
STARTCHAR uni1E6C
ENCODING 7788
SWIDTH 600 0
DWIDTH 14 0
BBX 12 21 1 -5
BITMAP
FFF0
FFF0
0600
0600
0600
0600
0600
0600
0600
0600
0600
0600
0600
0600
0600
0600
0000
0000
0600
0700
0600
ENDCHAR
STARTCHAR uni1E6D
ENCODING 7789
SWIDTH 600 0
DWIDTH 14 0
BBX 11 21 2 -5
BITMAP
1800
1800
1800
1800
FFE0
FFE0
1800
1800
1800
1800
1800
1800
1800
1C20
0FE0
07C0
0000
0000
0300
0780
0300
ENDCHAR
STARTCHAR uni1E6E
ENCODING 7790
SWIDTH 600 0
DWIDTH 14 0
BBX 12 19 1 -3
BITMAP
FFF0
FFF0
0600
0600
0600
0600
0600
0600
0600
0600
0600
0600
0600
0600
0600
0600
0000
0000
1F80
ENDCHAR
STARTCHAR uni1E6F
ENCODING 7791
SWIDTH 600 0
DWIDTH 14 0
BBX 11 19 2 -3
BITMAP
1800
1800
1800
1800
FFE0
FFE0
1800
1800
1800
1800
1800
1800
1800
1C20
0FE0
07C0
0000
0000
0FC0
ENDCHAR
STARTCHAR uni1E7E
ENCODING 7806
SWIDTH 600 0
DWIDTH 14 0
BBX 12 21 1 -5
BITMAP
C030
E030
6030
6060
6060
3060
30C0
30C0
18C0
1880
1980
0980
0D00
0F00
0700
0700
0000
0000
0600
0700
0600
ENDCHAR
STARTCHAR uni1E7F
ENCODING 7807
SWIDTH 600 0
DWIDTH 14 0
BBX 12 17 1 -5
BITMAP
C030
6030
6060
3060
30C0
30C0
18C0
1980
0D80
0D00
0700
0700
0000
0000
0600
0700
0600
ENDCHAR
STARTCHAR Wgrave
ENCODING 7808
SWIDTH 600 0
DWIDTH 14 0
BBX 14 21 0 0
BITMAP
0400
0E00
0300
0180
0000
E00C
E00C
600C
600C
631C
6398
6398
6798
2698
36D8
34D8
3CD8
3C50
3C50
3870
1870
ENDCHAR
STARTCHAR wgrave
ENCODING 7809
SWIDTH 600 0
DWIDTH 14 0
BBX 14 19 0 0
BITMAP
0400
0E00
0600
0300
0180
0000
0000
C00C
430C
638C
6388
6798
6698
26D8
34D8
3CD0
3C50
3C70
1870
ENDCHAR
STARTCHAR Wacute
ENCODING 7810
SWIDTH 600 0
DWIDTH 14 0
BBX 14 21 0 0
BITMAP
0080
01C0
0380
0200
0000
E00C
E00C
600C
600C
631C
6398
6398
6798
2698
36D8
34D8
3CD8
3C50
3C50
3870
1870
ENDCHAR
STARTCHAR wacute
ENCODING 7811
SWIDTH 600 0
DWIDTH 14 0
BBX 14 19 0 0
BITMAP
0040
00C0
0180
0300
0200
0000
0000
C00C
430C
638C
6388
6798
6698
26D8
34D8
3CD0
3C50
3C70
1870
ENDCHAR
STARTCHAR Wdieresis
ENCODING 7812
SWIDTH 600 0
DWIDTH 14 0
BBX 14 19 0 0
BITMAP
0CC0
0CE0
0000
E00C
E00C
600C
600C
631C
6398
6398
6798
2698
36D8
34D8
3CD8
3C50
3C50
3870
1870
ENDCHAR
STARTCHAR wdieresis
ENCODING 7813
SWIDTH 600 0
DWIDTH 14 0
BBX 14 17 0 0
BITMAP
0C40
0CE0
0C60
0000
0000
C00C
430C
638C
6388
6798
6698
26D8
34D8
3CD0
3C50
3C70
1870
ENDCHAR
STARTCHAR uni1E8E
ENCODING 7822
SWIDTH 600 0
DWIDTH 14 0
BBX 12 20 1 0
BITMAP
0600
0700
0600
0000
C030
6030
6060
3060
30C0
18C0
1980
0D80
0F00
0700
0600
0600
0600
0600
0600
0600
ENDCHAR
STARTCHAR uni1E8F
ENCODING 7823
SWIDTH 600 0
DWIDTH 14 0
BBX 12 22 1 -5
BITMAP
0600
0700
0700
0000
0000
C030
6030
6060
3060
3040
18C0
18C0
0980
0D80
0D00
0700
0700
0600
0600
0C00
7C00
7000
ENDCHAR
STARTCHAR uni1E90
ENCODING 7824
SWIDTH 600 0
DWIDTH 14 0
BBX 11 20 2 0
BITMAP
0E00
1B00
3080
0000
FFE0
FFE0
00C0
0180
0180
0300
0600
0E00
0C00
1800
3800
3000
6000
C000
FFE0
FFE0
ENDCHAR
STARTCHAR uni1E91
ENCODING 7825
SWIDTH 600 0
DWIDTH 14 0
BBX 11 18 2 0
BITMAP
0E00
1F00
1180
2080
0000
0000
7FE0
7FC0
01C0
0380
0700
0E00
1C00
1800
3000
6000
FFE0
FFE0
ENDCHAR
STARTCHAR uni1E92
ENCODING 7826
SWIDTH 600 0
DWIDTH 14 0
BBX 11 21 2 -5
BITMAP
FFE0
FFE0
00C0
0180
0180
0300
0600
0E00
0C00
1800
3800
3000
6000
C000
FFE0
FFE0
0000
0000
0E00
0E00
0E00
ENDCHAR
STARTCHAR uni1E93
ENCODING 7827
SWIDTH 600 0
DWIDTH 14 0
BBX 11 17 2 -5
BITMAP
7FE0
7FC0
01C0
0380
0700
0E00
1C00
1800
3000
6000
FFE0
FFE0
0000
0000
0E00
0E00
0E00
ENDCHAR
STARTCHAR uni1E94
ENCODING 7828
SWIDTH 600 0
DWIDTH 14 0
BBX 11 19 2 -3
BITMAP
FFE0
FFE0
00C0
0180
0180
0300
0600
0E00
0C00
1800
3800
3000
6000
C000
FFE0
FFE0
0000
0000
3F80
ENDCHAR
STARTCHAR uni1E95
ENCODING 7829
SWIDTH 600 0
DWIDTH 14 0
BBX 11 15 2 -3
BITMAP
7FE0
7FC0
01C0
0380
0700
0E00
1C00
1800
3000
6000
FFE0
FFE0
0000
0000
3F80
ENDCHAR
STARTCHAR uni1E96
ENCODING 7830
SWIDTH 600 0
DWIDTH 14 0
BBX 11 20 2 -3
BITMAP
C000
C000
C000
C000
C000
CF80
DFC0
F0C0
E0C0
C060
C060
C060
C060
C060
C060
C060
C060
0000
0000
3F80
ENDCHAR
STARTCHAR uni1E97
ENCODING 7831
SWIDTH 600 0
DWIDTH 14 0
BBX 11 20 2 0
BITMAP
6300
6700
6300
0000
1800
1800
1800
1800
FFE0
FFE0
1800
1800
1800
1800
1800
1800
1800
1C20
0FE0
07C0
ENDCHAR
STARTCHAR uni1E9E
ENCODING 7838
SWIDTH 600 0
DWIDTH 14 0
BBX 12 16 2 0
BITMAP
1F00
7F80
71C0
E0C0
C180
C300
C700
C7C0
C3E0
C0E0
C070
C030
C070
C860
DFE0
C780
ENDCHAR
STARTCHAR uni1EA0
ENCODING 7840
SWIDTH 600 0
DWIDTH 14 0
BBX 13 21 1 -5
BITMAP
0700
0700
0F00
0D00
0980
1980
1880
10C0
30C0
3FC0
3FE0
6060
6060
6030
C030
C030
0008
0000
0600
0700
0600
ENDCHAR
STARTCHAR uni1EA1
ENCODING 7841
SWIDTH 600 0
DWIDTH 14 0
BBX 10 17 2 -5
BITMAP
1F00
7F80
E1C0
00C0
07C0
3FC0
78C0
C0C0
C0C0
C1C0
7F40
3C40
0000
0000
0C00
0E00
0C00
ENDCHAR
STARTCHAR uni1EA2
ENCODING 7842
SWIDTH 600 0
DWIDTH 14 0
BBX 13 21 1 0
BITMAP
0600
0300
0300
0600
0000
0700
0700
0F00
0D00
0980
1980
1880
10C0
30C0
3FC0
3FE0
6060
6060
6030
C030
C038
ENDCHAR
STARTCHAR uni1EA3
ENCODING 7843
SWIDTH 600 0
DWIDTH 14 0
BBX 10 18 2 0
BITMAP
0E00
0300
0300
0600
0000
0000
1F00
7F80
E1C0
00C0
07C0
3FC0
78C0
C0C0
C0C0
C1C0
7F40
3C40
ENDCHAR
STARTCHAR uni1EA4
ENCODING 7844
SWIDTH 600 0
DWIDTH 14 0
BBX 13 21 1 0
BITMAP
0020
0770
0DC0
1880
0000
0700
0700
0F00
0D00
0980
1980
1880
10C0
30C0
3FC0
3FE0
6060
6060
6030
C030
C038
ENDCHAR
STARTCHAR uni1EA5
ENCODING 7845
SWIDTH 600 0
DWIDTH 14 0
BBX 11 19 2 0
BITMAP
0020
0060
0E40
1B80
3180
0000
0000
1F00
7F80
E1C0
00C0
07C0
3FC0
78C0
C0C0
C0C0
C1C0
7F40
3C40
ENDCHAR
STARTCHAR uni1EA6
ENCODING 7846
SWIDTH 600 0
DWIDTH 14 0
BBX 13 21 1 0
BITMAP
4000
2700
1D80
1880
0000
0700
0700
0F00
0D00
0980
1980
1880
10C0
30C0
3FC0
3FE0
6060
6060
6030
C030
C038
ENDCHAR
STARTCHAR uni1EA7
ENCODING 7847
SWIDTH 600 0
DWIDTH 14 0
BBX 10 19 2 0
BITMAP
8000
C000
6E00
3B00
1180
0000
0000
1F00
7F80
E1C0
00C0
07C0
3FC0
78C0
C0C0
C0C0
C1C0
7F40
3C40
ENDCHAR
STARTCHAR uni1EA8
ENCODING 7848
SWIDTH 600 0
DWIDTH 14 0
BBX 13 22 1 0
BITMAP
00C0
0020
0720
0DC0
1880
0000
0700
0700
0F00
0D00
0980
1980
1880
10C0
30C0
3FC0
3FE0
6060
6060
6030
C030
C038
ENDCHAR
STARTCHAR uni1EA9
ENCODING 7849
SWIDTH 600 0
DWIDTH 14 0
BBX 11 19 2 0
BITMAP
00C0
0060
0E60
1BC0
3180
0000
0000
1F00
7F80
E1C0
00C0
07C0
3FC0
78C0
C0C0
C0C0
C1C0
7F40
3C40
ENDCHAR
STARTCHAR uni1EAA
ENCODING 7850
SWIDTH 600 0
DWIDTH 14 0
BBX 13 22 1 0
BITMAP
1CC0
1380
0700
0D80
1880
0000
0700
0700
0F00
0D00
0980
1980
1880
10C0
30C0
3FC0
3FE0
6060
6060
6030
C030
C038
ENDCHAR
STARTCHAR uni1EAB
ENCODING 7851
SWIDTH 600 0
DWIDTH 14 0
BBX 10 19 2 0
BITMAP
1C80
3700
0E00
1B00
3180
0000
0000
1F00
7F80
E1C0
00C0
07C0
3FC0
78C0
C0C0
C0C0
C1C0
7F40
3C40
ENDCHAR
STARTCHAR uni1EAC
ENCODING 7852
SWIDTH 600 0
DWIDTH 14 0
BBX 13 25 1 -5
BITMAP
0700
0D80
10C0
0000
0700
0700
0F00
0D00
0980
1980
1880
10C0
30C0
3FC0
3FE0
6060
6060
6030
C030
C030
0008
0000
0600
0700
0600
ENDCHAR
STARTCHAR uni1EAD
ENCODING 7853
SWIDTH 600 0
DWIDTH 14 0
BBX 10 23 2 -5
BITMAP
0E00
1F00
1180
2080
0000
0000
1F00
7F80
E1C0
00C0
07C0
3FC0
78C0
C0C0
C0C0
C1C0
7F40
3C40
0000
0000
0C00
0E00
0C00
ENDCHAR
STARTCHAR uni1EAE
ENCODING 7854
SWIDTH 600 0
DWIDTH 14 0
BBX 13 22 1 0
BITMAP
0100
0380
16C0
1880
0F00
0000
0700
0700
0F00
0D00
0980
1980
1880
10C0
30C0
3FC0
3FE0
6060
6060
6030
C030
C038
ENDCHAR
STARTCHAR uni1EAF
ENCODING 7855
SWIDTH 600 0
DWIDTH 14 0
BBX 10 20 2 0
BITMAP
0200
0300
0600
2480
3180
1F00
0000
0000
1F00
7F80
E1C0
00C0
07C0
3FC0
78C0
C0C0
C0C0
C1C0
7F40
3C40
ENDCHAR
STARTCHAR uni1EB0
ENCODING 7856
SWIDTH 600 0
DWIDTH 14 0
BBX 13 22 1 0
BITMAP
0800
0C00
12C0
1880
0F00
0000
0700
0700
0F00
0D00
0980
1980
1880
10C0
30C0
3FC0
3FE0
6060
6060
6030
C030
C038
ENDCHAR
STARTCHAR uni1EB1
ENCODING 7857
SWIDTH 600 0
DWIDTH 14 0
BBX 10 20 2 0
BITMAP
0800
1C00
0400
2680
3180
1F00
0000
0000
1F00
7F80
E1C0
00C0
07C0
3FC0
78C0
C0C0
C0C0
C1C0
7F40
3C40
ENDCHAR
STARTCHAR uni1EB2
ENCODING 7858
SWIDTH 600 0
DWIDTH 14 0
BBX 13 23 1 0
BITMAP
0600
0300
0300
16C0
1880
0F00
0000
0700
0700
0F00
0D00
0980
1980
1880
10C0
30C0
3FC0
3FE0
6060
6060
6030
C030
C038
ENDCHAR
STARTCHAR uni1EB3
ENCODING 7859
SWIDTH 600 0
DWIDTH 14 0
BBX 10 20 2 0
BITMAP
0E00
0200
0200
2680
3180
1F00
0000
0000
1F00
7F80
E1C0
00C0
07C0
3FC0
78C0
C0C0
C0C0
C1C0
7F40
3C40
ENDCHAR
STARTCHAR uni1EB4
ENCODING 7860
SWIDTH 600 0
DWIDTH 14 0
BBX 13 22 1 0
BITMAP
1CC0
1380
0000
10C0
0F00
0000
0700
0700
0F00
0D00
0980
1980
1880
10C0
30C0
3FC0
3FE0
6060
6060
6030
C030
C038
ENDCHAR
STARTCHAR uni1EB5
ENCODING 7861
SWIDTH 600 0
DWIDTH 14 0
BBX 10 19 2 0
BITMAP
1C80
3780
0000
3080
1F00
0000
0000
1F00
7F80
E1C0
00C0
07C0
3FC0
78C0
C0C0
C0C0
C1C0
7F40
3C40
ENDCHAR
STARTCHAR uni1EB6
ENCODING 7862
SWIDTH 600 0
DWIDTH 14 0
BBX 13 25 1 -5
BITMAP
10C0
1880
0F00
0000
0700
0700
0F00
0D00
0980
1980
1880
10C0
30C0
3FC0
3FE0
6060
6060
6030
C030
C030
0008
0000
0600
0700
0600
ENDCHAR
STARTCHAR uni1EB7
ENCODING 7863
SWIDTH 600 0
DWIDTH 14 0
BBX 10 22 2 -5
BITMAP
2080
3180
1F00
0000
0000
1F00
7F80
E1C0
00C0
07C0
3FC0
78C0
C0C0
C0C0
C1C0
7F40
3C40
0000
0000
0C00
0E00
0C00
ENDCHAR
STARTCHAR uni1EB8
ENCODING 7864
SWIDTH 600 0
DWIDTH 14 0
BBX 10 21 3 -5
BITMAP
FF80
FF80
C000
C000
C000
C000
FF00
FF00
C000
C000
C000
C000
C000
C000
FFC0
FFC0
0000
0000
0C00
1E00
0C00
ENDCHAR
STARTCHAR uni1EB9
ENCODING 7865
SWIDTH 600 0
DWIDTH 14 0
BBX 11 17 2 -5
BITMAP
1F00
3F80
70C0
C060
C060
FFE0
FFE0
C000
C000
7040
3FC0
1F00
0000
0000
0E00
0E00
0E00
ENDCHAR
STARTCHAR uni1EBA
ENCODING 7866
SWIDTH 600 0
DWIDTH 14 0
BBX 10 21 3 0
BITMAP
1C00
0600
0600
0C00
0000
FF80
FF80
C000
C000
C000
C000
FF00
FF00
C000
C000
C000
C000
C000
C000
FFC0
FFC0
ENDCHAR
STARTCHAR uni1EBB
ENCODING 7867
SWIDTH 600 0
DWIDTH 14 0
BBX 11 18 2 0
BITMAP
0C00
0200
0300
0400
0000
0000
1F00
3F80
70C0
C060
C060
FFE0
FFE0
C000
C000
7040
3FC0
1F00
ENDCHAR
STARTCHAR uni1EBC
ENCODING 7868
SWIDTH 600 0
DWIDTH 14 0
BBX 10 20 3 0
BITMAP
3880
4D80
4700
0000
FF80
FF80
C000
C000
C000
C000
FF00
FF00
C000
C000
C000
C000
C000
C000
FFC0
FFC0
ENDCHAR
STARTCHAR uni1EBD
ENCODING 7869
SWIDTH 600 0
DWIDTH 14 0
BBX 11 17 2 0
BITMAP
1000
3CC0
6380
0000
0000
1F00
3F80
70C0
C060
C060
FFE0
FFE0
C000
C000
7040
3FC0
1F00
ENDCHAR
STARTCHAR uni1EBE
ENCODING 7870
SWIDTH 600 0
DWIDTH 14 0
BBX 10 21 3 0
BITMAP
0040
0CC0
1F00
2100
0000
FF80
FF80
C000
C000
C000
C000
FF00
FF00
C000
C000
C000
C000
C000
C000
FFC0
FFC0
ENDCHAR
STARTCHAR uni1EBF
ENCODING 7871
SWIDTH 600 0
DWIDTH 14 0
BBX 11 19 2 0
BITMAP
0020
0060
0EC0
1B80
3180
0000
0000
1F00
3F80
70C0
C060
C060
FFE0
FFE0
C000
C000
7040
3FC0
1F00
ENDCHAR
STARTCHAR uni1EC0
ENCODING 7872
SWIDTH 600 0
DWIDTH 14 0
BBX 10 21 3 0
BITMAP
8000
CC00
3E00
2100
0000
FF80
FF80
C000
C000
C000
C000
FF00
FF00
C000
C000
C000
C000
C000
C000
FFC0
FFC0
ENDCHAR
STARTCHAR uni1EC1
ENCODING 7873
SWIDTH 600 0
DWIDTH 14 0
BBX 11 19 2 0
BITMAP
8000
C000
6E00
3B00
1180
0000
0000
1F00
3F80
70C0
C060
C060
FFE0
FFE0
C000
C000
7040
3FC0
1F00
ENDCHAR
STARTCHAR uni1EC2
ENCODING 7874
SWIDTH 600 0
DWIDTH 14 0
BBX 10 22 3 0
BITMAP
0180
00C0
0CC0
1F80
2100
0000
FF80
FF80
C000
C000
C000
C000
FF00
FF00
C000
C000
C000
C000
C000
C000
FFC0
FFC0
ENDCHAR
STARTCHAR uni1EC3
ENCODING 7875
SWIDTH 600 0
DWIDTH 14 0
BBX 11 19 2 0
BITMAP
00C0
0060
0E60
1BC0
3180
0000
0000
1F00
3F80
70C0
C060
C060
FFE0
FFE0
C000
C000
7040
3FC0
1F00
ENDCHAR
STARTCHAR uni1EC4
ENCODING 7876
SWIDTH 600 0
DWIDTH 14 0
BBX 10 22 3 0
BITMAP
3900
6700
0C00
1E00
2100
0000
FF80
FF80
C000
C000
C000
C000
FF00
FF00
C000
C000
C000
C000
C000
C000
FFC0
FFC0
ENDCHAR
STARTCHAR uni1EC5
ENCODING 7877
SWIDTH 600 0
DWIDTH 14 0
BBX 11 19 2 0
BITMAP
1880
3700
0E00
1B00
3180
0000
0000
1F00
3F80
70C0
C060
C060
FFE0
FFE0
C000
C000
7040
3FC0
1F00
ENDCHAR
STARTCHAR uni1EC6
ENCODING 7878
SWIDTH 600 0
DWIDTH 14 0
BBX 10 25 3 -5
BITMAP
1E00
3300
6180
0000
FF80
FF80
C000
C000
C000
C000
FF00
FF00
C000
C000
C000
C000
C000
C000
FFC0
FFC0
0000
0000
0C00
1E00
0C00
ENDCHAR
STARTCHAR uni1EC7
ENCODING 7879
SWIDTH 600 0
DWIDTH 14 0
BBX 11 23 2 -5
BITMAP
0E00
1B00
3180
2080
0000
0000
1F00
3F80
70C0
C060
C060
FFE0
FFE0
C000
C000
7040
3FC0
1F00
0000
0000
0E00
0E00
0E00
ENDCHAR
STARTCHAR uni1EC8
ENCODING 7880
SWIDTH 600 0
DWIDTH 14 0
BBX 10 21 2 0
BITMAP
0C00
0600
0600
0C00
0000
FFC0
FFC0
0C00
0C00
0C00
0C00
0C00
0C00
0C00
0C00
0C00
0C00
0C00
0C00
FFC0
FFC0
ENDCHAR
STARTCHAR uni1EC9
ENCODING 7881
SWIDTH 600 0
DWIDTH 14 0
BBX 8 18 2 0
BITMAP
06
03
03
06
00
00
FF
FF
03
03
03
03
03
03
03
03
03
03
ENDCHAR
STARTCHAR uni1ECA
ENCODING 7882
SWIDTH 600 0
DWIDTH 14 0
BBX 10 21 2 -5
BITMAP
FFC0
FFC0
0C00
0C00
0C00
0C00
0C00
0C00
0C00
0C00
0C00
0C00
0C00
0C00
FFC0
FFC0
0000
0000
0C00
0E00
0C00
ENDCHAR
STARTCHAR uni1ECB
ENCODING 7883
SWIDTH 600 0
DWIDTH 14 0
BBX 8 22 2 -5
BITMAP
07
07
07
00
00
FF
FF
03
03
03
03
03
03
03
03
03
03
00
00
07
07
07
ENDCHAR
STARTCHAR uni1ECC
ENCODING 7884
SWIDTH 600 0
DWIDTH 14 0
BBX 12 21 1 -5
BITMAP
0F80
3FC0
30E0
6060
6030
E030
C030
C030
C030
C030
E030
6030
6060
30E0
3FC0
0F80
0000
0000
0600
0700
0600
ENDCHAR
STARTCHAR uni1ECD
ENCODING 7885
SWIDTH 600 0
DWIDTH 14 0
BBX 12 17 1 -5
BITMAP
0F80
3FC0
70E0
6060
6030
E030
E030
6030
6070
70E0
3FC0
0F80
0000
0000
0600
0700
0600
ENDCHAR
STARTCHAR uni1ECE
ENCODING 7886
SWIDTH 600 0
DWIDTH 14 0
BBX 12 21 1 0
BITMAP
0600
0300
0300
0600
0000
0F80
3FC0
30E0
6060
6030
E030
C030
C030
C030
C030
E030
6030
6060
30E0
3FC0
0F80
ENDCHAR
STARTCHAR uni1ECF
ENCODING 7887
SWIDTH 600 0
DWIDTH 14 0
BBX 12 18 1 0
BITMAP
0600
0300
0300
0600
0000
0000
0F80
3FC0
70E0
6060
6030
E030
E030
6030
6070
70E0
3FC0
0F80
ENDCHAR
STARTCHAR uni1ED0
ENCODING 7888
SWIDTH 600 0
DWIDTH 14 0
BBX 12 21 1 0
BITMAP
0020
0770
0DC0
1880
0000
0F80
3FC0
30E0
6060
6030
E030
C030
C030
C030
C030
E030
6030
6060
30E0
3FC0
0F80
ENDCHAR
STARTCHAR uni1ED1
ENCODING 7889
SWIDTH 600 0
DWIDTH 14 0
BBX 12 19 1 0
BITMAP
0020
0030
0760
0DC0
1080
0000
0000
0F80
3FC0
70E0
6060
6030
E030
E030
6030
6070
70E0
3FC0
0F80
ENDCHAR
STARTCHAR uni1ED2
ENCODING 7890
SWIDTH 600 0
DWIDTH 14 0
BBX 12 21 1 0
BITMAP
4000
2700
1D80
1880
0000
0F80
3FC0
30E0
6060
6030
E030
C030
C030
C030
C030
E030
6030
6060
30E0
3FC0
0F80
ENDCHAR
STARTCHAR uni1ED3
ENCODING 7891
SWIDTH 600 0
DWIDTH 14 0
BBX 12 19 1 0
BITMAP
4000
E000
2700
3D80
1080
0000
0000
0F80
3FC0
70E0
6060
6030
E030
E030
6030
6070
70E0
3FC0
0F80
ENDCHAR
STARTCHAR uni1ED4
ENCODING 7892
SWIDTH 600 0
DWIDTH 14 0
BBX 12 22 1 0
BITMAP
00C0
0020
0720
0DC0
1880
0000
0F80
3FC0
30E0
6060
6030
E030
C030
C030
C030
C030
E030
6030
6060
30E0
3FC0
0F80
ENDCHAR
STARTCHAR uni1ED5
ENCODING 7893
SWIDTH 600 0
DWIDTH 14 0
BBX 12 19 1 0
BITMAP
00C0
0020
0720
0DC0
1080
0000
0000
0F80
3FC0
70E0
6060
6030
E030
E030
6030
6070
70E0
3FC0
0F80
ENDCHAR
STARTCHAR uni1ED6
ENCODING 7894
SWIDTH 600 0
DWIDTH 14 0
BBX 12 22 1 0
BITMAP
1CC0
1380
0700
0D80
1880
0000
0F80
3FC0
30E0
6060
6030
E030
C030
C030
C030
C030
E030
6030
6060
30E0
3FC0
0F80
ENDCHAR
STARTCHAR uni1ED7
ENCODING 7895
SWIDTH 600 0
DWIDTH 14 0
BBX 12 19 1 0
BITMAP
0C80
1380
0700
0D80
1080
0000
0000
0F80
3FC0
70E0
6060
6030
E030
E030
6030
6070
70E0
3FC0
0F80
ENDCHAR
STARTCHAR uni1ED8
ENCODING 7896
SWIDTH 600 0
DWIDTH 14 0
BBX 12 25 1 -5
BITMAP
0700
0D80
10C0
0000
0F80
3FC0
30E0
6060
6030
E030
C030
C030
C030
C030
E030
6030
6060
30E0
3FC0
0F80
0000
0000
0600
0700
0600
ENDCHAR
STARTCHAR uni1ED9
ENCODING 7897
SWIDTH 600 0
DWIDTH 14 0
BBX 12 23 1 -5
BITMAP
0700
0F00
1980
3040
0000
0000
0F80
3FC0
70E0
6060
6030
E030
E030
6030
6070
70E0
3FC0
0F80
0000
0000
0600
0700
0600
ENDCHAR
STARTCHAR uni1EDA
ENCODING 7898
SWIDTH 600 0
DWIDTH 14 0
BBX 12 21 1 0
BITMAP
0100
0380
0710
0430
0010
0FF0
3FE0
30E0
6060
6030
E030
C030
C030
C030
C030
E030
6030
6060
30E0
3FC0
0F80
ENDCHAR
STARTCHAR uni1EDB
ENCODING 7899
SWIDTH 600 0
DWIDTH 14 0
BBX 12 19 1 0
BITMAP
0080
0180
0300
0610
0430
0010
0030
0FF0
3FC0
70E0
6060
6030
E030
E030
6030
6070
70E0
3FC0
0F80
ENDCHAR
STARTCHAR uni1EDC
ENCODING 7900
SWIDTH 600 0
DWIDTH 14 0
BBX 12 21 1 0
BITMAP
0800
1C00
0610
0330
0010
0FF0
3FE0
30E0
6060
6030
E030
C030
C030
C030
C030
E030
6030
6060
30E0
3FC0
0F80
ENDCHAR
STARTCHAR uni1EDD
ENCODING 7901
SWIDTH 600 0
DWIDTH 14 0
BBX 12 19 1 0
BITMAP
0800
1C00
0C00
0610
0330
0010
0030
0FF0
3FC0
70E0
6060
6030
E030
E030
6030
6070
70E0
3FC0
0F80
ENDCHAR
STARTCHAR uni1EDE
ENCODING 7902
SWIDTH 600 0
DWIDTH 14 0
BBX 12 21 1 0
BITMAP
0600
0300
0310
0630
0010
0FF0
3FE0
30E0
6060
6030
E030
C030
C030
C030
C030
E030
6030
6060
30E0
3FC0
0F80
ENDCHAR
STARTCHAR uni1EDF
ENCODING 7903
SWIDTH 600 0
DWIDTH 14 0
BBX 12 18 1 0
BITMAP
0600
0300
0310
0630
0010
0030
0FF0
3FC0
70E0
6060
6030
E030
E030
6030
6070
70E0
3FC0
0F80
ENDCHAR
STARTCHAR uni1EE0
ENCODING 7904
SWIDTH 600 0
DWIDTH 14 0
BBX 12 20 1 0
BITMAP
3840
26D0
63B0
0010
0FF0
3FE0
30E0
6060
6030
E030
C030
C030
C030
C030
E030
6030
6060
30E0
3FC0
0F80
ENDCHAR
STARTCHAR uni1EE1
ENCODING 7905
SWIDTH 600 0
DWIDTH 14 0
BBX 12 17 1 0
BITMAP
1000
3CD0
23B0
0010
0030
0FF0
3FC0
70E0
6060
6030
E030
E030
6030
6070
70E0
3FC0
0F80
ENDCHAR
STARTCHAR uni1EE2
ENCODING 7906
SWIDTH 600 0
DWIDTH 14 0
BBX 12 24 1 -5
BITMAP
0010
0030
0010
0FF0
3FE0
30E0
6060
6030
E030
C030
C030
C030
C030
E030
6030
6060
30E0
3FC0
0F80
0000
0000
0600
0700
0600
ENDCHAR
STARTCHAR uni1EE3
ENCODING 7907
SWIDTH 600 0
DWIDTH 14 0
BBX 12 21 1 -5
BITMAP
0010
0030
0010
0030
0FF0
3FC0
70E0
6060
6030
E030
E030
6030
6070
70E0
3FC0
0F80
0000
0000
0600
0700
0600
ENDCHAR
STARTCHAR uni1EE4
ENCODING 7908
SWIDTH 600 0
DWIDTH 14 0
BBX 11 21 2 -5
BITMAP
C060
C060
C060
C060
C060
C060
C060
C060
C060
C060
C040
C0C0
E0C0
61C0
7F80
1F00
0000
0000
0C00
0E00
0C00
ENDCHAR
STARTCHAR uni1EE5
ENCODING 7909
SWIDTH 600 0
DWIDTH 14 0
BBX 10 17 2 -5
BITMAP
C0C0
C0C0
C0C0
C0C0
C0C0
C0C0
C0C0
C0C0
C1C0
E3C0
7EC0
3CC0
0000
0000
0E00
0E00
0E00
ENDCHAR
STARTCHAR uni1EE6
ENCODING 7910
SWIDTH 600 0
DWIDTH 14 0
BBX 11 21 2 0
BITMAP
0C00
0600
0600
0C00
0000
C060
C060
C060
C060
C060
C060
C060
C060
C060
C060
C040
C0C0
E0C0
61C0
7F80
1F00
ENDCHAR
STARTCHAR uni1EE7
ENCODING 7911
SWIDTH 600 0
DWIDTH 14 0
BBX 10 18 2 0
BITMAP
0C00
1600
0600
0C00
0000
0000
C0C0
C0C0
C0C0
C0C0
C0C0
C0C0
C0C0
C0C0
C1C0
E3C0
7EC0
3CC0
ENDCHAR
STARTCHAR uni1EE8
ENCODING 7912
SWIDTH 600 0
DWIDTH 14 0
BBX 13 21 2 0
BITMAP
0200
0718
0E18
0818
0018
C070
C060
C060
C060
C060
C060
C060
C060
C060
C060
C040
C0C0
E0C0
61C0
7F80
1F00
ENDCHAR
STARTCHAR uni1EE9
ENCODING 7913
SWIDTH 600 0
DWIDTH 14 0
BBX 12 19 2 0
BITMAP
0100
0300
0600
0C10
0830
0010
0030
C0E0
C0C0
C0C0
C0C0
C0C0
C0C0
C0C0
C0C0
C1C0
E3C0
7EC0
3CC0
ENDCHAR
STARTCHAR uni1EEA
ENCODING 7914
SWIDTH 600 0
DWIDTH 14 0
BBX 13 21 2 0
BITMAP
1000
3818
0C18
0618
0018
C070
C060
C060
C060
C060
C060
C060
C060
C060
C060
C040
C0C0
E0C0
61C0
7F80
1F00
ENDCHAR
STARTCHAR uni1EEB
ENCODING 7915
SWIDTH 600 0
DWIDTH 14 0
BBX 12 19 2 0
BITMAP
1000
3800
1800
0C10
0630
0010
0030
C0E0
C0C0
C0C0
C0C0
C0C0
C0C0
C0C0
C0C0
C1C0
E3C0
7EC0
3CC0
ENDCHAR
STARTCHAR uni1EEC
ENCODING 7916
SWIDTH 600 0
DWIDTH 14 0
BBX 13 21 2 0
BITMAP
0C00
0618
0618
0C18
0018
C070
C060
C060
C060
C060
C060
C060
C060
C060
C060
C040
C0C0
E0C0
61C0
7F80
1F00
ENDCHAR
STARTCHAR uni1EED
ENCODING 7917
SWIDTH 600 0
DWIDTH 14 0
BBX 12 18 2 0
BITMAP
0C00
1600
0610
0C30
0010
0030
C0E0
C0C0
C0C0
C0C0
C0C0
C0C0
C0C0
C0C0
C1C0
E3C0
7EC0
3CC0
ENDCHAR
STARTCHAR uni1EEE
ENCODING 7918
SWIDTH 600 0
DWIDTH 14 0
BBX 13 20 2 0
BITMAP
3898
6C98
4318
0018
C070
C060
C060
C060
C060
C060
C060
C060
C060
C060
C040
C0C0
E0C0
61C0
7F80
1F00
ENDCHAR
STARTCHAR uni1EEF
ENCODING 7919
SWIDTH 600 0
DWIDTH 14 0
BBX 12 17 2 0
BITMAP
3000
7D90
4730
0010
0030
C0E0
C0C0
C0C0
C0C0
C0C0
C0C0
C0C0
C0C0
C1C0
E3C0
7EC0
3CC0
ENDCHAR
STARTCHAR uni1EF0
ENCODING 7920
SWIDTH 600 0
DWIDTH 14 0
BBX 13 25 2 -5
BITMAP
0018
0018
0018
0018
C070
C060
C060
C060
C060
C060
C060
C060
C060
C060
C040
C0C0
E0C0
61C0
7F80
1F00
0000
0000
0C00
0E00
0C00
ENDCHAR
STARTCHAR uni1EF1
ENCODING 7921
SWIDTH 600 0
DWIDTH 14 0
BBX 12 21 2 -5
BITMAP
0010
0030
0010
0030
C0E0
C0C0
C0C0
C0C0
C0C0
C0C0
C0C0
C0C0
C1C0
E3C0
7EC0
3CC0
0000
0000
0E00
0E00
0E00
ENDCHAR
STARTCHAR Ygrave
ENCODING 7922
SWIDTH 600 0
DWIDTH 14 0
BBX 12 21 1 0
BITMAP
0800
1C00
0600
0300
0000
C030
6030
6060
3060
30C0
18C0
1980
0D80
0F00
0700
0600
0600
0600
0600
0600
0600
ENDCHAR
STARTCHAR ygrave
ENCODING 7923
SWIDTH 600 0
DWIDTH 14 0
BBX 12 24 1 -5
BITMAP
0800
1C00
0E00
0600
0300
0000
0000
C030
6030
6060
3060
3040
18C0
18C0
0980
0D80
0D00
0700
0700
0600
0600
0C00
7C00
7000
ENDCHAR
STARTCHAR uni1EF4
ENCODING 7924
SWIDTH 600 0
DWIDTH 14 0
BBX 12 21 1 -5
BITMAP
C030
6030
6060
3060
30C0
18C0
1980
0D80
0F00
0700
0600
0600
0600
0600
0600
0600
0000
0000
0600
0700
0600
ENDCHAR
STARTCHAR uni1EF5
ENCODING 7925
SWIDTH 600 0
DWIDTH 14 0
BBX 12 17 1 -5
BITMAP
C030
6030
6060
3060
3040
18C0
18C0
0980
0D80
0D00
0700
0700
0600
0600
0C60
7CF0
7060
ENDCHAR
STARTCHAR uni1EF6
ENCODING 7926
SWIDTH 600 0
DWIDTH 14 0
BBX 12 21 1 0
BITMAP
0600
0300
0300
0600
0000
C030
6030
6060
3060
30C0
18C0
1980
0D80
0F00
0700
0600
0600
0600
0600
0600
0600
ENDCHAR
STARTCHAR uni1EF7
ENCODING 7927
SWIDTH 600 0
DWIDTH 14 0
BBX 12 23 1 -5
BITMAP
0600
0300
0300
0600
0000
0000
C030
6030
6060
3060
3040
18C0
18C0
0980
0D80
0D00
0700
0700
0600
0600
0C00
7C00
7000
ENDCHAR
STARTCHAR uni1EF8
ENCODING 7928
SWIDTH 600 0
DWIDTH 14 0
BBX 12 20 1 0
BITMAP
1C40
3640
2180
0000
C030
6030
6060
3060
30C0
18C0
1980
0D80
0F00
0700
0600
0600
0600
0600
0600
0600
ENDCHAR
STARTCHAR uni1EF9
ENCODING 7929
SWIDTH 600 0
DWIDTH 14 0
BBX 12 22 1 -5
BITMAP
0800
3640
33C0
0000
0000
C030
6030
6060
3060
3040
18C0
18C0
0980
0D80
0D00
0700
0700
0600
0600
0C00
7C00
7000
ENDCHAR
STARTCHAR uni1FBD
ENCODING 8125
SWIDTH 600 0
DWIDTH 14 0
BBX 3 4 6 14
BITMAP
C0
60
60
C0
ENDCHAR
STARTCHAR uni1FBE
ENCODING 8126
SWIDTH 600 0
DWIDTH 14 0
BBX 4 10 6 0
BITMAP
C0
C0
C0
C0
C0
C0
C0
C0
F0
70
ENDCHAR
STARTCHAR uni1FBF
ENCODING 8127
SWIDTH 600 0
DWIDTH 14 0
BBX 3 4 6 14
BITMAP
C0
60
60
C0
ENDCHAR
STARTCHAR uni1FC0
ENCODING 8128
SWIDTH 600 0
DWIDTH 14 0
BBX 8 3 3 14
BITMAP
20
D9
8E
ENDCHAR
STARTCHAR uni1FC1
ENCODING 8129
SWIDTH 600 0
DWIDTH 14 0
BBX 7 5 4 14
BITMAP
E2
9C
00
C4
CE
ENDCHAR
STARTCHAR uni1FCD
ENCODING 8141
SWIDTH 600 0
DWIDTH 14 0
BBX 7 4 3 14
BITMAP
EC
34
36
66
ENDCHAR
STARTCHAR uni1FCE
ENCODING 8142
SWIDTH 600 0
DWIDTH 14 0
BBX 7 4 3 14
BITMAP
E6
36
34
6C
ENDCHAR
STARTCHAR uni1FCF
ENCODING 8143
SWIDTH 600 0
DWIDTH 14 0
BBX 7 6 4 13
BITMAP
66
9C
00
30
18
30
ENDCHAR
STARTCHAR uni1FDD
ENCODING 8157
SWIDTH 600 0
DWIDTH 14 0
BBX 7 4 3 14
BITMAP
6C
D4
C4
66
ENDCHAR
STARTCHAR uni1FDE
ENCODING 8158
SWIDTH 600 0
DWIDTH 14 0
BBX 6 4 4 14
BITMAP
EC
8C
88
D8
ENDCHAR
STARTCHAR uni1FDF
ENCODING 8159
SWIDTH 600 0
DWIDTH 14 0
BBX 7 6 4 13
BITMAP
66
9C
00
38
20
30
ENDCHAR
STARTCHAR uni1FED
ENCODING 8173
SWIDTH 600 0
DWIDTH 14 0
BBX 8 5 3 14
BITMAP
10
10
18
4B
CB
ENDCHAR
STARTCHAR uni1FEE
ENCODING 8174
SWIDTH 600 0
DWIDTH 14 0
BBX 8 6 3 13
BITMAP
0C
0C
08
CB
FB
10
ENDCHAR
STARTCHAR uni1FEF
ENCODING 8175
SWIDTH 600 0
DWIDTH 14 0
BBX 3 5 5 13
BITMAP
C0
C0
60
60
60
ENDCHAR
STARTCHAR uni1FFD
ENCODING 8189
SWIDTH 600 0
DWIDTH 14 0
BBX 4 6 6 13
BITMAP
70
60
60
60
40
C0
ENDCHAR
STARTCHAR uni1FFE
ENCODING 8190
SWIDTH 600 0
DWIDTH 14 0
BBX 4 4 5 14
BITMAP
70
C0
C0
60
ENDCHAR
STARTCHAR uni2007
ENCODING 8199
SWIDTH 600 0
DWIDTH 14 0
BBX 1 1 0 0
BITMAP
00
ENDCHAR
STARTCHAR uni2010
ENCODING 8208
SWIDTH 600 0
DWIDTH 14 0
BBX 10 2 2 7
BITMAP
FFC0
FFC0
ENDCHAR
STARTCHAR figuredash
ENCODING 8210
SWIDTH 600 0
DWIDTH 14 0
BBX 10 2 2 5
BITMAP
FFC0
FFC0
ENDCHAR
STARTCHAR endash
ENCODING 8211
SWIDTH 600 0
DWIDTH 14 0
BBX 10 2 2 5
BITMAP
FFC0
FFC0
ENDCHAR
STARTCHAR emdash
ENCODING 8212
SWIDTH 600 0
DWIDTH 14 0
BBX 14 2 0 5
BITMAP
FFFC
FFFC
ENDCHAR
STARTCHAR uni2015
ENCODING 8213
SWIDTH 600 0
DWIDTH 14 0
BBX 14 2 0 5
BITMAP
FFFC
FFFC
ENDCHAR
STARTCHAR uni2016
ENCODING 8214
SWIDTH 600 0
DWIDTH 14 0
BBX 7 24 4 -6
BITMAP
C6
C6
C6
C6
C6
C6
C6
C6
C6
C6
C6
C6
C6
C6
C6
C6
C6
C6
C6
C6
C6
C6
C6
C6
ENDCHAR
STARTCHAR underscoredbl
ENCODING 8215
SWIDTH 600 0
DWIDTH 14 0
BBX 12 5 1 -6
BITMAP
FFF0
FFF0
0000
FFF0
FFF0
ENDCHAR
STARTCHAR quoteleft
ENCODING 8216
SWIDTH 600 0
DWIDTH 14 0
BBX 4 9 5 8
BITMAP
10
30
60
C0
C0
E0
F0
F0
60
ENDCHAR
STARTCHAR quoteright
ENCODING 8217
SWIDTH 600 0
DWIDTH 14 0
BBX 4 9 5 8
BITMAP
60
F0
F0
70
10
30
20
E0
80
ENDCHAR
STARTCHAR quotesinglbase
ENCODING 8218
SWIDTH 600 0
DWIDTH 14 0
BBX 4 9 5 -6
BITMAP
60
F0
F0
70
10
30
20
E0
80
ENDCHAR
STARTCHAR quotereversed
ENCODING 8219
SWIDTH 600 0
DWIDTH 14 0
BBX 4 9 5 8
BITMAP
60
F0
F0
F0
C0
C0
60
30
10
ENDCHAR
STARTCHAR quotedblleft
ENCODING 8220
SWIDTH 600 0
DWIDTH 14 0
BBX 10 9 2 8
BITMAP
1080
31C0
6100
4300
C200
F380
F3C0
73C0
7180
ENDCHAR
STARTCHAR quotedblright
ENCODING 8221
SWIDTH 600 0
DWIDTH 14 0
BBX 10 9 2 8
BITMAP
7180
73C0
7BC0
79C0
10C0
10C0
3180
6300
C200
ENDCHAR
STARTCHAR quotedblbase
ENCODING 8222
SWIDTH 600 0
DWIDTH 14 0
BBX 10 9 2 -6
BITMAP
7180
73C0
7BC0
79C0
10C0
10C0
3180
6300
C200
ENDCHAR
STARTCHAR dagger
ENCODING 8224
SWIDTH 600 0
DWIDTH 14 0
BBX 8 20 3 -2
BITMAP
18
18
18
18
FF
FF
18
18
18
18
18
18
18
18
18
18
18
18
18
18
ENDCHAR
STARTCHAR daggerdbl
ENCODING 8225
SWIDTH 600 0
DWIDTH 14 0
BBX 8 20 3 -2
BITMAP
18
18
18
18
FF
FF
18
18
18
18
18
18
18
18
FF
FF
18
18
18
18
ENDCHAR
STARTCHAR bullet
ENCODING 8226
SWIDTH 600 0
DWIDTH 14 0
BBX 7 7 4 3
BITMAP
78
FC
FE
FE
FE
FC
78
ENDCHAR
STARTCHAR ellipsis
ENCODING 8230
SWIDTH 600 0
DWIDTH 14 0
BBX 13 4 1 0
BITMAP
E630
E778
E778
E630
ENDCHAR
STARTCHAR uni202F
ENCODING 8239
SWIDTH 600 0
DWIDTH 14 0
BBX 1 1 0 0
BITMAP
00
ENDCHAR
STARTCHAR perthousand
ENCODING 8240
SWIDTH 600 0
DWIDTH 14 0
BBX 13 15 1 0
BITMAP
7800
F800
CC00
CC18
F8F0
7B80
0E00
3000
0000
78E0
F9F0
CD10
CD10
F9F0
78E0
ENDCHAR
STARTCHAR uni2032
ENCODING 8242
SWIDTH 600 0
DWIDTH 14 0
BBX 3 6 6 10
BITMAP
60
40
C0
C0
C0
C0
ENDCHAR
STARTCHAR uni2033
ENCODING 8243
SWIDTH 600 0
DWIDTH 14 0
BBX 7 6 4 10
BITMAP
66
C6
C4
CC
CC
CC
ENDCHAR
STARTCHAR uni2035
ENCODING 8245
SWIDTH 600 0
DWIDTH 14 0
BBX 2 6 6 10
BITMAP
C0
C0
C0
C0
40
40
ENDCHAR
STARTCHAR guilsinglleft
ENCODING 8249
SWIDTH 600 0
DWIDTH 14 0
BBX 4 10 5 1
BITMAP
10
30
60
C0
C0
C0
C0
60
30
10
ENDCHAR
STARTCHAR guilsinglright
ENCODING 8250
SWIDTH 600 0
DWIDTH 14 0
BBX 5 10 5 1
BITMAP
80
40
60
30
18
18
30
60
40
80
ENDCHAR
STARTCHAR exclamdbl
ENCODING 8252
SWIDTH 600 0
DWIDTH 14 0
BBX 10 16 2 0
BITMAP
6180
6180
6180
6180
6180
6180
6180
6180
6180
6180
0000
0000
6180
F3C0
F3C0
6180
ENDCHAR
STARTCHAR uni203D
ENCODING 8253
SWIDTH 600 0
DWIDTH 14 0
BBX 10 16 2 0
BITMAP
1E00
7F80
E180
80C0
0880
0980
0B00
0E00
0C00
0C00
0000
0000
0C00
1C00
1C00
0C00
ENDCHAR
STARTCHAR uni203E
ENCODING 8254
SWIDTH 600 0
DWIDTH 14 0
BBX 12 2 1 13
BITMAP
FFF0
FFF0
ENDCHAR
STARTCHAR uni203F
ENCODING 8255
SWIDTH 600 0
DWIDTH 14 0
BBX 22 5 -4 -6
BITMAP
800004
60001C
3E00F0
0FFFC0
01FE00
ENDCHAR
STARTCHAR fraction
ENCODING 8260
SWIDTH 600 0
DWIDTH 14 0
BBX 13 14 1 1
BITMAP
0010
0038
0060
0040
0080
0100
0000
0000
1000
1800
3000
6000
C000
8000
ENDCHAR
STARTCHAR uni2047
ENCODING 8263
SWIDTH 600 0
DWIDTH 14 0
BBX 14 16 0 0
BITMAP
3C70
7FF8
C79C
060C
0608
0C18
0830
1820
3060
3060
0000
0000
3860
38F0
3870
3860
ENDCHAR
STARTCHAR uni2048
ENCODING 8264
SWIDTH 600 0
DWIDTH 14 0
BBX 12 16 0 0
BITMAP
3C30
7E20
C620
0620
0620
0C20
0820
1820
3020
3020
0000
0000
3870
3870
3870
3870
ENDCHAR
STARTCHAR uni2049
ENCODING 8265
SWIDTH 600 0
DWIDTH 14 0
BBX 12 16 2 0
BITMAP
61C0
67E0
6670
6030
6020
6060
60C0
6080
6180
6180
0000
0000
6180
F3C0
F1C0
6180
ENDCHAR
STARTCHAR zero.sups
ENCODING 8304
SWIDTH 600 0
DWIDTH 14 0
BBX 8 11 3 9
BITMAP
3C
7E
63
43
C3
C1
C3
43
63
7E
3C
ENDCHAR
STARTCHAR i.sups
ENCODING 8305
SWIDTH 600 0
DWIDTH 14 0
BBX 5 13 4 8
BITMAP
18
18
00
00
F8
F8
08
08
08
08
08
08
08
ENDCHAR
STARTCHAR four.sups
ENCODING 8308
SWIDTH 600 0
DWIDTH 14 0
BBX 7 9 4 10
BITMAP
10
30
6C
4C
CC
FE
FE
0C
0C
ENDCHAR
STARTCHAR five.sups
ENCODING 8309
SWIDTH 600 0
DWIDTH 14 0
BBX 8 10 3 9
BITMAP
3E
3E
60
7C
7E
43
03
C3
7E
3C
ENDCHAR
STARTCHAR six.sups
ENCODING 8310
SWIDTH 600 0
DWIDTH 14 0
BBX 7 11 4 9
BITMAP
3C
7C
C4
80
B8
FC
C6
86
C6
7C
38
ENDCHAR
STARTCHAR seven.sups
ENCODING 8311
SWIDTH 600 0
DWIDTH 14 0
BBX 7 9 4 10
BITMAP
FE
FC
04
08
10
10
30
30
30
ENDCHAR
STARTCHAR eight.sups
ENCODING 8312
SWIDTH 600 0
DWIDTH 14 0
BBX 7 11 4 9
BITMAP
78
FC
C4
84
4C
38
CC
86
86
FC
78
ENDCHAR
STARTCHAR nine.sups
ENCODING 8313
SWIDTH 600 0
DWIDTH 14 0
BBX 8 11 3 9
BITMAP
3C
7E
46
C3
63
7F
3B
02
46
7E
38
ENDCHAR
STARTCHAR parenleft.sups
ENCODING 8317
SWIDTH 600 0
DWIDTH 14 0
BBX 3 13 6 8
BITMAP
20
60
C0
C0
80
80
80
80
80
C0
C0
60
20
ENDCHAR
STARTCHAR parenright.sups
ENCODING 8318
SWIDTH 600 0
DWIDTH 14 0
BBX 4 13 5 8
BITMAP
C0
40
60
20
30
30
30
30
30
20
60
40
C0
ENDCHAR
STARTCHAR n.sups
ENCODING 8319
SWIDTH 600 0
DWIDTH 14 0
BBX 7 9 4 8
BITMAP
DC
FE
E6
C6
C6
C6
C6
C6
C6
ENDCHAR
STARTCHAR zero.subs
ENCODING 8320
SWIDTH 600 0
DWIDTH 14 0
BBX 8 11 3 -5
BITMAP
3C
7E
63
43
C3
C1
C3
43
63
7E
3C
ENDCHAR
STARTCHAR one.subs
ENCODING 8321
SWIDTH 600 0
DWIDTH 14 0
BBX 7 10 4 -5
BITMAP
18
78
18
18
18
18
18
18
FE
FE
ENDCHAR
STARTCHAR two.subs
ENCODING 8322
SWIDTH 600 0
DWIDTH 14 0
BBX 8 11 3 -5
BITMAP
3C
7E
46
82
02
04
0C
18
30
7F
7F
ENDCHAR
STARTCHAR three.subs
ENCODING 8323
SWIDTH 600 0
DWIDTH 14 0
BBX 8 11 3 -5
BITMAP
3C
7E
46
02
06
1C
1E
03
C3
7E
3C
ENDCHAR
STARTCHAR four.subs
ENCODING 8324
SWIDTH 600 0
DWIDTH 14 0
BBX 7 9 4 -4
BITMAP
10
30
6C
4C
CC
FE
FE
0C
0C
ENDCHAR
STARTCHAR five.subs
ENCODING 8325
SWIDTH 600 0
DWIDTH 14 0
BBX 8 10 3 -5
BITMAP
3E
3E
60
7C
7E
43
03
C3
7E
3C
ENDCHAR
STARTCHAR six.subs
ENCODING 8326
SWIDTH 600 0
DWIDTH 14 0
BBX 7 11 4 -5
BITMAP
3C
7C
C4
80
B8
FC
C6
86
C6
7C
38
ENDCHAR
STARTCHAR seven.subs
ENCODING 8327
SWIDTH 600 0
DWIDTH 14 0
BBX 7 9 4 -4
BITMAP
FE
FC
04
08
10
10
30
30
30
ENDCHAR
STARTCHAR eight.subs
ENCODING 8328
SWIDTH 600 0
DWIDTH 14 0
BBX 7 11 4 -5
BITMAP
78
FC
C4
84
4C
38
CC
86
86
FC
78
ENDCHAR
STARTCHAR nine.subs
ENCODING 8329
SWIDTH 600 0
DWIDTH 14 0
BBX 8 11 3 -5
BITMAP
3C
7E
46
C3
63
7F
3B
02
46
7E
38
ENDCHAR
STARTCHAR parenleft.subs
ENCODING 8333
SWIDTH 600 0
DWIDTH 14 0
BBX 3 13 6 -6
BITMAP
20
60
C0
C0
80
80
80
80
80
C0
C0
60
20
ENDCHAR
STARTCHAR parenright.subs
ENCODING 8334
SWIDTH 600 0
DWIDTH 14 0
BBX 4 13 5 -6
BITMAP
C0
40
60
20
30
30
30
30
30
20
60
40
C0
ENDCHAR
STARTCHAR uni0259.sups
ENCODING 8340
SWIDTH 600 0
DWIDTH 14 0
BBX 8 8 3 9
BITMAP
3C
7E
43
FF
FF
43
7E
3C
ENDCHAR
STARTCHAR colonmonetary
ENCODING 8353
SWIDTH 600 0
DWIDTH 14 0
BBX 11 19 2 -2
BITMAP
0680
0680
0780
1FC0
34E0
6480
6580
E500
CD00
CD00
C900
E900
6900
6B00
3B60
1FC0
1F80
1A00
1200
ENDCHAR
STARTCHAR franc
ENCODING 8355
SWIDTH 600 0
DWIDTH 14 0
BBX 11 15 2 0
BITMAP
3FE0
3FE0
3000
3000
3000
3000
3FC0
3FC0
3000
3000
3000
FE00
FE00
3000
3000
ENDCHAR
STARTCHAR lira
ENCODING 8356
SWIDTH 600 0
DWIDTH 14 0
BBX 11 15 2 0
BITMAP
0F80
3FC0
3060
6000
2000
FF80
3000
1000
FF80
1800
1000
3000
6000
FFE0
FFE0
ENDCHAR
STARTCHAR uni20A6
ENCODING 8358
SWIDTH 600 0
DWIDTH 14 0
BBX 12 15 1 0
BITMAP
3060
3860
2860
2C60
2C60
FFF0
2660
2260
FFF0
2360
2160
21E0
20E0
20E0
20E0
ENDCHAR
STARTCHAR peseta
ENCODING 8359
SWIDTH 600 0
DWIDTH 14 0
BBX 13 15 1 0
BITMAP
3F00
3FC0
30C0
3060
3060
FFF8
FFF8
3060
3060
30C0
3FC0
3F00
3000
3000
3000
ENDCHAR
STARTCHAR uni20A9
ENCODING 8361
SWIDTH 600 0
DWIDTH 14 0
BBX 13 15 1 0
BITMAP
4030
4730
6730
6730
6720
6720
6D20
FFF8
2D60
2D60
29E0
39E0
39E0
39C0
39C0
ENDCHAR
STARTCHAR dong
ENCODING 8363
SWIDTH 600 0
DWIDTH 14 0
BBX 10 18 3 0
BITMAP
0100
0100
1FC0
1FC0
0100
0100
3D00
FF00
C300
8100
8100
C300
FF00
7D00
0000
0000
FF80
FF80
ENDCHAR
STARTCHAR Euro
ENCODING 8364
SWIDTH 600 0
DWIDTH 14 0
BBX 13 15 1 0
BITMAP
07C0
1FF0
1C30
3000
FFE0
FFE0
3000
3000
FFC0
FFC0
3000
3810
1C38
0FF0
07C0
ENDCHAR
STARTCHAR uni20AE
ENCODING 8366
SWIDTH 600 0
DWIDTH 14 0
BBX 12 15 1 0
BITMAP
FFF0
FFF0
0600
0600
0620
06C0
0700
1E20
77C0
0700
1E00
6600
0600
0600
0600
ENDCHAR
STARTCHAR uni20B1
ENCODING 8369
SWIDTH 600 0
DWIDTH 14 0
BBX 13 15 1 0
BITMAP
3F80
3FC0
30E0
FFF8
3060
FFF8
3060
30C0
3FC0
3F00
3000
3000
3000
3000
3000
ENDCHAR
STARTCHAR uni20B2
ENCODING 8370
SWIDTH 600 0
DWIDTH 14 0
BBX 11 19 2 -2
BITMAP
0600
0600
0F80
3FC0
70E0
6000
E000
C000
C000
C3E0
C3E0
C060
E060
6060
70E0
3FC0
0F80
0600
0600
ENDCHAR
STARTCHAR uni20B4
ENCODING 8372
SWIDTH 600 0
DWIDTH 14 0
BBX 12 15 1 0
BITMAP
0F00
1FC0
30C0
20C0
00C0
FFF0
0700
0E00
FFF0
3000
3000
3020
3860
1FC0
0F80
ENDCHAR
STARTCHAR uni20B5
ENCODING 8373
SWIDTH 600 0
DWIDTH 14 0
BBX 11 19 2 -2
BITMAP
0200
0200
0F80
1FC0
3A60
6200
6200
E200
C200
C200
C200
E200
6200
6240
3A60
3FC0
0F80
0200
0200
ENDCHAR
STARTCHAR uni20B8
ENCODING 8376
SWIDTH 600 0
DWIDTH 14 0
BBX 12 15 1 0
BITMAP
FFF0
FFF0
0000
0000
FFF0
FFF0
0600
0600
0600
0600
0600
0600
0600
0600
0600
ENDCHAR
STARTCHAR uni20B9
ENCODING 8377
SWIDTH 600 0
DWIDTH 14 0
BBX 10 15 3 0
BITMAP
FFC0
FFC0
0E00
0300
FFC0
FFC0
0700
FE00
FE00
3000
1800
0800
0400
0600
0380
ENDCHAR
STARTCHAR uni20BA
ENCODING 8378
SWIDTH 600 0
DWIDTH 14 0
BBX 12 15 1 0
BITMAP
1800
1800
1980
1F40
1C00
7980
9F40
1C00
7830
9830
1830
1860
19C0
1F80
1E00
ENDCHAR
STARTCHAR uni20BD
ENCODING 8381
SWIDTH 600 0
DWIDTH 14 0
BBX 12 15 1 0
BITMAP
1FC0
1FF0
1830
1810
1830
1870
FFF0
FFC0
1800
1800
FFE0
FFE0
1800
1800
1800
ENDCHAR
STARTCHAR uni2105
ENCODING 8453
SWIDTH 600 0
DWIDTH 14 0
BBX 13 15 1 0
BITMAP
7010
F838
C820
8040
C880
FD00
7000
00E0
01F0
1B18
3318
6318
C318
81F0
00E0
ENDCHAR
STARTCHAR uni2113
ENCODING 8467
SWIDTH 600 0
DWIDTH 14 0
BBX 9 17 3 0
BITMAP
0E00
1F00
3300
3100
3100
3100
3300
3200
3600
3C00
3800
3000
F000
3000
3900
1F80
0E00
ENDCHAR
STARTCHAR uni2116
ENCODING 8470
SWIDTH 600 0
DWIDTH 14 0
BBX 15 15 0 0
BITMAP
61B8
63BC
7364
7366
5366
5B64
5B3C
4B38
4B00
6F3C
6F3C
6500
6500
C700
C300
ENDCHAR
STARTCHAR uni2117
ENCODING 8471
SWIDTH 600 0
DWIDTH 14 0
BBX 13 15 1 0
BITMAP
0F80
3FC0
7060
4030
C010
8F98
8FD8
8F88
8F98
8810
C010
4030
7060
3FC0
0F80
ENDCHAR
STARTCHAR uni2120
ENCODING 8480
SWIDTH 600 0
DWIDTH 14 0
BBX 14 8 0 9
BITMAP
798C
798C
4DDC
2154
1954
4D64
FD24
3904
ENDCHAR
STARTCHAR trademark
ENCODING 8482
SWIDTH 600 0
DWIDTH 14 0
BBX 14 8 0 9
BITMAP
FD8C
FD8C
31DC
3154
3154
3164
3124
3104
ENDCHAR
STARTCHAR uni2126
ENCODING 8486
SWIDTH 600 0
DWIDTH 14 0
BBX 12 16 1 0
BITMAP
0F80
3FC0
70E0
6060
6030
C030
C030
C030
C030
C030
6030
6060
3060
30C0
F9F0
F9F0
ENDCHAR
STARTCHAR estimated
ENCODING 8494
SWIDTH 600 0
DWIDTH 14 0
BBX 13 16 1 0
BITMAP
1F00
20C0
6020
6020
E030
E030
E038
E038
FFF8
E000
E000
E000
6000
6030
2020
1FC0
ENDCHAR
STARTCHAR uni2150
ENCODING 8528
SWIDTH 600 0
DWIDTH 14 0
BBX 13 15 1 0
BITMAP
3010
7038
1060
1040
1080
1100
1000
01F8
11F8
1830
3020
6060
C040
8040
00C0
ENDCHAR
STARTCHAR uni2151
ENCODING 8529
SWIDTH 600 0
DWIDTH 14 0
BBX 13 15 1 0
BITMAP
3010
7038
1060
1040
1080
1100
1000
00E0
11F0
1910
3138
61F8
C1F0
81F0
01E0
ENDCHAR
STARTCHAR uni2152
ENCODING 8530
SWIDTH 600 0
DWIDTH 14 0
BBX 12 16 2 0
BITMAP
C000
E000
6000
2000
2030
21E0
2700
1C00
61C0
03E0
E220
E220
2220
2220
23E0
21C0
ENDCHAR
STARTCHAR onethird
ENCODING 8531
SWIDTH 600 0
DWIDTH 14 0
BBX 13 15 1 0
BITMAP
3010
7038
1060
1040
1080
1100
1000
00E0
11F0
1930
3030
6060
C110
81F0
00F0
ENDCHAR
STARTCHAR twothirds
ENCODING 8532
SWIDTH 600 0
DWIDTH 14 0
BBX 13 16 1 0
BITMAP
7800
F810
8838
0860
1040
6080
FD00
FC00
00E0
11F0
1930
3030
6060
C110
81F0
00F0
ENDCHAR
STARTCHAR uni2155
ENCODING 8533
SWIDTH 600 0
DWIDTH 14 0
BBX 13 15 1 0
BITMAP
3010
7038
1060
1040
1080
1100
1000
00F0
11F0
19F0
31F0
6018
C118
81F0
00E0
ENDCHAR
STARTCHAR uni2156
ENCODING 8534
SWIDTH 600 0
DWIDTH 14 0
BBX 13 16 1 0
BITMAP
7800
F810
8838
0860
1040
6080
FD00
FC00
00F0
11F0
19F0
31F0
6018
C118
81F0
00E0
ENDCHAR
STARTCHAR uni2157
ENCODING 8535
SWIDTH 600 0
DWIDTH 14 0
BBX 13 16 1 0
BITMAP
7000
F810
8838
1860
3040
8C80
FD00
7800
00F0
11F0
19F0
31F0
6018
C118
81F0
00E0
ENDCHAR
STARTCHAR uni2158
ENCODING 8536
SWIDTH 600 0
DWIDTH 14 0
BBX 13 16 1 0
BITMAP
3000
2010
4838
C860
FC40
FC80
0900
0800
00F0
11F0
19F0
31F0
6018
C118
81F0
00E0
ENDCHAR
STARTCHAR uni2159
ENCODING 8537
SWIDTH 600 0
DWIDTH 14 0
BBX 13 15 1 0
BITMAP
3010
7038
1060
1040
1080
1100
1000
00F0
11F8
1990
3170
61F8
C198
81F0
00F0
ENDCHAR
STARTCHAR uni215A
ENCODING 8538
SWIDTH 600 0
DWIDTH 14 0
BBX 13 16 1 0
BITMAP
7800
7810
7838
FC60
0C40
8C80
F900
7800
00F0
11F8
1990
3170
61F8
C198
81F0
00F0
ENDCHAR
STARTCHAR oneeighth
ENCODING 8539
SWIDTH 600 0
DWIDTH 14 0
BBX 13 15 1 0
BITMAP
3010
7038
1060
1040
1080
1100
1000
00E0
11F0
1990
30F0
61F0
C118
81F0
00F0
ENDCHAR
STARTCHAR threeeighths
ENCODING 8540
SWIDTH 600 0
DWIDTH 14 0
BBX 13 16 1 0
BITMAP
7000
F810
8838
1860
3040
8C80
FD00
7800
00E0
11F0
1990
30F0
61F0
C118
81F0
00F0
ENDCHAR
STARTCHAR fiveeighths
ENCODING 8541
SWIDTH 600 0
DWIDTH 14 0
BBX 13 16 1 0
BITMAP
7800
7810
7838
FC60
0C40
8C80
F900
7800
00E0
11F0
1990
30F0
61F0
C118
81F0
00F0
ENDCHAR
STARTCHAR seveneighths
ENCODING 8542
SWIDTH 600 0
DWIDTH 14 0
BBX 13 16 1 0
BITMAP
FC00
FC10
0838
1060
3040
3080
2100
2000
00E0
11F0
1990
30F0
61F0
C118
81F0
00F0
ENDCHAR
STARTCHAR uni2189
ENCODING 8585
SWIDTH 600 0
DWIDTH 14 0
BBX 13 16 1 0
BITMAP
7800
FC10
CC38
8460
8440
CC80
FD00
7800
00E0
11F0
1930
3030
6060
C110
81F0
00F0
ENDCHAR
STARTCHAR uni2190
ENCODING 8592
SWIDTH 600 0
DWIDTH 14 0
BBX 14 14 0 -1
BITMAP
0200
0300
0600
0C00
1800
3000
7FFC
FFFC
3000
1800
0C00
0600
0300
0200
ENDCHAR
STARTCHAR arrowup
ENCODING 8593
SWIDTH 600 0
DWIDTH 14 0
BBX 13 13 1 0
BITMAP
0200
0700
0F80
1EC0
3660
6630
C618
0600
0600
0600
0600
0600
0600
ENDCHAR
STARTCHAR uni2192
ENCODING 8594
SWIDTH 600 0
DWIDTH 14 0
BBX 13 14 1 -1
BITMAP
0200
0700
0380
00C0
0060
0030
FFF8
FFF8
0030
0060
00C0
0380
0700
0200
ENDCHAR
STARTCHAR arrowdown
ENCODING 8595
SWIDTH 600 0
DWIDTH 14 0
BBX 13 13 1 0
BITMAP
0600
0600
0600
0600
0600
0610
C618
6630
3660
1EC0
0F80
0700
0200
ENDCHAR
STARTCHAR arrowboth
ENCODING 8596
SWIDTH 600 0
DWIDTH 14 0
BBX 15 10 0 1
BITMAP
1860
1030
2018
600C
FFFC
FFFE
600C
2018
1030
1860
ENDCHAR
STARTCHAR arrowupdn
ENCODING 8597
SWIDTH 600 0
DWIDTH 14 0
BBX 10 15 2 -1
BITMAP
0400
1E00
3F00
6D80
CCC0
0C00
0C00
0C00
0C00
0C00
CCC0
6D80
3F00
1E00
0400
ENDCHAR
STARTCHAR uni2196
ENCODING 8598
SWIDTH 600 0
DWIDTH 14 0
BBX 10 10 2 1
BITMAP
FFC0
FF80
F000
F800
DC00
CE00
C700
C380
C1C0
00C0
ENDCHAR
STARTCHAR uni2197
ENCODING 8599
SWIDTH 600 0
DWIDTH 14 0
BBX 10 10 2 1
BITMAP
7FC0
7FC0
01C0
03C0
06C0
0CC0
18C0
30C0
60C0
C000
ENDCHAR
STARTCHAR uni2198
ENCODING 8600
SWIDTH 600 0
DWIDTH 14 0
BBX 10 10 2 1
BITMAP
C040
60C0
3040
1840
0C40
0640
0340
01C0
7FC0
7FC0
ENDCHAR
STARTCHAR uni2199
ENCODING 8601
SWIDTH 600 0
DWIDTH 14 0
BBX 10 10 2 1
BITMAP
8040
40C0
4180
4300
4600
4C00
D800
F000
FFC0
FFC0
ENDCHAR
STARTCHAR arrowupdnbse
ENCODING 8616
SWIDTH 600 0
DWIDTH 14 0
BBX 12 17 1 -4
BITMAP
0600
0F80
1EC0
7660
4620
0600
0600
0600
0600
2620
7660
1EC0
0F80
0600
0000
FFF0
FFF0
ENDCHAR
STARTCHAR uni21D0
ENCODING 8656
SWIDTH 600 0
DWIDTH 14 0
BBX 14 14 0 -1
BITMAP
0200
0300
0600
0C00
1FFC
3FFC
6000
E000
3FFC
1FFC
0C00
0600
0300
0200
ENDCHAR
STARTCHAR uni21D1
ENCODING 8657
SWIDTH 600 0
DWIDTH 14 0
BBX 13 13 1 0
BITMAP
0200
0700
0980
18C0
38E0
78B0
D898
1880
1880
1880
1880
1880
1880
ENDCHAR
STARTCHAR uni21D2
ENCODING 8658
SWIDTH 600 0
DWIDTH 14 0
BBX 13 14 1 -1
BITMAP
0200
0700
0380
00C0
FFE0
FFF0
0038
0038
FFF0
FFE0
00C0
0380
0700
0200
ENDCHAR
STARTCHAR uni21D3
ENCODING 8659
SWIDTH 600 0
DWIDTH 14 0
BBX 13 13 1 0
BITMAP
1880
1880
1880
1880
1880
1880
D898
78B0
38E0
18C0
0980
0700
0200
ENDCHAR
STARTCHAR uni2200
ENCODING 8704
SWIDTH 600 0
DWIDTH 14 0
BBX 13 16 1 0
BITMAP
C038
C030
6030
6060
6060
3FE0
3FC0
30C0
10C0
1880
1980
0980
0D00
0F00
0700
0700
ENDCHAR
STARTCHAR partialdiff
ENCODING 8706
SWIDTH 600 0
DWIDTH 14 0
BBX 11 16 2 0
BITMAP
1F00
3F80
31C0
00C0
00C0
0040
1E60
7F60
61C0
C0C0
C0C0
C0C0
C180
E380
7F00
3C00
ENDCHAR
STARTCHAR uni2203
ENCODING 8707
SWIDTH 600 0
DWIDTH 14 0
BBX 10 16 2 0
BITMAP
FFC0
FFC0
00C0
00C0
00C0
00C0
7FC0
7FC0
00C0
00C0
00C0
00C0
00C0
00C0
FFC0
FFC0
ENDCHAR
STARTCHAR uni2206
ENCODING 8710
SWIDTH 600 0
DWIDTH 14 0
BBX 12 16 1 0
BITMAP
0700
0700
0F00
0D80
0980
1980
18C0
30C0
30C0
3060
6060
6060
6030
C030
FFF0
FFF0
ENDCHAR
STARTCHAR product
ENCODING 8719
SWIDTH 600 0
DWIDTH 14 0
BBX 12 18 1 -3
BITMAP
FFF0
FFF0
C030
C030
C030
C030
C030
C030
C030
C030
C030
C030
C030
C030
C030
C030
C030
C030
ENDCHAR
STARTCHAR summation
ENCODING 8721
SWIDTH 600 0
DWIDTH 14 0
BBX 11 18 2 -3
BITMAP
FFE0
FFE0
6000
6000
3000
1800
0C00
0C00
0600
0700
0C00
1C00
1800
3000
6000
E000
FFE0
FFE0
ENDCHAR
STARTCHAR minus
ENCODING 8722
SWIDTH 600 0
DWIDTH 14 0
BBX 10 2 2 7
BITMAP
FFC0
FFC0
ENDCHAR
STARTCHAR uni2215
ENCODING 8725
SWIDTH 600 0
DWIDTH 14 0
BBX 13 14 1 1
BITMAP
0010
0038
0060
0040
0080
0100
0000
0000
1000
1800
3000
6000
C000
8000
ENDCHAR
STARTCHAR uni2219
ENCODING 8729
SWIDTH 600 0
DWIDTH 14 0
BBX 4 4 5 7
BITMAP
60
F0
F0
60
ENDCHAR
STARTCHAR radical
ENCODING 8730
SWIDTH 600 0
DWIDTH 14 0
BBX 13 22 1 -2
BITMAP
0018
0018
0010
0010
0010
0030
0020
0020
0020
0060
1060
7040
9040
18C0
08C0
0C80
0C80
0580
0780
0700
0300
0300
ENDCHAR
STARTCHAR infinity
ENCODING 8734
SWIDTH 600 0
DWIDTH 14 0
BBX 15 8 0 4
BITMAP
3878
7CFC
C78C
C304
C306
C58C
7CFC
3878
ENDCHAR
STARTCHAR orthogonal
ENCODING 8735
SWIDTH 600 0
DWIDTH 14 0
BBX 10 11 2 2
BITMAP
C000
C000
C000
C000
C000
C000
C000
C000
C000
FFC0
FFC0
ENDCHAR
STARTCHAR intersection
ENCODING 8745
SWIDTH 600 0
DWIDTH 14 0
BBX 10 12 2 2
BITMAP
1E00
3F80
6180
40C0
C0C0
C040
C040
C040
C040
C040
C040
C040
ENDCHAR
STARTCHAR integral
ENCODING 8747
SWIDTH 600 0
DWIDTH 14 0
BBX 7 23 4 -4
BITMAP
0E
1C
30
30
30
30
30
30
30
30
10
10
18
18
18
18
18
18
18
18
18
70
E0
ENDCHAR
STARTCHAR uni2237
ENCODING 8759
SWIDTH 600 0
DWIDTH 14 0
BBX 11 12 2 2
BITMAP
61C0
F1C0
F1E0
61C0
0000
0000
0000
0000
61C0
F1C0
F1E0
61C0
ENDCHAR
STARTCHAR approxequal
ENCODING 8776
SWIDTH 600 0
DWIDTH 14 0
BBX 11 10 2 3
BITMAP
3840
7CE0
CFC0
8380
0000
0000
3840
7CE0
CFC0
8380
ENDCHAR
STARTCHAR notequal
ENCODING 8800
SWIDTH 600 0
DWIDTH 14 0
BBX 10 14 2 0
BITMAP
00C0
0180
0100
FFC0
FFC0
0600
0400
0C00
0800
FFC0
FFC0
3000
2000
4000
ENDCHAR
STARTCHAR equivalence
ENCODING 8801
SWIDTH 600 0
DWIDTH 14 0
BBX 10 12 2 2
BITMAP
FFC0
FFC0
0000
0000
0000
FFC0
FFC0
0000
0000
0000
FFC0
FFC0
ENDCHAR
STARTCHAR lessequal
ENCODING 8804
SWIDTH 600 0
DWIDTH 14 0
BBX 10 13 2 0
BITMAP
0040
01C0
0FC0
7E00
F000
F000
7E00
0FC0
01C0
0040
0000
FFC0
FFC0
ENDCHAR
STARTCHAR greaterequal
ENCODING 8805
SWIDTH 600 0
DWIDTH 14 0
BBX 10 13 2 0
BITMAP
8000
E000
FC00
1F80
01C0
01C0
1F80
FC00
E000
8000
0000
FFC0
FFC0
ENDCHAR
STARTCHAR house
ENCODING 8962
SWIDTH 600 0
DWIDTH 14 0
BBX 12 16 1 0
BITMAP
0600
0F00
0D80
19C0
30C0
7060
6030
C030
C010
C010
C010
C010
C010
C010
FFF0
FFF0
ENDCHAR
STARTCHAR revlogicalnot
ENCODING 8976
SWIDTH 600 0
DWIDTH 14 0
BBX 10 7 2 2
BITMAP
FFC0
FFC0
C000
C000
C000
C000
C000
ENDCHAR
STARTCHAR uni231C
ENCODING 8988
SWIDTH 600 0
DWIDTH 14 0
BBX 7 18 5 -1
BITMAP
FE
FE
C0
C0
C0
C0
C0
C0
C0
C0
C0
C0
C0
C0
C0
C0
C0
C0
ENDCHAR
STARTCHAR uni231D
ENCODING 8989
SWIDTH 600 0
DWIDTH 14 0
BBX 7 18 2 -1
BITMAP
FE
FE
06
06
06
06
06
06
06
06
06
06
06
06
06
06
06
06
ENDCHAR
STARTCHAR uni231E
ENCODING 8990
SWIDTH 600 0
DWIDTH 14 0
BBX 7 18 5 -2
BITMAP
C0
C0
C0
C0
C0
C0
C0
C0
C0
C0
C0
C0
C0
C0
C0
C0
FE
FE
ENDCHAR
STARTCHAR uni231F
ENCODING 8991
SWIDTH 600 0
DWIDTH 14 0
BBX 7 18 2 -2
BITMAP
06
06
06
06
06
06
06
06
06
06
06
06
06
06
06
06
FE
FE
ENDCHAR
STARTCHAR integraltp
ENCODING 8992
SWIDTH 600 0
DWIDTH 14 0
BBX 5 29 6 -10
BITMAP
38
78
60
40
C0
C0
C0
C0
C0
C0
C0
C0
C0
C0
C0
C0
C0
C0
C0
C0
C0
C0
C0
C0
C0
C0
C0
C0
C0
ENDCHAR
STARTCHAR integralbt
ENCODING 8993
SWIDTH 600 0
DWIDTH 14 0
BBX 4 28 4 -4
BITMAP
30
30
30
30
30
30
30
30
30
30
30
30
30
30
30
30
30
30
30
30
30
30
30
30
30
30
E0
C0
ENDCHAR
STARTCHAR uni2500
ENCODING 9472
SWIDTH 600 0
DWIDTH 14 0
BBX 16 2 -1 6
BITMAP
FFFF
FFFF
ENDCHAR
STARTCHAR uni2501
ENCODING 9473
SWIDTH 600 0
DWIDTH 14 0
BBX 16 4 -1 5
BITMAP
FFFF
FFFF
FFFF
FFFF
ENDCHAR
STARTCHAR uni2502
ENCODING 9474
SWIDTH 600 0
DWIDTH 14 0
BBX 2 34 6 -10
BITMAP
C0
C0
C0
C0
C0
C0
C0
C0
C0
C0
C0
C0
C0
C0
C0
C0
C0
C0
C0
C0
C0
C0
C0
C0
C0
C0
C0
C0
C0
C0
C0
C0
C0
C0
ENDCHAR
STARTCHAR uni2503
ENCODING 9475
SWIDTH 600 0
DWIDTH 14 0
BBX 4 34 5 -10
BITMAP
F0
F0
F0
F0
F0
F0
F0
F0
F0
F0
F0
F0
F0
F0
F0
F0
F0
F0
F0
F0
F0
F0
F0
F0
F0
F0
F0
F0
F0
F0
F0
F0
F0
F0
ENDCHAR
STARTCHAR uni2504
ENCODING 9476
SWIDTH 600 0
DWIDTH 14 0
BBX 13 2 1 6
BITMAP
E778
E778
ENDCHAR
STARTCHAR uni2505
ENCODING 9477
SWIDTH 600 0
DWIDTH 14 0
BBX 13 4 1 5
BITMAP
E778
E778
E778
E778
ENDCHAR
STARTCHAR uni2506
ENCODING 9478
SWIDTH 600 0
DWIDTH 14 0
BBX 2 26 6 -6
BITMAP
C0
C0
C0
C0
C0
C0
00
00
00
00
C0
C0
C0
C0
C0
C0
00
00
00
C0
C0
C0
C0
C0
C0
C0
ENDCHAR
STARTCHAR uni2507
ENCODING 9479
SWIDTH 600 0
DWIDTH 14 0
BBX 4 25 5 -5
BITMAP
F0
F0
F0
F0
F0
F0
00
00
00
00
F0
F0
F0
F0
F0
F0
00
00
00
F0
F0
F0
F0
F0
F0
ENDCHAR
STARTCHAR uni2508
ENCODING 9480
SWIDTH 600 0
DWIDTH 14 0
BBX 14 2 0 6
BITMAP
EEDC
EEDC
ENDCHAR
STARTCHAR uni2509
ENCODING 9481
SWIDTH 600 0
DWIDTH 14 0
BBX 14 4 0 5
BITMAP
EEDC
EEDC
EEDC
EEDC
ENDCHAR
STARTCHAR uni250A
ENCODING 9482
SWIDTH 600 0
DWIDTH 14 0
BBX 2 27 6 -6
BITMAP
C0
C0
C0
C0
C0
00
00
00
C0
C0
C0
C0
C0
00
00
C0
C0
C0
C0
C0
00
00
C0
C0
C0
C0
C0
ENDCHAR
STARTCHAR uni250B
ENCODING 9483
SWIDTH 600 0
DWIDTH 14 0
BBX 4 27 5 -6
BITMAP
F0
F0
F0
F0
F0
00
00
00
F0
F0
F0
F0
F0
00
00
F0
F0
F0
F0
F0
00
00
F0
F0
F0
F0
F0
ENDCHAR
STARTCHAR uni250C
ENCODING 9484
SWIDTH 600 0
DWIDTH 14 0
BBX 9 18 6 -10
BITMAP
FF80
FF80
C000
C000
C000
C000
C000
C000
C000
C000
C000
C000
C000
C000
C000
C000
C000
C000
ENDCHAR
STARTCHAR uni250D
ENCODING 9485
SWIDTH 600 0
DWIDTH 14 0
BBX 9 19 6 -10
BITMAP
FF80
FF80
FF80
FF80
C000
C000
C000
C000
C000
C000
C000
C000
C000
C000
C000
C000
C000
C000
C000
ENDCHAR
STARTCHAR uni250E
ENCODING 9486
SWIDTH 600 0
DWIDTH 14 0
BBX 10 18 5 -10
BITMAP
FFC0
FFC0
F000
F000
F000
F000
F000
F000
F000
F000
F000
F000
F000
F000
F000
F000
F000
F000
ENDCHAR
STARTCHAR uni250F
ENCODING 9487
SWIDTH 600 0
DWIDTH 14 0
BBX 10 19 5 -10
BITMAP
FFC0
FFC0
FFC0
FFC0
F000
F000
F000
F000
F000
F000
F000
F000
F000
F000
F000
F000
F000
F000
F000
ENDCHAR
STARTCHAR uni2510
ENCODING 9488
SWIDTH 600 0
DWIDTH 14 0
BBX 9 18 -1 -10
BITMAP
FF80
FF80
0180
0180
0180
0180
0180
0180
0180
0180
0180
0180
0180
0180
0180
0180
0180
0180
ENDCHAR
STARTCHAR uni2511
ENCODING 9489
SWIDTH 600 0
DWIDTH 14 0
BBX 9 19 -1 -10
BITMAP
FF80
FF80
FF80
FF80
0180
0180
0180
0180
0180
0180
0180
0180
0180
0180
0180
0180
0180
0180
0180
ENDCHAR
STARTCHAR uni2512
ENCODING 9490
SWIDTH 600 0
DWIDTH 14 0
BBX 10 18 -1 -10
BITMAP
FFC0
FFC0
03C0
03C0
03C0
03C0
03C0
03C0
03C0
03C0
03C0
03C0
03C0
03C0
03C0
03C0
03C0
03C0
ENDCHAR
STARTCHAR uni2513
ENCODING 9491
SWIDTH 600 0
DWIDTH 14 0
BBX 10 19 -1 -10
BITMAP
FFC0
FFC0
FFC0
FFC0
03C0
03C0
03C0
03C0
03C0
03C0
03C0
03C0
03C0
03C0
03C0
03C0
03C0
03C0
03C0
ENDCHAR
STARTCHAR uni2514
ENCODING 9492
SWIDTH 600 0
DWIDTH 14 0
BBX 9 18 6 6
BITMAP
C000
C000
C000
C000
C000
C000
C000
C000
C000
C000
C000
C000
C000
C000
C000
C000
FF80
FF80
ENDCHAR
STARTCHAR uni2515
ENCODING 9493
SWIDTH 600 0
DWIDTH 14 0
BBX 9 19 6 5
BITMAP
C000
C000
C000
C000
C000
C000
C000
C000
C000
C000
C000
C000
C000
C000
C000
FF80
FF80
FF80
FF80
ENDCHAR
STARTCHAR uni2516
ENCODING 9494
SWIDTH 600 0
DWIDTH 14 0
BBX 10 18 5 6
BITMAP
F000
F000
F000
F000
F000
F000
F000
F000
F000
F000
F000
F000
F000
F000
F000
F000
FFC0
FFC0
ENDCHAR
STARTCHAR uni2517
ENCODING 9495
SWIDTH 600 0
DWIDTH 14 0
BBX 10 19 5 5
BITMAP
F000
F000
F000
F000
F000
F000
F000
F000
F000
F000
F000
F000
F000
F000
F000
FFC0
FFC0
FFC0
FFC0
ENDCHAR
STARTCHAR uni2518
ENCODING 9496
SWIDTH 600 0
DWIDTH 14 0
BBX 9 18 -1 6
BITMAP
0180
0180
0180
0180
0180
0180
0180
0180
0180
0180
0180
0180
0180
0180
0180
0180
FF80
FF80
ENDCHAR
STARTCHAR uni2519
ENCODING 9497
SWIDTH 600 0
DWIDTH 14 0
BBX 9 19 -1 5
BITMAP
0180
0180
0180
0180
0180
0180
0180
0180
0180
0180
0180
0180
0180
0180
0180
FF80
FF80
FF80
FF80
ENDCHAR
STARTCHAR uni251A
ENCODING 9498
SWIDTH 600 0
DWIDTH 14 0
BBX 10 18 -1 6
BITMAP
03C0
03C0
03C0
03C0
03C0
03C0
03C0
03C0
03C0
03C0
03C0
03C0
03C0
03C0
03C0
03C0
FFC0
FFC0
ENDCHAR
STARTCHAR uni251B
ENCODING 9499
SWIDTH 600 0
DWIDTH 14 0
BBX 10 19 -1 5
BITMAP
03C0
03C0
03C0
03C0
03C0
03C0
03C0
03C0
03C0
03C0
03C0
03C0
03C0
03C0
03C0
FFC0
FFC0
FFC0
FFC0
ENDCHAR
STARTCHAR uni251C
ENCODING 9500
SWIDTH 600 0
DWIDTH 14 0
BBX 9 34 6 -10
BITMAP
C000
C000
C000
C000
C000
C000
C000
C000
C000
C000
C000
C000
C000
C000
C000
C000
FF80
FF80
C000
C000
C000
C000
C000
C000
C000
C000
C000
C000
C000
C000
C000
C000
C000
C000
ENDCHAR
STARTCHAR uni251D
ENCODING 9501
SWIDTH 600 0
DWIDTH 14 0
BBX 9 34 6 -10
BITMAP
C000
C000
C000
C000
C000
C000
C000
C000
C000
C000
C000
C000
C000
C000
C000
FF80
FF80
FF80
FF80
C000
C000
C000
C000
C000
C000
C000
C000
C000
C000
C000
C000
C000
C000
C000
ENDCHAR
STARTCHAR uni251E
ENCODING 9502
SWIDTH 600 0
DWIDTH 14 0
BBX 10 34 5 -10
BITMAP
F000
F000
F000
F000
F000
F000
F000
F000
F000
F000
F000
F000
F000
F000
F000
F000
FFC0
FFC0
6000
6000
6000
6000
6000
6000
6000
6000
6000
6000
6000
6000
6000
6000
6000
6000
ENDCHAR
STARTCHAR uni251F
ENCODING 9503
SWIDTH 600 0
DWIDTH 14 0
BBX 10 34 5 -10
BITMAP
6000
6000
6000
6000
6000
6000
6000
6000
6000
6000
6000
6000
6000
6000
6000
6000
FFC0
FFC0
F000
F000
F000
F000
F000
F000
F000
F000
F000
F000
F000
F000
F000
F000
F000
F000
ENDCHAR
STARTCHAR uni2520
ENCODING 9504
SWIDTH 600 0
DWIDTH 14 0
BBX 10 34 5 -10
BITMAP
F000
F000
F000
F000
F000
F000
F000
F000
F000
F000
F000
F000
F000
F000
F000
F000
FFC0
FFC0
F000
F000
F000
F000
F000
F000
F000
F000
F000
F000
F000
F000
F000
F000
F000
F000
ENDCHAR
STARTCHAR uni2521
ENCODING 9505
SWIDTH 600 0
DWIDTH 14 0
BBX 10 34 5 -10
BITMAP
F000
F000
F000
F000
F000
F000
F000
F000
F000
F000
F000
F000
F000
F000
F000
FFC0
FFC0
FFC0
FFC0
6000
6000
6000
6000
6000
6000
6000
6000
6000
6000
6000
6000
6000
6000
6000
ENDCHAR
STARTCHAR uni2522
ENCODING 9506
SWIDTH 600 0
DWIDTH 14 0
BBX 10 34 5 -10
BITMAP
6000
6000
6000
6000
6000
6000
6000
6000
6000
6000
6000
6000
6000
6000
6000
FFC0
FFC0
FFC0
FFC0
F000
F000
F000
F000
F000
F000
F000
F000
F000
F000
F000
F000
F000
F000
F000
ENDCHAR
STARTCHAR uni2523
ENCODING 9507
SWIDTH 600 0
DWIDTH 14 0
BBX 10 34 5 -10
BITMAP
F000
F000
F000
F000
F000
F000
F000
F000
F000
F000
F000
F000
F000
F000
F000
FFC0
FFC0
FFC0
FFC0
F000
F000
F000
F000
F000
F000
F000
F000
F000
F000
F000
F000
F000
F000
F000
ENDCHAR
STARTCHAR uni2524
ENCODING 9508
SWIDTH 600 0
DWIDTH 14 0
BBX 9 34 -1 -10
BITMAP
0180
0180
0180
0180
0180
0180
0180
0180
0180
0180
0180
0180
0180
0180
0180
0180
FF80
FF80
0180
0180
0180
0180
0180
0180
0180
0180
0180
0180
0180
0180
0180
0180
0180
0180
ENDCHAR
STARTCHAR uni2525
ENCODING 9509
SWIDTH 600 0
DWIDTH 14 0
BBX 9 34 -1 -10
BITMAP
0180
0180
0180
0180
0180
0180
0180
0180
0180
0180
0180
0180
0180
0180
0180
FF80
FF80
FF80
FF80
0180
0180
0180
0180
0180
0180
0180
0180
0180
0180
0180
0180
0180
0180
0180
ENDCHAR
STARTCHAR uni2526
ENCODING 9510
SWIDTH 600 0
DWIDTH 14 0
BBX 10 34 -1 -10
BITMAP
03C0
03C0
03C0
03C0
03C0
03C0
03C0
03C0
03C0
03C0
03C0
03C0
03C0
03C0
03C0
03C0
FFC0
FFC0
0180
0180
0180
0180
0180
0180
0180
0180
0180
0180
0180
0180
0180
0180
0180
0180
ENDCHAR
STARTCHAR uni2527
ENCODING 9511
SWIDTH 600 0
DWIDTH 14 0
BBX 10 34 -1 -10
BITMAP
0180
0180
0180
0180
0180
0180
0180
0180
0180
0180
0180
0180
0180
0180
0180
0180
FFC0
FFC0
03C0
03C0
03C0
03C0
03C0
03C0
03C0
03C0
03C0
03C0
03C0
03C0
03C0
03C0
03C0
03C0
ENDCHAR
STARTCHAR uni2528
ENCODING 9512
SWIDTH 600 0
DWIDTH 14 0
BBX 10 34 -1 -10
BITMAP
03C0
03C0
03C0
03C0
03C0
03C0
03C0
03C0
03C0
03C0
03C0
03C0
03C0
03C0
03C0
03C0
FFC0
FFC0
03C0
03C0
03C0
03C0
03C0
03C0
03C0
03C0
03C0
03C0
03C0
03C0
03C0
03C0
03C0
03C0
ENDCHAR
STARTCHAR uni2529
ENCODING 9513
SWIDTH 600 0
DWIDTH 14 0
BBX 10 34 -1 -10
BITMAP
03C0
03C0
03C0
03C0
03C0
03C0
03C0
03C0
03C0
03C0
03C0
03C0
03C0
03C0
03C0
FFC0
FFC0
FFC0
FFC0
0180
0180
0180
0180
0180
0180
0180
0180
0180
0180
0180
0180
0180
0180
0180
ENDCHAR
STARTCHAR uni252A
ENCODING 9514
SWIDTH 600 0
DWIDTH 14 0
BBX 10 34 -1 -10
BITMAP
0180
0180
0180
0180
0180
0180
0180
0180
0180
0180
0180
0180
0180
0180
0180
FFC0
FFC0
FFC0
FFC0
03C0
03C0
03C0
03C0
03C0
03C0
03C0
03C0
03C0
03C0
03C0
03C0
03C0
03C0
03C0
ENDCHAR
STARTCHAR uni252B
ENCODING 9515
SWIDTH 600 0
DWIDTH 14 0
BBX 10 34 -1 -10
BITMAP
03C0
03C0
03C0
03C0
03C0
03C0
03C0
03C0
03C0
03C0
03C0
03C0
03C0
03C0
03C0
FFC0
FFC0
FFC0
FFC0
03C0
03C0
03C0
03C0
03C0
03C0
03C0
03C0
03C0
03C0
03C0
03C0
03C0
03C0
03C0
ENDCHAR
STARTCHAR uni252C
ENCODING 9516
SWIDTH 600 0
DWIDTH 14 0
BBX 16 18 -1 -10
BITMAP
FFFF
FFFF
0180
0180
0180
0180
0180
0180
0180
0180
0180
0180
0180
0180
0180
0180
0180
0180
ENDCHAR
STARTCHAR uni252D
ENCODING 9517
SWIDTH 600 0
DWIDTH 14 0
BBX 16 19 -1 -10
BITMAP
FF80
FFFF
FFFF
FF80
0180
0180
0180
0180
0180
0180
0180
0180
0180
0180
0180
0180
0180
0180
0180
ENDCHAR
STARTCHAR uni252E
ENCODING 9518
SWIDTH 600 0
DWIDTH 14 0
BBX 16 19 -1 -10
BITMAP
01FF
FFFF
FFFF
01FF
0180
0180
0180
0180
0180
0180
0180
0180
0180
0180
0180
0180
0180
0180
0180
ENDCHAR
STARTCHAR uni252F
ENCODING 9519
SWIDTH 600 0
DWIDTH 14 0
BBX 16 19 -1 -10
BITMAP
FFFF
FFFF
FFFF
FFFF
0180
0180
0180
0180
0180
0180
0180
0180
0180
0180
0180
0180
0180
0180
0180
ENDCHAR
STARTCHAR uni2530
ENCODING 9520
SWIDTH 600 0
DWIDTH 14 0
BBX 16 18 -1 -10
BITMAP
FFFF
FFFF
03C0
03C0
03C0
03C0
03C0
03C0
03C0
03C0
03C0
03C0
03C0
03C0
03C0
03C0
03C0
03C0
ENDCHAR
STARTCHAR uni2531
ENCODING 9521
SWIDTH 600 0
DWIDTH 14 0
BBX 16 19 -1 -10
BITMAP
FFC0
FFFF
FFFF
FFC0
03C0
03C0
03C0
03C0
03C0
03C0
03C0
03C0
03C0
03C0
03C0
03C0
03C0
03C0
03C0
ENDCHAR
STARTCHAR uni2532
ENCODING 9522
SWIDTH 600 0
DWIDTH 14 0
BBX 16 19 -1 -10
BITMAP
03FF
FFFF
FFFF
03FF
03C0
03C0
03C0
03C0
03C0
03C0
03C0
03C0
03C0
03C0
03C0
03C0
03C0
03C0
03C0
ENDCHAR
STARTCHAR uni2533
ENCODING 9523
SWIDTH 600 0
DWIDTH 14 0
BBX 16 19 -1 -10
BITMAP
FFFF
FFFF
FFFF
FFFF
03C0
03C0
03C0
03C0
03C0
03C0
03C0
03C0
03C0
03C0
03C0
03C0
03C0
03C0
03C0
ENDCHAR
STARTCHAR uni2534
ENCODING 9524
SWIDTH 600 0
DWIDTH 14 0
BBX 16 18 -1 6
BITMAP
0180
0180
0180
0180
0180
0180
0180
0180
0180
0180
0180
0180
0180
0180
0180
0180
FFFF
FFFF
ENDCHAR
STARTCHAR uni2535
ENCODING 9525
SWIDTH 600 0
DWIDTH 14 0
BBX 16 19 -1 5
BITMAP
0180
0180
0180
0180
0180
0180
0180
0180
0180
0180
0180
0180
0180
0180
0180
FF80
FFFF
FFFF
FF80
ENDCHAR
STARTCHAR uni2536
ENCODING 9526
SWIDTH 600 0
DWIDTH 14 0
BBX 16 19 -1 5
BITMAP
0180
0180
0180
0180
0180
0180
0180
0180
0180
0180
0180
0180
0180
0180
0180
01FF
FFFF
FFFF
01FF
ENDCHAR
STARTCHAR uni2537
ENCODING 9527
SWIDTH 600 0
DWIDTH 14 0
BBX 16 19 -1 5
BITMAP
0180
0180
0180
0180
0180
0180
0180
0180
0180
0180
0180
0180
0180
0180
0180
FFFF
FFFF
FFFF
FFFF
ENDCHAR
STARTCHAR uni2538
ENCODING 9528
SWIDTH 600 0
DWIDTH 14 0
BBX 16 18 -1 6
BITMAP
03C0
03C0
03C0
03C0
03C0
03C0
03C0
03C0
03C0
03C0
03C0
03C0
03C0
03C0
03C0
03C0
FFFF
FFFF
ENDCHAR
STARTCHAR uni2539
ENCODING 9529
SWIDTH 600 0
DWIDTH 14 0
BBX 16 19 -1 5
BITMAP
03C0
03C0
03C0
03C0
03C0
03C0
03C0
03C0
03C0
03C0
03C0
03C0
03C0
03C0
03C0
FFC0
FFFF
FFFF
FFC0
ENDCHAR
STARTCHAR uni253A
ENCODING 9530
SWIDTH 600 0
DWIDTH 14 0
BBX 16 19 -1 5
BITMAP
03C0
03C0
03C0
03C0
03C0
03C0
03C0
03C0
03C0
03C0
03C0
03C0
03C0
03C0
03C0
03FF
FFFF
FFFF
03FF
ENDCHAR
STARTCHAR uni253B
ENCODING 9531
SWIDTH 600 0
DWIDTH 14 0
BBX 16 19 -1 5
BITMAP
03C0
03C0
03C0
03C0
03C0
03C0
03C0
03C0
03C0
03C0
03C0
03C0
03C0
03C0
03C0
FFFF
FFFF
FFFF
FFFF
ENDCHAR
STARTCHAR uni253C
ENCODING 9532
SWIDTH 600 0
DWIDTH 14 0
BBX 16 34 -1 -10
BITMAP
0180
0180
0180
0180
0180
0180
0180
0180
0180
0180
0180
0180
0180
0180
0180
0180
FFFF
FFFF
0180
0180
0180
0180
0180
0180
0180
0180
0180
0180
0180
0180
0180
0180
0180
0180
ENDCHAR
STARTCHAR uni253D
ENCODING 9533
SWIDTH 600 0
DWIDTH 14 0
BBX 16 34 -1 -10
BITMAP
0180
0180
0180
0180
0180
0180
0180
0180
0180
0180
0180
0180
0180
0180
0180
FF80
FFFF
FFFF
FF80
0180
0180
0180
0180
0180
0180
0180
0180
0180
0180
0180
0180
0180
0180
0180
ENDCHAR
STARTCHAR uni253E
ENCODING 9534
SWIDTH 600 0
DWIDTH 14 0
BBX 16 34 -1 -10
BITMAP
0180
0180
0180
0180
0180
0180
0180
0180
0180
0180
0180
0180
0180
0180
0180
01FF
FFFF
FFFF
01FF
0180
0180
0180
0180
0180
0180
0180
0180
0180
0180
0180
0180
0180
0180
0180
ENDCHAR
STARTCHAR uni253F
ENCODING 9535
SWIDTH 600 0
DWIDTH 14 0
BBX 16 34 -1 -10
BITMAP
0180
0180
0180
0180
0180
0180
0180
0180
0180
0180
0180
0180
0180
0180
0180
FFFF
FFFF
FFFF
FFFF
0180
0180
0180
0180
0180
0180
0180
0180
0180
0180
0180
0180
0180
0180
0180
ENDCHAR
STARTCHAR uni2540
ENCODING 9536
SWIDTH 600 0
DWIDTH 14 0
BBX 16 34 -1 -10
BITMAP
03C0
03C0
03C0
03C0
03C0
03C0
03C0
03C0
03C0
03C0
03C0
03C0
03C0
03C0
03C0
03C0
FFFF
FFFF
0180
0180
0180
0180
0180
0180
0180
0180
0180
0180
0180
0180
0180
0180
0180
0180
ENDCHAR
STARTCHAR uni2541
ENCODING 9537
SWIDTH 600 0
DWIDTH 14 0
BBX 16 34 -1 -10
BITMAP
0180
0180
0180
0180
0180
0180
0180
0180
0180
0180
0180
0180
0180
0180
0180
0180
FFFF
FFFF
03C0
03C0
03C0
03C0
03C0
03C0
03C0
03C0
03C0
03C0
03C0
03C0
03C0
03C0
03C0
03C0
ENDCHAR
STARTCHAR uni2542
ENCODING 9538
SWIDTH 600 0
DWIDTH 14 0
BBX 16 34 -1 -10
BITMAP
03C0
03C0
03C0
03C0
03C0
03C0
03C0
03C0
03C0
03C0
03C0
03C0
03C0
03C0
03C0
03C0
FFFF
FFFF
03C0
03C0
03C0
03C0
03C0
03C0
03C0
03C0
03C0
03C0
03C0
03C0
03C0
03C0
03C0
03C0
ENDCHAR
STARTCHAR uni2543
ENCODING 9539
SWIDTH 600 0
DWIDTH 14 0
BBX 16 34 -1 -10
BITMAP
03C0
03C0
03C0
03C0
03C0
03C0
03C0
03C0
03C0
03C0
03C0
03C0
03C0
03C0
03C0
FFC0
FFFF
FFFF
FFC0
0180
0180
0180
0180
0180
0180
0180
0180
0180
0180
0180
0180
0180
0180
0180
ENDCHAR
STARTCHAR uni2544
ENCODING 9540
SWIDTH 600 0
DWIDTH 14 0
BBX 16 34 -1 -10
BITMAP
03C0
03C0
03C0
03C0
03C0
03C0
03C0
03C0
03C0
03C0
03C0
03C0
03C0
03C0
03C0
03FF
FFFF
FFFF
03FF
0180
0180
0180
0180
0180
0180
0180
0180
0180
0180
0180
0180
0180
0180
0180
ENDCHAR
STARTCHAR uni2545
ENCODING 9541
SWIDTH 600 0
DWIDTH 14 0
BBX 16 34 -1 -10
BITMAP
0180
0180
0180
0180
0180
0180
0180
0180
0180
0180
0180
0180
0180
0180
0180
FFC0
FFFF
FFFF
FFC0
03C0
03C0
03C0
03C0
03C0
03C0
03C0
03C0
03C0
03C0
03C0
03C0
03C0
03C0
03C0
ENDCHAR
STARTCHAR uni2546
ENCODING 9542
SWIDTH 600 0
DWIDTH 14 0
BBX 16 34 -1 -10
BITMAP
0180
0180
0180
0180
0180
0180
0180
0180
0180
0180
0180
0180
0180
0180
0180
03FF
FFFF
FFFF
03FF
03C0
03C0
03C0
03C0
03C0
03C0
03C0
03C0
03C0
03C0
03C0
03C0
03C0
03C0
03C0
ENDCHAR
STARTCHAR uni2547
ENCODING 9543
SWIDTH 600 0
DWIDTH 14 0
BBX 16 34 -1 -10
BITMAP
03C0
03C0
03C0
03C0
03C0
03C0
03C0
03C0
03C0
03C0
03C0
03C0
03C0
03C0
03C0
FFFF
FFFF
FFFF
FFFF
0180
0180
0180
0180
0180
0180
0180
0180
0180
0180
0180
0180
0180
0180
0180
ENDCHAR
STARTCHAR uni2548
ENCODING 9544
SWIDTH 600 0
DWIDTH 14 0
BBX 16 34 -1 -10
BITMAP
0180
0180
0180
0180
0180
0180
0180
0180
0180
0180
0180
0180
0180
0180
0180
FFFF
FFFF
FFFF
FFFF
03C0
03C0
03C0
03C0
03C0
03C0
03C0
03C0
03C0
03C0
03C0
03C0
03C0
03C0
03C0
ENDCHAR
STARTCHAR uni2549
ENCODING 9545
SWIDTH 600 0
DWIDTH 14 0
BBX 16 34 -1 -10
BITMAP
03C0
03C0
03C0
03C0
03C0
03C0
03C0
03C0
03C0
03C0
03C0
03C0
03C0
03C0
03C0
FFC0
FFFF
FFFF
FFC0
03C0
03C0
03C0
03C0
03C0
03C0
03C0
03C0
03C0
03C0
03C0
03C0
03C0
03C0
03C0
ENDCHAR
STARTCHAR uni254A
ENCODING 9546
SWIDTH 600 0
DWIDTH 14 0
BBX 16 34 -1 -10
BITMAP
03C0
03C0
03C0
03C0
03C0
03C0
03C0
03C0
03C0
03C0
03C0
03C0
03C0
03C0
03C0
03FF
FFFF
FFFF
03FF
03C0
03C0
03C0
03C0
03C0
03C0
03C0
03C0
03C0
03C0
03C0
03C0
03C0
03C0
03C0
ENDCHAR
STARTCHAR uni254B
ENCODING 9547
SWIDTH 600 0
DWIDTH 14 0
BBX 16 34 -1 -10
BITMAP
03C0
03C0
03C0
03C0
03C0
03C0
03C0
03C0
03C0
03C0
03C0
03C0
03C0
03C0
03C0
FFFF
FFFF
FFFF
FFFF
03C0
03C0
03C0
03C0
03C0
03C0
03C0
03C0
03C0
03C0
03C0
03C0
03C0
03C0
03C0
ENDCHAR
STARTCHAR uni254C
ENCODING 9548
SWIDTH 600 0
DWIDTH 14 0
BBX 11 2 2 6
BITMAP
E1E0
E1E0
ENDCHAR
STARTCHAR uni254D
ENCODING 9549
SWIDTH 600 0
DWIDTH 14 0
BBX 11 4 2 5
BITMAP
E1E0
E1E0
E1E0
E1E0
ENDCHAR
STARTCHAR uni254E
ENCODING 9550
SWIDTH 600 0
DWIDTH 14 0
BBX 2 22 6 -4
BITMAP
C0
C0
C0
C0
C0
C0
C0
00
00
00
00
00
00
00
00
C0
C0
C0
C0
C0
C0
C0
ENDCHAR
STARTCHAR uni254F
ENCODING 9551
SWIDTH 600 0
DWIDTH 14 0
BBX 4 22 5 -4
BITMAP
F0
F0
F0
F0
F0
F0
F0
00
00
00
00
00
00
00
F0
F0
F0
F0
F0
F0
F0
F0
ENDCHAR
STARTCHAR uni2550
ENCODING 9552
SWIDTH 600 0
DWIDTH 14 0
BBX 16 6 -1 4
BITMAP
FFFF
FFFF
0000
0000
FFFF
FFFF
ENDCHAR
STARTCHAR uni2551
ENCODING 9553
SWIDTH 600 0
DWIDTH 14 0
BBX 6 34 4 -10
BITMAP
CC
CC
CC
CC
CC
CC
CC
CC
CC
CC
CC
CC
CC
CC
CC
CC
CC
CC
CC
CC
CC
CC
CC
CC
CC
CC
CC
CC
CC
CC
CC
CC
CC
CC
ENDCHAR
STARTCHAR uni2552
ENCODING 9554
SWIDTH 600 0
DWIDTH 14 0
BBX 9 20 6 -10
BITMAP
FF80
FF80
C000
C000
FF80
FF80
C000
C000
C000
C000
C000
C000
C000
C000
C000
C000
C000
C000
C000
C000
ENDCHAR
STARTCHAR uni2553
ENCODING 9555
SWIDTH 600 0
DWIDTH 14 0
BBX 11 18 4 -10
BITMAP
FFE0
FFE0
CC00
CC00
CC00
CC00
CC00
CC00
CC00
CC00
CC00
CC00
CC00
CC00
CC00
CC00
CC00
CC00
ENDCHAR
STARTCHAR uni2554
ENCODING 9556
SWIDTH 600 0
DWIDTH 14 0
BBX 11 20 4 -10
BITMAP
FFE0
FFE0
C000
C000
CFE0
CFE0
CC00
CC00
CC00
CC00
CC00
CC00
CC00
CC00
CC00
CC00
CC00
CC00
CC00
CC00
ENDCHAR
STARTCHAR uni2555
ENCODING 9557
SWIDTH 600 0
DWIDTH 14 0
BBX 9 20 -1 -10
BITMAP
FF80
FF80
0180
0180
FF80
FF80
0180
0180
0180
0180
0180
0180
0180
0180
0180
0180
0180
0180
0180
0180
ENDCHAR
STARTCHAR uni2556
ENCODING 9558
SWIDTH 600 0
DWIDTH 14 0
BBX 11 18 -1 -10
BITMAP
FFE0
FFE0
0660
0660
0660
0660
0660
0660
0660
0660
0660
0660
0660
0660
0660
0660
0660
0660
ENDCHAR
STARTCHAR uni2557
ENCODING 9559
SWIDTH 600 0
DWIDTH 14 0
BBX 11 20 -1 -10
BITMAP
FFE0
FFE0
0060
0060
FE60
FE60
0660
0660
0660
0660
0660
0660
0660
0660
0660
0660
0660
0660
0660
0660
ENDCHAR
STARTCHAR uni2558
ENCODING 9560
SWIDTH 600 0
DWIDTH 14 0
BBX 9 20 6 4
BITMAP
C000
C000
C000
C000
C000
C000
C000
C000
C000
C000
C000
C000
C000
C000
FF80
FF80
C000
C000
FF80
FF80
ENDCHAR
STARTCHAR uni2559
ENCODING 9561
SWIDTH 600 0
DWIDTH 14 0
BBX 11 18 4 6
BITMAP
CC00
CC00
CC00
CC00
CC00
CC00
CC00
CC00
CC00
CC00
CC00
CC00
CC00
CC00
CC00
CC00
FFE0
FFE0
ENDCHAR
STARTCHAR uni255A
ENCODING 9562
SWIDTH 600 0
DWIDTH 14 0
BBX 11 20 4 4
BITMAP
CC00
CC00
CC00
CC00
CC00
CC00
CC00
CC00
CC00
CC00
CC00
CC00
CC00
CC00
CFE0
CFE0
C000
C000
FFE0
FFE0
ENDCHAR
STARTCHAR uni255B
ENCODING 9563
SWIDTH 600 0
DWIDTH 14 0
BBX 9 20 -1 4
BITMAP
0180
0180
0180
0180
0180
0180
0180
0180
0180
0180
0180
0180
0180
0180
FF80
FF80
0180
0180
FF80
FF80
ENDCHAR
STARTCHAR uni255C
ENCODING 9564
SWIDTH 600 0
DWIDTH 14 0
BBX 11 18 -1 6
BITMAP
0660
0660
0660
0660
0660
0660
0660
0660
0660
0660
0660
0660
0660
0660
0660
0660
FFE0
FFE0
ENDCHAR
STARTCHAR uni255D
ENCODING 9565
SWIDTH 600 0
DWIDTH 14 0
BBX 11 20 -1 4
BITMAP
0660
0660
0660
0660
0660
0660
0660
0660
0660
0660
0660
0660
0660
0660
FE60
FE60
0060
0060
FFE0
FFE0
ENDCHAR
STARTCHAR uni255E
ENCODING 9566
SWIDTH 600 0
DWIDTH 14 0
BBX 9 34 6 -10
BITMAP
C000
C000
C000
C000
C000
C000
C000
C000
C000
C000
C000
C000
C000
C000
FF80
FF80
C000
C000
FF80
FF80
C000
C000
C000
C000
C000
C000
C000
C000
C000
C000
C000
C000
C000
C000
ENDCHAR
STARTCHAR uni255F
ENCODING 9567
SWIDTH 600 0
DWIDTH 14 0
BBX 11 34 4 -10
BITMAP
CC00
CC00
CC00
CC00
CC00
CC00
CC00
CC00
CC00
CC00
CC00
CC00
CC00
CC00
CC00
CC00
CFE0
CFE0
CC00
CC00
CC00
CC00
CC00
CC00
CC00
CC00
CC00
CC00
CC00
CC00
CC00
CC00
CC00
CC00
ENDCHAR
STARTCHAR uni2560
ENCODING 9568
SWIDTH 600 0
DWIDTH 14 0
BBX 11 34 4 -10
BITMAP
CC00
CC00
CC00
CC00
CC00
CC00
CC00
CC00
CC00
CC00
CC00
CC00
CC00
CC00
CFE0
CFE0
C000
C000
CFE0
CFE0
CC00
CC00
CC00
CC00
CC00
CC00
CC00
CC00
CC00
CC00
CC00
CC00
CC00
CC00
ENDCHAR
STARTCHAR uni2561
ENCODING 9569
SWIDTH 600 0
DWIDTH 14 0
BBX 9 34 -1 -10
BITMAP
0180
0180
0180
0180
0180
0180
0180
0180
0180
0180
0180
0180
0180
0180
FF80
FF80
0180
0180
FF80
FF80
0180
0180
0180
0180
0180
0180
0180
0180
0180
0180
0180
0180
0180
0180
ENDCHAR
STARTCHAR uni2562
ENCODING 9570
SWIDTH 600 0
DWIDTH 14 0
BBX 11 34 -1 -10
BITMAP
0660
0660
0660
0660
0660
0660
0660
0660
0660
0660
0660
0660
0660
0660
0660
0660
FE60
FE60
0660
0660
0660
0660
0660
0660
0660
0660
0660
0660
0660
0660
0660
0660
0660
0660
ENDCHAR
STARTCHAR uni2563
ENCODING 9571
SWIDTH 600 0
DWIDTH 14 0
BBX 11 34 -1 -10
BITMAP
0660
0660
0660
0660
0660
0660
0660
0660
0660
0660
0660
0660
0660
0660
FE60
FE60
0060
0060
FE60
FE60
0660
0660
0660
0660
0660
0660
0660
0660
0660
0660
0660
0660
0660
0660
ENDCHAR
STARTCHAR uni2564
ENCODING 9572
SWIDTH 600 0
DWIDTH 14 0
BBX 16 20 -1 -10
BITMAP
FFFF
FFFF
0000
0000
FFFF
FFFF
0180
0180
0180
0180
0180
0180
0180
0180
0180
0180
0180
0180
0180
0180
ENDCHAR
STARTCHAR uni2565
ENCODING 9573
SWIDTH 600 0
DWIDTH 14 0
BBX 16 18 -1 -10
BITMAP
FFFF
FFFF
0660
0660
0660
0660
0660
0660
0660
0660
0660
0660
0660
0660
0660
0660
0660
0660
ENDCHAR
STARTCHAR uni2566
ENCODING 9574
SWIDTH 600 0
DWIDTH 14 0
BBX 16 20 -1 -10
BITMAP
FFFF
FFFF
0000
0000
FE7F
FE7F
0660
0660
0660
0660
0660
0660
0660
0660
0660
0660
0660
0660
0660
0660
ENDCHAR
STARTCHAR uni2567
ENCODING 9575
SWIDTH 600 0
DWIDTH 14 0
BBX 16 20 -1 4
BITMAP
0180
0180
0180
0180
0180
0180
0180
0180
0180
0180
0180
0180
0180
0180
FFFF
FFFF
0000
0000
FFFF
FFFF
ENDCHAR
STARTCHAR uni2568
ENCODING 9576
SWIDTH 600 0
DWIDTH 14 0
BBX 16 18 -1 6
BITMAP
0660
0660
0660
0660
0660
0660
0660
0660
0660
0660
0660
0660
0660
0660
0660
0660
FFFF
FFFF
ENDCHAR
STARTCHAR uni2569
ENCODING 9577
SWIDTH 600 0
DWIDTH 14 0
BBX 16 20 -1 4
BITMAP
0660
0660
0660
0660
0660
0660
0660
0660
0660
0660
0660
0660
0660
0660
FE7F
FE7F
0000
0000
FFFF
FFFF
ENDCHAR
STARTCHAR uni256A
ENCODING 9578
SWIDTH 600 0
DWIDTH 14 0
BBX 16 34 -1 -10
BITMAP
0180
0180
0180
0180
0180
0180
0180
0180
0180
0180
0180
0180
0180
0180
FFFF
FFFF
0180
0180
FFFF
FFFF
0180
0180
0180
0180
0180
0180
0180
0180
0180
0180
0180
0180
0180
0180
ENDCHAR
STARTCHAR uni256B
ENCODING 9579
SWIDTH 600 0
DWIDTH 14 0
BBX 16 34 -1 -10
BITMAP
0660
0660
0660
0660
0660
0660
0660
0660
0660
0660
0660
0660
0660
0660
0660
0660
FFFF
FFFF
0660
0660
0660
0660
0660
0660
0660
0660
0660
0660
0660
0660
0660
0660
0660
0660
ENDCHAR
STARTCHAR uni256C
ENCODING 9580
SWIDTH 600 0
DWIDTH 14 0
BBX 16 34 -1 -10
BITMAP
0660
0660
0660
0660
0660
0660
0660
0660
0660
0660
0660
0660
0660
0660
FE7F
FE7F
0000
0000
FE7F
FE7F
0660
0660
0660
0660
0660
0660
0660
0660
0660
0660
0660
0660
0660
0660
ENDCHAR
STARTCHAR uni256D
ENCODING 9581
SWIDTH 600 0
DWIDTH 14 0
BBX 9 18 6 -10
BITMAP
0380
0F80
1C00
3000
6000
6000
C000
C000
C000
C000
C000
C000
C000
C000
C000
C000
C000
C000
ENDCHAR
STARTCHAR uni256E
ENCODING 9582
SWIDTH 600 0
DWIDTH 14 0
BBX 9 18 -1 -10
BITMAP
F000
FC00
1E00
0700
0300
0180
0180
0180
0180
0180
0180
0180
0180
0180
0180
0180
0180
0180
ENDCHAR
ENDFONT
